<svg xmlns="http://www.w3.org/2000/svg" width="36" height="36" fill="none" viewBox="0 0 36 36"><g clip-path="url(#clip0_31032_46322)"><rect width="36" height="36" fill="#f67344" rx="7"/><path fill="#ffa787" d="m26.873.568-.705-3.183c-.04-.18-.296-.18-.336 0L25.127.568a11.206 11.206 0 0 1-9.808 9.808l-3.184.705c-.18.04-.18.297 0 .337l3.184.705a11.206 11.206 0 0 1 9.808 9.808l.705 3.184c.04.18.296.18.336 0l.705-3.184a11.21 11.21 0 0 1 9.808-9.808l3.184-.705c.18-.04.18-.296 0-.336l-3.184-.706A11.21 11.21 0 0 1 26.873.568"/><path fill="#2c3236" d="M15.497 28.67c-.039-.058-.008-.094.035-.133q.275-.246.548-.495c.082-.074.16-.15.246-.22a.26.26 0 0 0 .105-.247c-.025-.4-.036-.799-.06-1.198a.23.23 0 0 1 .081-.206q1.293-1.136 2.583-2.274c.045-.04.107-.06.16-.09.068-.15.196-.246.312-.35q1.777-1.59 3.551-3.181 2.367-2.12 4.738-4.237 1.401-1.253 2.8-2.51c.885-.796 1.778-1.583 2.66-2.383a.2.2 0 0 0 .063-.068c-.029-.2-.062-.4-.085-.6-.01-.097-.056-.149-.138-.192a55 55 0 0 1-1.246-.668c-.11-.061-.191-.068-.275.026a.3.3 0 0 1-.05.038.55.55 0 0 1-.19.262l-4.41 3.87-4.01 3.514c-.96.839-1.915 1.682-2.873 2.521l-.134.11c-.278.267-.572.516-.864.768a1 1 0 0 0-.22.234l-.026.037q-.765.936-1.674 1.726c-.423.368-.359.21-.354.784.002.192.01.384.006.576-.001.085-.002.17-.047.247l-.025.036q-.028.033-.058.065c-.249.358-.45.747-.675 1.12-.166.273-.31.558-.554.776-.257.23-.466.51-.733.73-.136.147-.33.167-.504.227-.317.109-.64.2-.957.314-.044.016-.089.028-.13.047-.18.081-.361.115-.549.023a.4.4 0 0 1-.26-.02c-.39-.136-.79-.241-1.183-.367-.117-.037-.173.024-.212.126a9 9 0 0 1-.51 1.055c-.354.644-.765 1.249-1.186 1.847a28 28 0 0 1-1.291 1.67c-.26.318-.537.62-.813.922a.6.6 0 0 0-.1.121l-.016.036-.008.018-.015.032-.009.015a.2.2 0 0 1-.034.037l-.024.024-.051.07a.1.1 0 0 0-.014.033.04.04 0 0 0 .01.033q-.159.245-.32.488c-.314.467-.625.936-.944 1.4-.07.1-.096.194-.056.31.024.07.04.142.06.213.319.792.673 1.568 1 2.355.29.7.585 1.397.85 2.107.079.215.197.412.35.581.89.985 1.862 1.884 2.804 2.814.07.074.166.116.267.118.667.021 1.334.059 2.002.07.119.001.24-.004.337-.087.005-.087-.053-.13-.099-.18-.81-.873-1.529-1.82-2.215-2.794A37 37 0 0 1 9.49 38.64a3.7 3.7 0 0 1-.43-.96.36.36 0 0 0-.09-.168c.527-.11.99-.376 1.5-.507.313-.08.617-.193.936-.247a.44.44 0 0 0 .251-.151q.358-.389.736-.757c.156-.152.16-.29.032-.478a4 4 0 0 1-.227-.404.46.46 0 0 1-.025-.415.4.4 0 0 0 .004-.19c-.085-.364-.11-.737-.176-1.104-.054-.297-.09-.599-.131-.898.025-.073 0-.135-.042-.194-.037-.052-.082-.097-.123-.146-.123-.149-.122-.177.025-.29.215-.166.413-.355.633-.515.19-.184.414-.328.606-.51.065-.061.112-.053.162.023.047.072.074.168.178.184a.07.07 0 0 0 .038-.024c.02-.058-.01-.103-.038-.148-.065-.1-.037-.179.048-.248q.579-.467 1.143-.954c.055-.048.124-.05.186-.075.17-.216.397-.368.592-.556.077-.074.18-.125.22-.237"/><path fill="#ad1134" d="m2.547 31.589-.04.161c.086.026.112-.041.13-.098.109-.328.235-.653.187-1.012-.013-.093.039-.116.106-.142.404-.152.813-.29 1.213-.452q1.527-.613 2.941-1.462.795-.478 1.53-1.05c.23-.182.449-.381.664-.582.034-.031.06-.073.11-.08.148.144.168.245.068.43-.187.343-.39.677-.598 1.008-.547.864-1.19 1.65-1.846 2.426-.933 1.104-1.934 2.14-2.957 3.153-.971.963-1.966 1.899-3.023 2.764q-.6.491-1.214.961l-.037.025-.05.043q-.135.16-.225.353-.057.089-.11.18c-.004.005.02.027.032.042.224-.07.431-.183.656-.255.306-.099.62-.168.925-.272.388-.09.771-.2 1.157-.296a.3.3 0 0 0 .138-.064c.055-.038.113-.072.165-.113a17.8 17.8 0 0 0 3.245-3.272q.118-.154.241-.304a.1.1 0 0 1 .025-.026v-.001c.006-.028.04-.026.05-.048l-.002.001q.013-.02.03-.036l-.003.003a.07.07 0 0 1 .031-.038l-.004.004c.074-.087.151-.17.222-.26q.682-.858 1.33-1.745c.344-.471.662-.96.968-1.455.56-.904.998-1.883 1.304-2.909.023-.075.05-.15.043-.231-.145-.424-.35-.82-.54-1.223-.088-.185-.184-.365-.241-.563-.017-.057-.041-.108-.1-.131a.3.3 0 0 0-.231.047c-.056.082-.016.162.01.24l.193.57c.033.101.018.154-.094.178-.381.082-.755.198-1.142.252-.65.09-1.296.198-1.95.259q-2.072.19-4.154.157a27 27 0 0 1-5.495-.631c-1.029-.228-2.028-.564-3.02-.92-.998-.358-1.985-.747-2.99-1.084a2 2 0 0 0-.268-.073.2.2 0 0 1-.046-.018c-.28.002-.561-.029-.881-.016.054.068.077.11.11.137q.597.494 1.197.984a.2.2 0 0 1 .042.029l-.002-.002a.1.1 0 0 1 .038.028l-.003-.002q.025.007.039.03l-.004-.003a.06.06 0 0 1 .04.029l-.005-.003a.05.05 0 0 1 .04.03l-.004-.003q.013 0 .024.007a.04.04 0 0 1 .015.022l-.004-.003a.03.03 0 0 1 .025.006.04.04 0 0 1 .014.023l-.003-.003a.03.03 0 0 1 .026.006.03.03 0 0 1 .013.023l-.003-.002c.156.11.32.208.467.333l.005.003q.036-.02.032.021l.005.003q.036-.018.032.022l.004.002q.034-.015.034.023l.003.005c.234.128.455.28.688.41l.027.025.019.031.08.038c.19.055.357.163.534.248.918.434 1.872.784 2.849 1.045.99.27 1.998.466 3.015.587.062.007.154-.02.17.09.005.028.015.048.047.048.233-.108.4-.306.595-.465.232-.19.456-.39.64-.631.055-.073.13-.074.21-.067 1.083.09 2.167.095 3.252.07a30 30 0 0 0 2.797-.176 16 16 0 0 0 2.237-.42c.239-.063.476-.126.711-.2.077-.025.143-.02.18.067.035.082.082.166-.003.245q-.114.106-.233.205c-1.696 1.375-3.603 2.352-5.63 3.101a30 30 0 0 1-2.214.711q-.77.22-1.546.411c-.613.151-1.23.283-1.844.43-.46.11-.923.195-1.386.29-1.022.209-2.057.232-3.097.187a47 47 0 0 1-.77-.038c-.067-.004-.135-.016-.196.021-.062.107.041.114.09.135.26.117.528.209.795.306a8.3 8.3 0 0 0 2.133.49c.117.01.235.01.353.019.402.023.805.007 1.207.008.484-.02.966-.051 1.442-.149.183-.037.375-.032.558-.083.442-.113.89-.202 1.329-.327.566-.183 1.136-.356 1.689-.58.162-.066.324-.13.483-.203.051-.023.1-.057.159-.02"/><path fill="#ac1234" d="m29.774 9.35.067-.08c.078-.125.09-.25-.009-.375l-.252-.232c-.172-.228-.405-.379-.62-.55-.085-.066-.172-.003-.246.052a4404 4404 0 0 1-5.044 4.387q-1.159 1.006-2.315 2.016-1.006.879-2.017 1.75c-.141.123-.279.249-.426.363l-.07.06-.035.034c-.402.375-.826.722-1.238 1.086-.683.603-1.375 1.196-2.062 1.795q-.616.535-1.228 1.073c-.072.064-.149.066-.236.054-.393-.052-.786-.1-1.177-.173-.227-.062-.431-.007-.63.109-.194.113-.401.201-.598.312a1 1 0 0 0-.074.057l-2.266 2.167-.054.06c.113.1.251.135.388.16.31.06.62.131.93.196.103.018.207.053.31.004a.34.34 0 0 0 .114-.093c.22-.241.455-.466.68-.702a.44.44 0 0 1 .317-.122c.312-.01.611-.092.914-.15a.5.5 0 0 1 .363.06c.287.17.575.338.869.493.116.021.185-.066.258-.13.441-.395.89-.779 1.33-1.175.43-.389.87-.767 1.301-1.158.056-.05.13-.071.178-.132.147-.188.338-.326.513-.48 1.38-1.221 2.757-2.449 4.137-3.67.208-.184.411-.372.625-.548l.031-.029a.4.4 0 0 1 .072-.067l.03-.022.025-.025.01-.014a.4.4 0 0 1 .058-.058l.064-.051.027-.02.026-.022.027-.022.024-.024.021-.026.012-.013.039-.033.026-.024a.3.3 0 0 1 .055-.044l.029-.02.04-.033.023-.023.02-.026.01-.013.038-.031.028-.022a1 1 0 0 0 .077-.064 973 973 0 0 0 3.317-2.939c1.022-.906 2.047-1.806 3.064-2.718.043-.039.095-.071.11-.136"/><path fill="#c8264b" d="M9.046 24.632c.036.094.067.19.109.282.145.317.298.63.44.947.115.253.22.511.329.767a.26.26 0 0 0 .216.1c.079-.03.153-.014.23.013.547.193 1.076.434 1.612.655.19.079.377.165.587.157l.844-.272q.214-.07.43-.136c.102-.031.195-.074.25-.174.17-.26.392-.474.603-.695q.219-.223.348-.511c.173-.404.353-.805.573-1.182.135-.232.141-.466.093-.714a4 4 0 0 1-.065-.545c-.004-.102.012-.211-.112-.252q.06-.152.174-.268a9 9 0 0 1 1.025-.968q.917-.766 1.857-1.503c.237-.186.493-.342.732-.524.177-.15.356-.297.53-.45l2.115-1.865 2.066-1.825q1.029-.907 2.058-1.81l2.268-2.003 2.118-1.862q.224-.2.452-.398c.064-.054.093-.113.054-.196l-.704-.455c-.172-.112-.172-.113-.32.019-.044.037-.08.082-.125.118a.3.3 0 0 1-.08.032c-.24.156-.438.363-.652.55q-1.413 1.235-2.823 2.472-1.207 1.061-2.417 2.12-1.606 1.41-3.216 2.816l-1.68 1.47a.3.3 0 0 0-.1.12.4.4 0 0 1-.13.198c-.84.851-1.707 1.673-2.561 2.509a60 60 0 0 1-1.594 1.522c-.127.116-.186.24-.16.423.045.3.016.602-.039.9-.045.247-.18.445-.323.636q-.338.435-.744.803c-.153.143-.367.175-.548.27a2.5 2.5 0 0 1-.633.222.38.38 0 0 1-.245-.026c-.47-.207-.943-.404-1.412-.613-.228-.102-.278-.329-.35-.533-.15-.427-.246-.871-.384-1.303-.03-.094-.08-.144-.177-.155a14 14 0 0 1-1.509-.254.3.3 0 0 0-.078-.001l-.653.598c-.023.136.08.133.16.142.276.032.554.075.83.07.37-.008.63.097.693.511q.01.033.038.051"/><path fill="#171d21" d="M15.237 29.072q-.347.299-.689.604c-.05.045-.119.087-.105.177-.011.094.06.14.11.196q.661.749 1.33 1.49a.43.43 0 0 1 .117.356c-.076.76-.132 1.522-.2 2.284-.013.145-.075.202-.204.214-.64.06-1.272.169-1.908.252-.471.061-.944.113-1.41.203-.095.018-.193.004-.286.033-.1.073-.072.188-.038.266q.131.294.3.566c.073.117.082.261-.014.362q-.391.412-.79.814a.4.4 0 0 1-.187.092c-.23.061-.465.1-.69.173-.368.12-.745.214-1.098.38-.127.06-.267.09-.401.133-.081.026-.162.054-.267.09.112.032.13.107.157.193.067.213.136.426.243.626.283.525.61 1.02.942 1.512.3.445.613.882.917 1.325a22 22 0 0 0 1.217 1.583c.222.268.458.523.687.785q.016.024.026.05c-.137.069-.283.066-.426.06-.62-.023-1.24-.054-1.86-.077a.26.26 0 0 1-.188-.086q-.422-.412-.839-.829a271 271 0 0 1-1.504-1.528 9 9 0 0 1-.544-.599c-.078-.096-.125-.225-.174-.344-.194-.484-.38-.97-.575-1.454a95 95 0 0 0-1.24-2.924.2.2 0 0 0-.049-.052c.052.236.1.472.155.707q.252 1.083.508 2.165a.6.6 0 0 0 .043.133c.455.848.9 1.703 1.37 2.541.917 1.63 2.03 3.114 3.23 4.53.072.086.141.114.25.09.98-.212 1.964-.415 2.943-.633.17-.037.33-.128.49-.202q1.473-.676 2.943-1.355.074-.036.146-.076c-.019-.064-.071-.054-.113-.049-.211.026-.425.024-.635.056-.442.051-.886.078-1.33.12-.563.052-1.128.096-1.691.15a.38.38 0 0 1-.36-.148 53 53 0 0 1-1.762-2.272 42 42 0 0 1-1.577-2.332q-.024-.036-.046-.073l-.022-.035a.3.3 0 0 1-.065-.096l-.018-.035-.033-.05-.024-.036-.034-.059-.53-.869c-.115-.191-.097-.23.103-.295.615-.2 1.225-.418 1.848-.59.328-.09.528-.294.7-.563l.109-.169c.072-.16.212-.27.304-.415l-.114-.148c.121-.017.225-.034.329-.047l1.747-.226 1.853-.24.075-.01c.108-.02.125-.035.138-.15q.034-.304.064-.609.164-1.607.332-3.214a.34.34 0 0 0-.061-.263q-.789-1.05-1.573-2.104z"/><path fill="#2d3337" d="M18.944 16.27c.202-.167.406-.331.605-.503q.536-.465 1.07-.934l2.034-1.773 1.05-.909 2.047-1.783 1.287-1.117 1.56-1.357a.3.3 0 0 0 .039-.048c.025-.096-.054-.123-.105-.161-.293-.216-.585-.433-.902-.608l-1.205-.555c-.166.144-.323.282-.484.416a.6.6 0 0 1-.132.064c-.25.334-.564.598-.853.89-.468.473-.946.934-1.413 1.408-.082.083-.18.144-.26.227.023.09-.043.126-.091.172l-1.832 1.725c-.284.268-.563.542-.854.801a2.3 2.3 0 0 0-.491.621.7.7 0 0 0-.104.4c.009.12-.006.242.009.362s-.035.19-.114.263c-.422.382-.84.77-1.259 1.155q-2.363 2.174-4.724 4.35c-.107.098-.207.137-.348.102-.147-.037-.3-.048-.448-.076a.16.16 0 0 0-.156.044l-1.097 1.051a.1.1 0 0 0-.015.028c.13-.05.262-.094.389-.15q.177-.079.346-.177c.118-.066.237-.1.371-.058q.06.013.123.011c.262-.006.525-.058.787-.006.192.04.34-.022.482-.152.773-.71 1.6-1.352 2.414-2.008.72-.58 1.437-1.167 2.21-1.669v.001c.013-.028.044-.03.064-.046"/><path fill="#161c20" d="M33.358 11.287a1 1 0 0 0-.14.087q-.523.47-1.04.944-.512.469-1.025.936l-1.066.96-.812.735-.912.831-1.232 1.121q-.686.62-1.376 1.24-.609.544-1.216 1.092c-.335.304-.665.613-1 .918q-.342.311-.686.62l-.9.822-1.38 1.257c-.294.266-.591.527-.882.796-.07.065-.18.116-.146.252.23-.012.459-.021.688-.037.422-.028.845-.062 1.268-.088a.5.5 0 0 0 .328-.137Q27.662 18.4 33.5 13.175c.088-.079.127-.148.103-.28-.076-.418-.133-.839-.194-1.259-.011-.08-.045-.163 0-.248.01-.018-.033-.066-.051-.1"/><path fill="#c9264b" d="M-.093 38.164a1 1 0 0 0 .152-.079c.333-.255.672-.503.993-.773a99 99 0 0 0 1.83-1.582c1.011-.9 1.965-1.86 2.91-2.829.459-.47.9-.96 1.34-1.448.325-.362.641-.735.955-1.108.156-.187.287-.397.45-.578.155-.175.243-.403.434-.548.036-.027.057-.077.082-.117.157-.248.317-.493.467-.745.164-.274.315-.555.477-.83A.21.21 0 0 0 10 27.29a3 3 0 0 1-.11-.234c-.04.031-.072.054-.102.08-.31.265-.61.543-.932.793q-.64.488-1.33.897-1.102.665-2.278 1.184c-.394.175-.797.331-1.199.49-.294.116-.59.223-.887.332-.044.017-.09.025-.145.039a.5.5 0 0 0 .007.113.7.7 0 0 1 .002.364q-.084.326-.176.65c-.017.058-.037.125-.112.143l-.051.158c0 .005-.002.014 0 .015.202.095.162.27.141.437-.042.34-.186.648-.335.947-.422.85-.85 1.697-1.335 2.513-.13.221-.263.437-.445.618q-.161.188-.282.404-.223.376-.452.747c-.035.056-.095.105-.071.185"/><path fill="#dbd5d5" d="M18.94 18.555c.167-.146.331-.293.5-.437q.907-.778 1.815-1.552l1.617-1.373 1.767-1.513 1.604-1.362c.59-.503 1.178-1.01 1.768-1.512q.705-.601 1.411-1.199.218-.184.433-.37a1 1 0 0 0 .067-.086c-.137-.14-.31-.167-.495-.156-.232.168-.41.394-.626.579-.45.384-.907.757-1.356 1.141-.646.551-1.258 1.145-1.95 1.636-.861.613-1.608 1.363-2.45 1.997l-.265.2.001-.001c-.011.024-.042.024-.056.045-.012.023-.042.022-.055.044a.1.1 0 0 1-.029.035v-.002c-.009.027-.04.027-.056.045l.001-.001c-.025.045-.08.051-.111.089V14.8c-.011.023-.042.023-.055.045a.1.1 0 0 1-.03.034l.002-.001c-.01.027-.04.027-.057.045l.001-.001c-.01.026-.04.025-.056.045v-.001c-.01.024-.04.024-.055.045v-.001c-.011.023-.042.023-.055.045a.1.1 0 0 1-.034.035.04.04 0 0 0-.02.009.5.5 0 0 1-.086.078c-.518.48-.97 1.027-1.518 1.475q-.188.16-.403.28c-.24.13-.443.304-.634.494-.316.314-.687.56-1.015.859-.57.52-1.206.956-1.816 1.426-.241.193-.486.382-.724.58-.47.39-.935.786-1.403 1.179q-.386.327-.777.648c-.046.038-.109.056-.164.084-.069.116-.144.105-.243.028a4 4 0 0 0-.426-.298.67.67 0 0 0-.469-.092c-.358.057-.709.16-1.074.18-.074.004-.139.046-.204.082a4 4 0 0 0-.793.567c-.01.027-.041.025-.058.044-.106.056-.212.001-.318.003-.518.06-1.029-.01-1.538-.094l-.307.284c.205.042.414.053.621.075.335.035.668.09 1.003.122.147.014.202.113.262.218.167.028.242.138.295.29.153.438.337.864.5 1.298a.43.43 0 0 0 .295.28c.331.107.664.21.989.334a.5.5 0 0 0 .294.023c.182-.037.354-.106.532-.152a.48.48 0 0 0 .294-.222c.202-.315.44-.605.647-.916.07-.105.146-.191.278-.21a.23.23 0 0 0 .035-.181c-.044-.308-.063-.618-.111-.924a.28.28 0 0 1 .105-.291q1.895-1.62 3.792-3.234l.854-.729a.36.36 0 0 0 .11-.133"/><path fill="#181d21" d="M9.568 25.015c-.004-.18-.117-.327-.16-.496-.007-.028-.073-.053-.113-.058q-.35-.034-.699-.062l-.606-.05c-.066-.005-.125-.018-.136-.1-.195.177-.391.35-.583.53a.3.3 0 0 1-.222.096c-.276.004-.553.026-.83.023a2.5 2.5 0 0 1-1.061-.263 8 8 0 0 1-.613-.33c-.594-.356-1.184-.72-1.776-1.078a13 13 0 0 1-1.87-1.37c-.058-.051-.12-.098-.184-.15-.226.287-.53.383-.856.435-.018.078.037.118.083.16q.664.62 1.395 1.154c.729.522 1.483.994 2.305 1.348a7.7 7.7 0 0 0 3.5.607c.072-.004.146.005.22 0 .62-.023 1.227-.134 1.831-.262q.08-.01.137-.068z"/><path fill="#161c20" d="M23.004 10.24c.098-.002.162-.072.226-.139q.815-.854 1.628-1.712.293-.306.59-.607c.053-.056.1-.117.092-.21l-1.478-1.396q-.09-.085-.19-.176c-.04.03-.075.052-.107.079-.404.348-.806.7-1.213 1.043-.082.07-.099.138-.077.252.164.875.321 1.751.481 2.627z"/><path fill="#e03b61" d="m16.732 43.959.695-.058q.055-.002.109.004c.08-.028.163-.05.24-.085.584-.267 1.165-.538 1.75-.803a.35.35 0 0 0 .212-.242c.065-.235.147-.466.222-.698.028-.076.067-.153-.01-.225l-.035-.022a.1.1 0 0 1-.041-.026c-.284-.167-.566-.337-.85-.5-1.192-.684-2.357-1.412-3.453-2.25-.254-.195-.5-.399-.75-.599a.1.1 0 0 1-.048-.03l.003.002a.1.1 0 0 1-.04-.03l.004.002c-.037-.019-.058-.056-.088-.084l.003.002a.4.4 0 0 1-.076-.057l.001.003a.07.07 0 0 1-.039-.03l.003.002c-.058-.04-.105-.094-.159-.14v.003a1 1 0 0 1-.121-.11.1.1 0 0 1-.039-.027l.002.001c-.025-.011-.026-.043-.046-.059l.001.001a1 1 0 0 1-.113-.082l.001.002q-.708-.651-1.374-1.348l.002.001c-.07-.076-.133-.16-.21-.229l.001.001c-.033-.02-.046-.059-.075-.083l-.323-.37c-.1.03-.151.12-.217.19-.053.057-.086.135-.127.203.067.173.2.3.311.438.523.648 1.13 1.208 1.753 1.751q.717.629 1.494 1.177 1.08.752 2.249 1.35c.081.043.164.082.242.13l.04.02q.032.012.062.027c.14.073.282.14.416.224.195.093.382.201.576.295q.062.024.098.081a.2.2 0 0 1 .029.125c-.007.258-.023.516-.033.773-.004.104-.065.15-.146.195-.536.29-1.086.554-1.626.84-.1.053-.19.121-.292.167-.069.052-.183.054-.188.177"/><path fill="#ac1436" d="M19.621 19.05q-.457.374-.912.752-.806.675-1.61 1.354c-.773.649-1.54 1.304-2.322 1.942-.18.146-.23.282-.192.503.058.328.071.664.103.996-.187.18-.322.401-.478.606-.182.239-.337.497-.53.729a.5.5 0 0 1-.23.17q-.306.109-.61.225a.32.32 0 0 1-.237.002c-.435-.16-.87-.322-1.308-.474a.39.39 0 0 1-.24-.24 8 8 0 0 1-.44-1.345c-.03-.131-.057-.27-.143-.384l-.018-.061c-.022-.124-.098-.174-.223-.187-.485-.053-.967-.115-1.451-.169-.084-.009-.172.007-.257.012l-.225.204c.129.036.255.084.387.104q.625.092 1.251.17c.082.01.12.04.142.122.065.256.129.513.215.762.092.265.146.54.276.794a.57.57 0 0 0 .324.303c.477.182.947.383 1.421.573.054.022.118.047.17.037q.243-.043.476-.125c.243-.09.478-.198.715-.3a.5.5 0 0 0 .138-.083c.207-.204.414-.407.612-.618.188-.193.344-.414.462-.654a.3.3 0 0 0 .03-.074c.053-.275.122-.549.095-.832a3 3 0 0 1-.026-.331.24.24 0 0 1 .074-.148c.187-.178.38-.35.57-.524q.548-.502 1.093-1.007c.554-.51 1.111-1.017 1.663-1.53.26-.242.51-.494.766-.74.124-.12.255-.233.373-.357.045-.047.065-.117.096-.176"/><path fill="#df395f" d="M7.61 25.388c-.46 0-.92.018-1.378-.005-1.018-.05-1.973-.33-2.885-.745-1.09-.498-2.073-1.152-2.986-1.903q-.165-.135-.324-.278a1 1 0 0 1-.103-.116l-.305-.269.004.002c-.103-.144-.143-.157-.302-.07-.71.392-1.45.717-2.203 1.017-.055.022-.112.041-.147.094.011.103.093.064.146.055.208-.035.42-.064.622-.124.244-.072.494-.124.736-.203a.3.3 0 0 1 .26.033c.76.43 1.529.845 2.324 1.214.928.43 1.882.8 2.879 1.063a10.4 10.4 0 0 0 3.47.333c.072-.006.168.009.192-.098"/><path fill="#181d21" d="M27.618 7.783c.035.115.155.119.238.172q.395.256.791.51c.016.011.02.037.03.056.121-.09.218-.07.332.028.175.15.37.28.555.42a1 1 0 0 1 .114-.119c.147-.107.148-.236.106-.397-.174-.67-.612-1.083-1.275-1.29-.08-.026-.134-.006-.193.046q-.281.241-.565.478c-.042.035-.088.064-.133.096"/><path fill="#e03b61" d="m-1.016 28.22-.01-.056a.03.03 0 0 0-.034.007c-.39.3-.774.604-1.167.897-.238.177-.49.335-.735.502-.016.018-.042.02-.058.038l.003-.002q-.302.181-.606.36c-.57.326-1.147.642-1.744.919-.07.032-.15.05-.193.124.032.082.093.049.145.033a9 9 0 0 0 2.022-.883q.821-.495 1.59-1.067.373-.285.689-.629c.06-.063.158-.127.098-.243"/><path fill="#dd395e" d="M.51 36.009c.028-.013.066-.02.082-.041q.19-.261.37-.53.136-.204.258-.416.266-.465.525-.935c.157-.285.32-.568.46-.86q.241-.497.442-1.01c.052-.133.055-.287.07-.432.015-.16 0-.173-.154-.218a.2.2 0 0 1-.04-.024l-.04.086c-.018.017-.006.045-.024.063l.002-.003a.2.2 0 0 1-.027.04l.001-.003c-.013.022-.002.05-.021.07l.001-.002c-.219.56-.41 1.132-.65 1.685-.057.13-.12.256-.173.388-.245.577-.549 1.124-.856 1.67q-.09.175-.201.34c-.028.038-.05.082-.025.132"/><path fill="#736d6e" d="M22.785 14.361a1 1 0 0 0 .16-.079q.785-.584 1.567-1.172c.134-.101.252-.22.387-.32.18-.131.372-.248.554-.376.303-.213.607-.425.901-.647.42-.317.807-.671 1.259-.955.14-.088.248-.22.378-.325.215-.173.43-.346.655-.51q.628-.456 1.19-.977a.3.3 0 0 0 .044-.065l-.025-.023q-.346.258-.69.519l-1.227.945-4.636 3.57c-.134.103-.27.202-.403.306a2 2 0 0 0-.114.109"/><path fill="#b3b0b0" d="M9.255 23.371c.008.04.021.079.037.107q.026.044.051.049c.275.124.552.26.827.377.073.031.148.041.195-.065-.222-.158-.444-.313-.667-.477-.068-.05-.136-.128-.205-.188-.041-.036-.082-.062-.124-.093z"/><path fill="#684f59" d="M12.858 36.665q.035.082.08.156.58.759 1.166 1.515.055.059.117.101a.5.5 0 0 0-.046-.098q-.621-.812-1.245-1.62a.3.3 0 0 0-.072-.054"/><path fill="#dd395e" d="M29.737 8.935c.043.12.024.24.005.36.23-.156.23-.203-.005-.36"/><path fill="#3c3b40" d="m6.972 32.715-.2.272a.5.5 0 0 1 .086-.053c.017-.007.041.004.062.007v-.003q0-.02.011-.037a.06.06 0 0 1 .029-.024.02.02 0 0 0 .011-.02.07.07 0 0 1 .02-.048l.002-.003a.1.1 0 0 0 .013-.04.06.06 0 0 0-.034-.05"/><path fill="#684f59" d="M-8.77 25c.001-.006.003-.015.001-.016l-.478-.322zm21.471 11.695a.44.44 0 0 0 .206.223.4.4 0 0 0-.206-.223m7.12 4.729.01.218c.113-.114.112-.13-.01-.218"/><path fill="#736d6e" d="M15.078 38.27c.024.08.087.112.156.137z"/><path fill="#684f59" d="M14.129 38.455c.015.059.047.093.111.08zM-9.82 24.81l-.04-.029z"/><path fill="#3c3b40" d="m6.205 33.883-.03.038z"/><path fill="#ad1235" d="M11.459 32.877c.145.127.293.252.434.382.055.05.119.055.196.051q.915-.04 1.83-.077l1.06-.046q.102-.01.202-.03c.037-.06.028-.119.014-.177-.042-.184-.055-.374-.121-.553-.025-.045-.077-.04-.13-.04-.601-.006-1.2-.032-1.798-.06a.5.5 0 0 1-.245-.073c-.277-.168-.576-.31-.865-.465a.3.3 0 0 0-.125-.034q-.414.273-.825.55c-.1.066-.1.078-.024.159.058.06.125.113.18.174q.05.066.089.138l-.002-.002q.024.007.042.022l-.003-.002c.027.01.026.037.048.05l-.002-.003q.03.012.045.036"/><path fill="#191b20" d="m6.19 33.805.013.058c.025.024.047.016.066-.01l-.001.003.028-.042-.002.003.028-.045q.187-.212.372-.426c.255-.296.513-.59.762-.89q.393-.48.774-.968.17-.22.325-.45c.36-.53.725-1.056 1.07-1.596.194-.307.359-.635.525-.96.144-.28.27-.568.415-.876.112.031.234.064.354.1.293.09.588.175.878.274.071.024.185-.015.208.112.068-.007.145.008.192-.065-.004-.065-.06-.078-.102-.1-.54-.276-1.09-.536-1.631-.811a.2.2 0 0 0-.113-.02q-.11-.046-.219-.088a13 13 0 0 1-1.057 2.617q-.628 1.16-1.41 2.218c-.392.533-.793 1.06-1.19 1.588q-.142.188-.285.374"/><path fill="#dd395e" d="M19.812 20.033a.4.4 0 0 0-.096.028c-.212.135-.429.264-.632.41a44 44 0 0 0-1.227.907 53 53 0 0 0-1.566 1.25c-.216.18-.397.4-.588.605-.042.046-.06.112-.098.189l.152-.022.02.365q.003.08.012.16c.024.19.061.38.07.572.004.077-.045.162-.084.238a96 96 0 0 1-.744 1.398 1.4 1.4 0 0 1-.216.29c-.201.212-.414.415-.617.625-.056.058-.122.118-.112.21q.203-.184.404-.37c.094-.086.178-.183.276-.264.31-.256.523-.578.727-.91.239-.387.493-.765.74-1.147.009-.022.043-.02.049-.046l-.004.004c.053-.183-.005-.36-.02-.538-.023-.262-.062-.521-.083-.783-.007-.095.044-.148.112-.203a573 573 0 0 0 2.103-1.73q.12-.105.223-.223l-.001.002c.017-.02.053-.023.06-.053q.45-.371.896-.744c.084-.07.163-.147.244-.22"/><path fill="#c8264b" d="M11.806 31.252c.284.192.58.37.85.58.177.142.396.222.624.23.54.034 1.078.087 1.618.13.029.002.06-.024.09-.036.056-.076.03-.14-.027-.201-.018-.064-.07-.063-.123-.064a2.5 2.5 0 0 1-.902-.193c-.183-.075-.352-.182-.528-.274a.1.1 0 0 1-.05-.032l.006.003a.4.4 0 0 1-.094-.086h.002a.2.2 0 0 1-.078-.06l.002.003c-.045-.016-.057-.062-.088-.09v.002c-.089-.063-.129-.174-.23-.224l-.27-.339z"/><path fill="#191b20" d="M19.021 21.205q-.365.29-.728.583c-.566.462-1.128.927-1.695 1.387a.24.24 0 0 0-.088.105.22.22 0 0 0-.013.133c.056.435.102.872.152 1.31.085-.05.104-.129.105-.213q.003-.446.003-.89v-.066c-.021-.15.052-.244.177-.34.71-.544 1.348-1.161 1.956-1.807.055-.058.088-.134.131-.202"/><path fill="#dd395e" d="m10.955 26.873 1.12.43.403.16c.24.077.24.077.5-.013l.118-.04a.4.4 0 0 0-.099-.027.9.9 0 0 1-.276-.056 166 166 0 0 0-1.366-.424 3 3 0 0 0-.235-.06c-.058-.014-.118-.022-.165.03"/><path fill="#684f59" d="M13.515 30.432c.051.09.106.176.21.211l-.161-.228z"/><path fill="#878686" d="m6.997 32.714-.064.009.01.037z"/><path fill="#fff" d="M7.188 33.7c-.045-.001-.094-.006-.04.06z"/><path fill="#c9264b" d="m-7.302 23.675-.065.008-.414.029q-.594.038-1.188.072c-.093.006-.187 0-.28-.001l-.644.005-.125.005.43.165 1.885.706c.565.21 1.128.422 1.696.619.564.195 1.128.393 1.701.554a25 25 0 0 0 3 .616q.72.104 1.446.171 1.2.111 2.405.12c.53.003 1.059-.014 1.588-.028.377-.01.753-.033 1.13-.05q.463-.022.925-.049.18-.012.36-.035.32-.04.64-.089c.275-.04.548-.102.825-.12.355-.024.696-.114 1.042-.178.227-.042.449-.109.673-.166a.1.1 0 0 0 .038-.028l-.312-.992c-.33.06-.659.131-.991.179-.316.045-.636.065-.954.096q-.046.006-.093.016c-.063.021-.125.058-.189.061-.613.03-1.227.02-1.837-.077a12.6 12.6 0 0 1-3.554-1.133c-.485-.232-.96-.49-1.436-.745-.329-.177-.652-.367-.975-.556-.144-.084-.281-.18-.422-.269l-.38-.236q-.358.095-.714.185-.366.092-.734.175a.7.7 0 0 1-.153.001q-.341.122-.684.237c-.245.08-.488.17-.737.229a28 28 0 0 1-1.59.34c-.433.077-.875.11-1.313.163"/><path fill="#c9264b" d="M-5.635 31.041c-.301.126-.601.255-.905.376a4 4 0 0 1-.492.169c-.14.037-.288.05-.438.075.058.06.14.075.218.1.02.017.048.003.066.022h-.002q.245.003.488.008c.524.01 1.049.026 1.573.031.3.003.6-.012.9-.02l.076-.01c.71-.127 1.42-.25 2.13-.385.4-.076.798-.172 1.197-.263q.336-.076.67-.161.51-.13 1.022-.263.39-.102.78-.215c.254-.074.504-.16.757-.236.224-.069.45-.13.673-.2q.334-.107.664-.228.323-.117.642-.245c.354-.143.709-.283 1.058-.437q1.102-.483 2.135-1.104a19 19 0 0 0 1.183-.768c.347-.244.674-.519 1.011-.778.067-.05.094-.101.048-.183-.04-.07-.068-.148-.104-.23-.074.014-.14.022-.201.04-.141.043-.278.102-.421.136q-.62.144-1.242.275c-.16.035-.321.07-.483.093-.298.043-.597.076-.895.114-.167.021-.333.047-.5.063q-.297.025-.594.043t-.594.03c-.234.012-.467.027-.701.034-.28.009-.56.01-.839.014-.361.003-.723.014-1.084.005-.473-.01-.947-.036-1.42-.057-.112-.005-.223-.016-.339-.025-.25.353-.585.616-.914.885l-.38.312c.001.103-.067.172-.13.237-.273.285-.554.563-.88.788q-.673.47-1.357.922-.54.356-1.133.608c-.262.111-.531.205-.797.306-.11.041-.218.084-.33.12a.4.4 0 0 1-.116.002"/><path fill="#191b20" d="M19.049 16.106c-.119.057-.244.104-.354.175-.283.184-.565.37-.837.569q-1.497 1.102-2.985 2.218c-.331.248-.648.516-.968.778a.34.34 0 0 1-.273.084 3 3 0 0 0-.397-.025c-.17.004-.341.024-.512.04-.018.002-.035.024-.052.036.43.052.86.101 1.288.157a.22.22 0 0 0 .182-.054 940 940 0 0 1 2.883-2.321l1.94-1.561a1 1 0 0 0 .085-.096"/><path fill="#736d6e" d="M16.676 19.623a1 1 0 0 0 .11-.05c.32-.212.644-.42.956-.642.28-.199.544-.414.816-.62.18-.137.363-.27.54-.41.209-.165.41-.336.619-.501a2 2 0 0 1 .273-.187c.311-.164.599-.364.855-.593.275-.246.54-.5.81-.75.08-.073.17-.138.25-.213a.7.7 0 0 0 .089-.124c-.155.112-.312.22-.464.336q-.569.434-1.134.871l-1.562 1.204q-.538.413-1.077.824l-1.027.789a.4.4 0 0 0-.054.066"/><path fill="#b3b0b0" d="M11.299 23.403c.039-.02.087-.028.115-.06.194-.218.433-.362.666-.514a.3.3 0 0 1 .162-.062c.298.004.577-.096.866-.137.049-.007.096-.024.145-.026.128-.005.25.008.365.112.15.138.313.256.464.393.051.046.093.065.147.044.068-.027.059-.092.047-.157q-.209-.143-.419-.282c-.158-.104-.32-.198-.476-.307a.3.3 0 0 0-.104-.044.24.24 0 0 0-.108.006q-.259.053-.519.098c-.178.029-.358.047-.535.08a.3.3 0 0 0-.165.089c-.21.227-.412.462-.616.696a.3.3 0 0 0-.035.071"/><path fill="#736d6e" d="M22.864 15.433c.055-.007.102-.024.111-.09z"/><path fill="#736d6e" d="M22.89 15.422c.047-.006.091-.015.085-.08z"/><path fill="#c9264b" d="M16.947 44.02c.247-.13.493-.264.741-.392q.561-.291 1.129-.573c.096-.048.144-.105.144-.222 0-.261.014-.523.03-.785.003-.061-.01-.101-.062-.127q-.315-.158-.63-.313a.1.1 0 0 0-.031-.001c-.045.01-.084.036-.128.048q-.246.064-.293-.192c-.005-.03-.005-.062-.034-.082-.078-.049-.153-.1-.233-.145-.322-.178-.648-.35-.968-.533-.253-.145-.5-.303-.748-.457-.14-.086-.285-.165-.417-.262-.321-.238-.634-.488-.955-.727-.478-.357-.916-.76-1.349-1.17-.243-.228-.464-.48-.689-.728-.155-.171-.298-.352-.446-.529q-.173.237-.34.478a.33.33 0 0 1-.187.144c-.4.124-.797.256-1.196.384-.35.112-.701.22-1.052.333-.15.048-.17.097-.083.239q.306.494.617.985.015.015.028.034a.04.04 0 0 0 .01.022.07.07 0 0 1 .031.038.02.02 0 0 0 .008.018c.039.032.056.08.082.121a.02.02 0 0 0 .009.02c.023.013.022.043.041.06a.04.04 0 0 0 .01.023c.224.27.433.553.643.834.671.899 1.446 1.696 2.284 2.433.053.046.1.107.182.095.046-.04.038-.096.054-.144a.194.194 0 0 1 .197-.143.18.18 0 0 1 .186.134.195.195 0 0 1-.075.233l-.052.033c-.108.074-.111.114-.005.195.144.109.297.206.445.308.17.116.342.23.509.35a.47.47 0 0 0 .318.092 57 57 0 0 1 2.081-.117c.065-.002.127-.047.194-.012"/><path fill="#ab1234" d="M17.31 43.849c-.022-.017-.046-.049-.068-.048-.33.015-.658.035-.988.051q-.531.024-1.063.045a1 1 0 0 0-.09.012.4.4 0 0 1-.19-.003.5.5 0 0 1-.172-.085c-.305-.232-.616-.454-.925-.681-.041-.03-.08-.065-.135-.11.055-.031.093-.052.13-.075.122-.072.156-.165.116-.316a.3.3 0 0 0-.085-.124.25.25 0 0 0-.133-.057q-.211-.001-.254.205a2 2 0 0 0-.015.155c-.109-.103-.206-.191-.299-.284-.381-.384-.768-.762-1.139-1.157-.194-.208-.365-.441-.538-.67-.356-.472-.707-.948-1.062-1.421a.6.6 0 0 0-.105-.086q.174.297.352.59a43 43 0 0 0 2.122 3.08c.316.42.647.83.965 1.25a.3.3 0 0 0 .298.13q.837-.078 1.675-.149c.447-.037.894-.068 1.341-.102l.075-.015zm-6.992-4.509c-.001-.062-.02-.112-.085-.127z"/><path fill="#161c20" d="M13.214 25.39c.74-.137 1.367-.849 1.184-1.763-.183-.923-1.038-1.327-1.767-1.18-.723.146-1.353.837-1.177 1.754.176.918 1.026 1.34 1.76 1.189"/><path fill="#b3b0b0" d="m10.378 23.905.2.763c.046.17.086.341.144.506.075.212.17.417.248.627a.25.25 0 0 0 .156.154c.478.182.955.368 1.434.546a.3.3 0 0 0 .187-.005q.352-.122.698-.261a.4.4 0 0 0 .151-.115c.126-.165.243-.336.362-.505q.283-.402.562-.806c.031-.044.054-.094.08-.141-.121-.031-.195.018-.266.124-.236.353-.496.69-.723 1.05-.08.127-.187.171-.304.214-.141.052-.291.08-.434.127-.154.052-.295.017-.44-.037-.29-.107-.58-.216-.876-.305-.175-.053-.281-.137-.346-.32-.155-.443-.337-.876-.508-1.314-.022-.055-.038-.114-.063-.168-.052-.114-.136-.168-.262-.135"/><path fill="#af1235" d="m18.313 40.698-.005.08c-.004.135.039.202.156.245a.28.28 0 0 0 .317-.091l-.399-.217a.2.2 0 0 1-.038-.022z"/><path fill="#684f59" d="M13.805 31.387c-.001.056.029.082.081.085z"/><path fill="#684f59" d="M13.81 31.386c0 .048.026.066.07.059z"/><path fill="#af1235" d="M12.181 40.87c.284-.055.404-.204.38-.468-.028-.298-.162-.45-.452-.487-.2-.026-.395-.023-.5.227-.064.15-.09.296.003.457.102.178.22.32.414.3.052-.005.103-.02.155-.03m-.233 1.564c.065.31.306.465.623.4.277-.057.418-.25.37-.505-.046-.231-.418-.514-.626-.464-.22.053-.471.31-.367.57m-2.733-3.545c.067.32.273.47.567.411.267-.053.466-.333.418-.587-.052-.274-.353-.45-.658-.385-.265.057-.387.266-.327.56m5.461 4.555c.304-.059.424-.221.418-.494-.004-.186-.208-.44-.402-.47-.145-.022-.3-.04-.424.077-.132.127-.211.284-.17.488.018.088.058.17.116.234a.43.43 0 0 0 .208.134 1 1 0 0 0 .253.03m-3.704-3.354c.279-.052.45-.276.41-.539-.041-.273-.344-.484-.628-.437-.273.045-.424.271-.368.553.062.315.287.478.586.423m4.294 3.719c.048.247.352.467.588.425.221-.039.437-.347.402-.574-.038-.244-.372-.456-.628-.4a.45.45 0 0 0-.288.194.5.5 0 0 0-.074.355"/><path fill="#af1235" d="M12.955 39.702c-.294.056-.48.186-.462.324q.034.246.496.161c.31-.058.512-.197.488-.336-.024-.142-.236-.203-.522-.149m3.608 2.836c.255-.07.447-.204.432-.314-.017-.114-.227-.188-.457-.16q-.1.015-.2.038c-.166.036-.314.117-.326.195-.015.094-.013.192.161.218q.19.019.39.023m-2.896-1.713a.25.25 0 0 0-.105-.152.24.24 0 0 0-.18-.035c-.112.025-.2.155-.18.264a.25.25 0 0 0 .098.16.25.25 0 0 0 .178.046.24.24 0 0 0 .151-.102.25.25 0 0 0 .038-.181m4.213 1.995c-.142.03-.212.12-.186.24a.25.25 0 0 0 .107.161.24.24 0 0 0 .187.036.23.23 0 0 0 .141-.102.24.24 0 0 0 .032-.173c-.028-.115-.156-.189-.281-.162m-3.716-3.353q-.215.043-.175.247c.013.062.05.117.103.153a.24.24 0 0 0 .179.037c.113-.024.204-.153.184-.262-.021-.12-.158-.202-.29-.175M12.9 36.882c-.03-.148-.12-.204-.28-.171-.106.022-.205.146-.188.236.022.11.207.22.328.193.11-.024.167-.127.14-.258m-.597 2.17c-.024-.12-.159-.216-.268-.19-.1.024-.185.158-.166.26.023.125.151.227.26.208.112-.02.198-.158.174-.278m3.041 1.205c-.12.026-.141.079-.132.208.01.125.198.216.305.184.098-.03.137-.085.116-.189a.26.26 0 0 0-.103-.162.25.25 0 0 0-.186-.041m-3.394-2.009c.14-.031.182-.09.154-.221-.024-.108-.124-.179-.219-.154-.111.029-.2.148-.182.243.021.105.122.16.246.132m.886-.56a.2.2 0 0 0-.121.085.195.195 0 0 0 .135.295q.038.006.075-.005c.107-.02.182-.117.165-.21-.018-.095-.156-.185-.254-.165"/></g><defs><clipPath id="clip0_31032_46322"><rect width="36" height="36" fill="#fff" rx="7"/></clipPath></defs></svg>