<svg xmlns="http://www.w3.org/2000/svg" width="34" height="34" fill="none"><g clip-path="url(#a)"><rect width="34" height="34" fill="#573970" rx="8"/><path fill="#9669BE" d="M28.27 61.36c.6-10.73-2.5-26.15-10.77-33.5-1.02-.9-4.44-3.74-8.06-8.48-3.69-4.81-5.53-7.22-5.83-10.27-.8-8.08 9.23-11.7 8.06-18.1-.9-4.88-7.03-4.35-10.48-9.6-6.2-9.38 4.5-24.67 6.08-31.63L-21.05-27.4c-.93 2.88-1.17 5.81.11 8.32.91 1.79 2.32 2.8 3.66 3.78 5.94 4.3 11.32 1.74 14.96 5.66 1.93 2.08 2.2 4.7 2.29 5.5.7 6.62-5.84 9.27-6.02 14.93-.18 5.55 5.99 6.72 8.66 12.27 4.26 8.86-5.56 18.09-11.56 29.9L19.5 88.27c4.89-7.31 8.27-17.89 8.77-26.9Z"/><path fill="#C98146" d="M15.87 47.32c.89-6.09 6.31-9.32 7.64-10.05l.1-.06c6.06-3.26 12.6-1.57 12.6-1.3 0 .22-4.93-.66-10.15 1.58-.76.33-1.54.73-2.3 1.2a20 20 0 0 0-1.95 1.36c-.92.73-1.97 1.72-2.85 2.96a9.86 9.86 0 0 0-1.85 4.78c-.05.54-.46 5.77 3.32 8.13 1.63 1.02 4.05-.24 4.82 1 .18.28.32.75.13 1.1-.12.22-.4.39-.76.5-.78.22-2 .17-3.16-.11a7.4 7.4 0 0 1-1.67-.63c-3.35-1.77-4.46-6.75-3.92-10.46"/><path fill="#CFA24B" d="M21.47-6.3c.16-.1.4-.25.64-.35l-.03-.14c-.23-1.13.05-2.14.63-2.26.48-.1.92.02 1.22.86.1-.66.48-.72.86-.76.4-.05.76.1.99.81.1-.44.35-.43.6-.46.44-.05.88.74 1 1.78.04.38.03.75-.03 1.06l.01.02c.12.28.15.63.16 1.11 0 1.42.02 2.13-.32 2.69a3.36 3.36 0 0 1-1.97 1.42l-.05.01c-.31.08-1.13.26-1.92-.1-.38-.18-.4-.32-1.22-1.16-1.09-1.11-1.38-1.2-1.66-1.83-.15-.33-.36-.8-.23-1.33.16-.64.7-.98 1.32-1.36Z"/><path fill="#C98146" d="M.63 25.87C.2 23.53 1.8 21.02 3.98 20.5l.35-.06a4 4 0 0 1 1.9.22 20 20 0 0 1-.08-1.56A12.44 12.44 0 0 1 8 11.83a11 11 0 0 1 .56-.78l.04-.04a4.9 4.9 0 0 1-1.11-.97c-.71-.79-1.1-1.8-.93-1.92l.01-.01c.2-.06.7.84 1.72 1.24.38.15.77.2 1.15.2a4.27 4.27 0 0 1-.96-2.46c-.07-1.41.63-2.7.94-2.75a.1.1 0 0 1 .04 0c.31.06-.22 1.7.55 2.68.05.07.1.13.16.18.72.7 1.72.35 2.52.57a14.8 14.8 0 0 1 3.97-1.26 13.5 13.5 0 0 1 5.64.2l-.04-.06.08.07.04.02.12.03a4 4 0 0 1 .07-2.24 4.61 4.61 0 0 1 3.32-2.91l.1-.03a4.8 4.8 0 0 1 5.6 3.28c.06.22.58 2.15-.65 3.86a4.45 4.45 0 0 1-1.81 1.45 7.2 7.2 0 0 1 2.04 2.92c.7 2.06.11 3.92-.36 5.36a14 14 0 0 1-1.77 3.57l-.06.09.16.04c1.78.52 4.28 1.65 6.52 3.65.33.3.72.64 1.12 1.03v-.02l.14-.23a5.8 5.8 0 0 1 1.89-1.9c.45-.28 1.13-.7 2.1-.8 1.83-.2 3.15.9 3.3 1.02 1.29 1.1 1.54 2.71 1.75 4.07.14.9.02.95.22 2.57l.1.79c.13 1.1.22 1.68.37 1.91a.3.3 0 0 1 .03.05.14.14 0 0 1 0 .1c-.05.19-.61.06-1.38.15-.6.07-1.26.16-1.78.62-.12.1-.17.17-.24.16-.3-.04-.14-1.3-.4-2.8-.2-1.18-.37-2.15-1.16-2.78a3.16 3.16 0 0 0-2.33-.53 2.7 2.7 0 0 0-.57.18 6.8 6.8 0 0 1 .99 3.94 7 7 0 0 1-.28 1.57 8.45 8.45 0 0 1-2.56 3.88 7.8 7.8 0 0 1-2.82 1.49 8 8 0 0 1-.8.19l-.05.21c-.14.6-.41 1.32-.4 2.33.01 1.95 1.04 3.43 2.07 4.9.92 1.32 2.27 2.7 2.64 2.83.02 0 .1.03.13.1.07.18-.3.45-.6.7-.19.17-.36.35-.52.54-.51.6-.95 1.17-.95 1.17l-.03-.02a21 21 0 0 1-2.19-1.33 15.3 15.3 0 0 1-1.89-1.54 9.7 9.7 0 0 1-2.64-4.11 7.64 7.64 0 0 1-.29-3.78c.08-.41.26-1.4.7-2.26l-.16-.06-.07-.02a7.7 7.7 0 0 1-2.65-1.57 6.3 6.3 0 0 1-1.56-2.24c-.34-.74-.66-1.63-1.14-2.8a52 52 0 0 0-1.24-2.74v.02l-.07.25a16.63 16.63 0 0 0-.18 8.91c.45 1.86 1.08 3.28 1.44 3.6.03.03.17.16.14.27-.06.26-.91.16-1.6.34-.18.04-1.5.49-1.88 1.4l-.02.06-.04.04c-.11.03-.33-.29-.6-.82a21.7 21.7 0 0 1-1.6-4.9c-.3-1.53-.8-4.3.27-7.6a13.3 13.3 0 0 1 1.42-3 1 1 0 0 1 .04-.07c-2.14.99-4.54 1.63-6.86 1.06a6.84 6.84 0 0 1-3.6-2.03 8 8 0 0 1-.23-.26l-.06.05a5.5 5.5 0 0 1-5.07 1.31 4.7 4.7 0 0 1-3.39-3.54Zm38.34 7.7v-.01Zm-7.85 5.02-.05-.04z"/><path fill="#DEB769" d="M20.15-4.93c.16-.64.7-.98 1.32-1.36.16-.1.4-.26.64-.36l-.03-.14c-.23-1.13.05-2.14.63-2.26.48-.1.92.02 1.22.86.1-.66.48-.72.86-.76.4-.05.76.1.99.81.1-.44.35-.43.6-.46.44-.05.88.74 1 1.78.04.38.03.75-.03 1.06l.01.02c-.12.17-.21.46-.47.5-.34.04-.59-.45-.8-.36-.2.08-.06.44-.32.7a.78.78 0 0 1-.7.17c-.5-.13-.64-.8-.78-.75-.1.04.04.42-.17.83-.09.17-.32.51-.57.5-.38-.01-.46-.77-.9-.8a.55.55 0 0 0-.46.28c-.11.2-.04.41-.01.48.09.25.3.39.36.43.3.2.54.54 1.04 1.21.66.9.28 1.47.7 1.82.2.17.52.24.9.22-.31.08-1.13.26-1.92-.1-.38-.18-.4-.32-1.22-1.16-1.09-1.11-1.38-1.2-1.66-1.83-.16-.33-.37-.8-.23-1.33"/><path fill="#CFA24B" d="M24.28-.73c-.42-.35-.04-.93-.7-1.82-.5-.67-.75-1-1.04-1.21-.06-.04-.27-.18-.36-.43-.03-.07-.1-.28 0-.48a.54.54 0 0 1 .48-.28c.43.03.5.79.89.8.25.01.49-.33.57-.5.2-.41.06-.8.17-.83.14-.04.29.62.77.75a.78.78 0 0 0 .7-.17c.27-.26.14-.62.32-.7.22-.09.47.4.81.36.26-.04.35-.33.47-.5.12.28.15.63.16 1.11 0 1.42.02 2.13-.32 2.69a3.36 3.36 0 0 1-1.97 1.42l-.05.01c-.38.02-.7-.05-.9-.22"/><path fill="#B16A31" d="M17.51 54.54a9.93 9.93 0 0 1-.95-6c.1-.95.44-3.22 1.95-5.5.93-1.4 2.08-2.41 4.38-4.43.51-.45.93-.8 1.26-1.07 6.06-3.27 12.6-1.57 12.6-1.3 0 .22-4.93-.66-10.15 1.58l-.34-.5a10.9 10.9 0 0 0-4.06 2.5l.15.56c-.92.73-1.97 1.72-2.85 2.95l-.21-.77c-.54.84-1.48 2.32-1.86 4.22-.58 2.86.07 5.1.29 5.78.39 1.23 1.06 3.31 2.75 4.17.55.27 1.84.74 2.65.6.06-.01.3-.06.65-.06.28 0 .65 0 1.03.17.25.11.63.27.71.58.09.31-.16.6-.35.82-.78.23-2 .18-3.16-.1a11 11 0 0 1-.72-.42c-.9-.56-2.63-1.67-3.77-3.78"/><path fill="#9C5A26" d="M31.1 24.4c1.66-.81 1.6-3.97 1.56-6.77a31.8 31.8 0 0 0-.86-6.51c-.62-2.76-.9-2.73-2.14-7.34-.9-3.32-1.35-4.98-1.25-5.55.01-.07.06-.3-.07-.4-.22-.18-.72.26-1.57.7-.46.22-2.31 1.16-3.38.82-.06-.02-.19-.06-.26 0-.24.2.48 1.4.63 1.65.71 1.2 1.28 3.06 2.4 6.77 1.13 3.68 2.57 8.4 1.8 12.99-.11.7-.42 2.26.44 3.15.64.65 1.85.9 2.7.49"/><path fill="#B16A31" d="M9.06 27.5c.1.15.18.3.27.46a5 5 0 0 1-.36.32 5 5 0 0 1-1.95.94c-.4.1-1.38.32-2.54-.06a4.4 4.4 0 0 1-2.14-1.56c-.22-.29-.94-1.3-.85-2.7.08-1.23.7-2.06.93-2.36a6.04 6.04 0 0 1 2.45-1.77 4 4 0 0 1 1.9.22l-.03-.32c.17.7.39 1.52.67 2.52.69 2.5 1.23 3.58 1.65 4.3ZM26.83 8.54l-1.05-.48c.31.13.67.3 1.04.48ZM19.86 32a14.6 14.6 0 0 1 1.27-2.48l1.03-.99 1.45-1.1a36 36 0 0 0 3.46-3.04c.3-.11 1.5-.54 2.58-.61.68-.05 1.51.04 3.23.85 1.2.57 2.97 1.55 4.91 3.24l-.45-.71.13-.23c.48-.13 1.55-1.74 3.54-2A5 5 0 0 1 44.6 26c1.4 1.22 1.67 3.13 1.78 3.88.16 1.1.02 1.89.43 2.79.14 1.1.23 1.68.38 1.91l.03.04c-.33-.2-.8-.34-1.01-.4-.55-.17-.68-.08-.95-.21-.7-.34-.65-1.37-.96-2.76-.3-1.31-.68-2.99-1.79-3.4-.89-.33-1.9.28-2.23.48-.25.15-.88.53-1.03 1.04-.5-.68-.95-1.06-1-1.03-.08.06 1.43 1.56 1.52 3.7.03.67-.09 1.3-.27 1.86a14.5 14.5 0 0 0-4-4.63c-.25-.18-4.99-3.62-7.45-1.85a4.4 4.4 0 0 0-1.71 2.84c-.43 3.93 3.42 7.07 4.31 7.83.28.24.62.53 1 .83a7.33 7.33 0 0 1-3.62-1.24c-1.03-.7-1.6-1.5-2.45-2.86-2.05-3.24-2.9-5.16-3.03-5.1-.06.02.05.51.3 1.29-.25.4-.65 1.57-.9 2.64-.57 2.36-.97 5.06 0 7.6.17.4.28 1.22.05 1.88-.19.54-.36.59-.86 1.28-.3.41-.54 1.1-.28 1.53l.02.02-.04.04c-.11.03-.33-.3-.6-.83a20.4 20.4 0 0 1-1.23-5.07c-.2-1.76-.5-4.74.84-8.11Zm9.63-21.64c-.48-.41-.9-.73-1.22-.97a7.4 7.4 0 0 1 1.22.97"/><path fill="#B16A31" d="M30.87 3.55c.3.34 1.13 1.41 1.03 2.92a3.95 3.95 0 0 1-1.01 2.39c-.27.28-.64.67-1.17.73-.68.09-1.2-.4-1.63-.7a7.56 7.56 0 0 0-3.73-1.4l-.25-.08c.04-.26-.52-.72-.64-1.5-.24-1.6 1.57-3.08 1.76-3.23a5.4 5.4 0 0 1 1.2-.73l.1-.03a6 6 0 0 1 1.75.15c.52.13 1.68.42 2.6 1.48Z"/><path fill="#B16A31" d="M26.83 8.55c.45.23.94.5 1.43.82l-1.43-.81Zm.36 15.71a7.4 7.4 0 0 0 1.04-1.18c-.05-.05-1.65 2.02-4.53 3.54-1 .53-4.17 2.15-8.26 1.65-1.5-.18-3.63-.44-5.44-2.09-2.24-2.05-2.47-4.89-2.58-6.22a11.4 11.4 0 0 1 1.5-6.66c.76-1.24 1.67-2.43 1.53-2.58-.04-.03-.15-.02-.3.05a4 4 0 0 1-2.58-1.5 3.5 3.5 0 0 1-.45-.84c.2-.05.7.85 1.72 1.25.38.15.77.2 1.15.2l-.12-.16c.28.1.66.19 1.11.13.79-.1 1.48-.63 1.42-.83-.08-.25-1.21.3-2.03-.26-.8-.55-.82-1.81-.83-2.15-.01-.91.3-1.55.43-1.94a.1.1 0 0 1 .04 0c.31.05-.22 1.7.55 2.68.11.24.27.44.46.59.55.43 1.4.38 1.78.36a4 4 0 0 0 .9-.16c1.41-.57 4.84-1.73 8.9-.75 1.51.37 4.6 1.12 6.65 4a9.57 9.57 0 0 1 1.68 5.9c-.12 2.66-1.73 4.7-2.26 5.43l.84-.32.08-.04-.06.09.16.04a36 36 0 0 0-2.5 1.77"/><path fill="#9C5A26" d="M10.1 27.19c-.12-.05-.31.32-.77.77l-.27-.47c-.42-.72-.96-1.8-1.65-4.3a83 83 0 0 1-.67-2.52 20 20 0 0 1-.05-1.24 12.44 12.44 0 0 1 1.86-7.27l1.73-1.37-.14-.02c.16-.07.27-.09.3-.05.14.15-.76 1.33-1.52 2.58a11.4 11.4 0 0 0-1.5 6.65c.1 1.34.33 4.18 2.58 6.23 1.8 1.65 3.94 1.9 5.44 2.1 4.1.49 7.26-1.13 8.26-1.66 2.88-1.52 4.48-3.6 4.53-3.54.02.02-.36.48-1.04 1.18l-.2.14.08-.02a36 36 0 0 1-3.46 3.03c-.5.4-.98.76-1.45 1.11l1.21-1.15-3.03 2.3.04-.06c-2.14.99-4.54 1.63-6.87 1.06a6.84 6.84 0 0 1-3.6-2.03c.26-.68.34-1.39.19-1.45m.04-16.42c-.25.1-.62.31-1.03.61l.04-.05c-.51-.3-.9-.72-1.11-.97-.71-.78-1.1-1.8-.93-1.92h.01c.1.25.24.54.45.82a4 4 0 0 0 2.57 1.5Z"/><path fill="#9C5A26" d="m10.28 10.79-1.73 1.37a11 11 0 0 1 .56-.78c.41-.3.78-.51 1.03-.61zm.09-2.03c.82.56 1.95.01 2.03.26.06.2-.63.73-1.42.83a2.35 2.35 0 0 1-1.1-.13 4.27 4.27 0 0 1-.85-2.3c-.07-1.42.63-2.7.94-2.75-.14.4-.45 1.03-.43 1.94 0 .34.03 1.6.83 2.15M1.17 26.2c-.44-2.34 1.17-4.85 3.35-5.37l.35-.06c-.61.27-1.66.75-2.45 1.77-.23.3-.85 1.13-.93 2.35a4.4 4.4 0 0 0 5.53 4.34 5 5 0 0 0 1.95-.95c.14-.1.26-.21.36-.32l.3.47a5.5 5.5 0 0 1-5.07 1.31 4.7 4.7 0 0 1-3.39-3.54"/><path fill="#9C5A26" d="M10.1 27.19c.15.06.07.77-.18 1.45a8 8 0 0 1-.23-.26l-.06.05a12 12 0 0 1-.3-.47c.46-.45.65-.82.77-.77M28.55 9.57l-.28-.19a15 15 0 0 0-1.44-.83q-.57-.285-1.05-.48l-.74-.34-.68-.24c.65.06 2.3.32 3.73 1.4.42.3.95.79 1.63.7.53-.06.9-.45 1.16-.73.9-.96 1-2.16 1.02-2.39a4.17 4.17 0 0 0-1.03-2.93 4.73 4.73 0 0 0-2.6-1.47 6.1 6.1 0 0 0-1.74-.15 4.8 4.8 0 0 1 5.6 3.28c.07.22.6 2.15-.64 3.85a4.45 4.45 0 0 1-1.81 1.46l-.19-.16a7.4 7.4 0 0 0-.94-.78M23.06 31.1v.01c0-.16-.02-.24-.05-.25-.04 0-.09.05-.15.14-.25-.78-.36-1.27-.3-1.3.13-.05.98 1.87 3.03 5.11.86 1.36 1.42 2.16 2.45 2.86a7.33 7.33 0 0 0 3.62 1.24c.3.23.63.47.98.7-1.09.02-2.1.42-2.13.72-.02.16.26.26.6.53a9 9 0 0 1-.43-.1l-1-.3a8 8 0 0 1-1.68-.88 7.7 7.7 0 0 1-2.56-2.94c-.34-.74-.66-1.63-1.14-2.8a52 52 0 0 0-1.24-2.74m-1.91 13.3c.5-.68.67-.73.86-1.27.23-.66.12-1.47-.04-1.89-.97-2.53-.58-5.23-.02-7.59.26-1.07.66-2.25.91-2.64l.13.36a16.6 16.6 0 0 0-.5 7.26c0 .17 0 .34.02.5.04.33.15.71.3 1.16.45 1.86 1.08 3.28 1.44 3.6.03.03.17.16.14.27-.06.26-.91.16-1.6.33-.18.05-1.5.5-1.88 1.41l-.02.06-.02-.02c-.26-.42-.02-1.12.28-1.53Z"/><path fill="#9C5A26" d="M23.01 30.87c.03.01.05.1.05.25l-.07.25-.13-.36c.06-.1.11-.14.15-.14"/><path fill="#C98146" d="m24.11 7.4.25.1a2 2 0 0 0-.28-.02.14.14 0 0 0 .03-.07Z"/><path fill="#C98146" d="M28.67 22.72c.53-.74 2.14-2.77 2.26-5.43.04-.85.05-3.45-1.68-5.9-2.04-2.88-5.14-3.63-6.66-4-4.05-.98-7.48.18-8.89.75a4 4 0 0 1-.9.16c-.39.02-1.23.06-1.78-.36a1.7 1.7 0 0 1-.46-.59l.16.18c.72.7 1.71.35 2.52.57a14.8 14.8 0 0 1 3.97-1.26 13.5 13.5 0 0 1 5.64.2l.16.19c.35.3.9.44 1.07.25 0 .01.68.17 1.7.59l1.04.48h.01l1.43.82.01.01c.32.24.74.56 1.22.97l.36.33.03.01c.78.71 1.45 1.59 1.84 2.74.7 2.06.11 3.92-.36 5.36a14 14 0 0 1-1.77 3.57l-.08.04z"/><path fill="#C98146" d="m25.04 7.73.73.34c-1.01-.42-1.7-.58-1.7-.59a2 2 0 0 1 .3.01zm4.8 2.95-.35-.33a23 23 0 0 1 .4.34h-.04Zm-6.37-4.77c.12.78.68 1.24.64 1.5l-.28-.1-.9-.25.12.03a4 4 0 0 1 .07-2.23 4.6 4.6 0 0 1 3.32-2.91 5.4 5.4 0 0 0-1.21.73c-.2.15-2 1.64-1.76 3.23m-.54 1.16-.08-.03-.04-.06.08.07z"/><path fill="#C98146" d="m23.82 7.3.3.1a.14.14 0 0 1-.04.08c-.16.19-.72.05-1.07-.25a1 1 0 0 1-.16-.19l.08.02.9.25Zm-5.17 32.98c-.3-1.54-.8-4.3.27-7.6.35-1.07.8-1.98 1.27-2.76a33 33 0 0 0 1.97-1.4l-1.03.99a14.6 14.6 0 0 0-1.27 2.48 16.24 16.24 0 0 0-.84 8.1c.14 1.28.46 3.06 1.23 5.08a21.7 21.7 0 0 1-1.6-4.89"/><path fill="#C98146" d="M22.16 28.52c-.69.52-1.34 1-1.97 1.4l.15-.25 3.03-2.3-1.2 1.15Zm10.72-3.9c-1.72-.81-2.55-.9-3.23-.85-1.08.07-2.28.5-2.58.6l.12-.11a38 38 0 0 1 2.5-1.77c1.78.52 4.28 1.64 6.52 3.65.33.3.72.63 1.12 1.03v-.02l.46.7a21.4 21.4 0 0 0-4.91-3.23"/><path fill="#C98146" d="m27 24.4.19-.14-.12.12-.07.03Z"/><path fill="#9C5A26" d="M17.21 14.01c-.53-.1-.88.48-2.11 1.29-1.23.8-1.48.62-2.43 1.22a6.46 6.46 0 0 0-2.93 3.69c-.11.42-.73 2.02.2 3.53.17.29 1.18 1.7 2.46 1.9.89.14 1.28-.2 2.82-.7 1.1-.36 1.73.02 2.1.15.56.19.72.4 1.21.67 1.22.65 2.98.85 3.32.34.32-.5-.94-1.2-1.86-3.09-.93-1.9-.4-2.72-1.49-6.64-.42-1.52-.74-2.26-1.29-2.36M3.54 26.2c-.55-.43-.53-1.29-.52-1.6a2.94 2.94 0 0 1 1.1-2.14c.25-.18.91-.7 1.8-.6.17.03 1.1.16 1.53.94.42.8.02 1.65-.07 1.83-.7 1.46-2.9 2.3-3.84 1.57M24.58 7.3a1.97 1.97 0 0 1-.36-1.2c0-1.48 1.52-2.36 1.59-2.4.16-.1 1.58-.86 2.96-.1 1.17.65 1.76 2.11 1.37 3.08-.68 1.75-4.49 2-5.56.62"/><path fill="#F5B369" d="M35.5 37.76a9.2 9.2 0 0 1-3.9 1.12 28 28 0 0 1-.94-.79c-.88-.76-4.74-3.9-4.31-7.83.08-.74.6-2.05 1.7-2.84 2.47-1.77 7.21 1.67 7.45 1.85a14.5 14.5 0 0 1 4 4.62c-.46 1.1-1.73 2.7-4 3.87"/><path fill="#E09D51" d="M40.08 35.24a8.45 8.45 0 0 1-2.55 3.88 7.8 7.8 0 0 1-2.83 1.49 8.2 8.2 0 0 1-2.06-1 14 14 0 0 1-.98-.7l-.05-.03a9.2 9.2 0 0 0 3.9-1.12c2.26-1.17 3.53-2.78 4-3.87q.345.675.57 1.35"/><path fill="#C98146" d="M8.61 26.33c.07.18.23.63.02 1.04-.1.2-.27.34-.5.48a5.2 5.2 0 0 1-2.05.7c-.45-.05-1.69-.31-2.33-1.3-.54-.83-.57-2.1.04-2.67 1.15-1.1 4.38.5 4.82 1.75m8.74-12.47c-.1-.76.27-1.44.52-1.9 1.11-2.02 3.5-2.36 3.73-2.38a4.45 4.45 0 0 1 3.39.78c1.02.8 1.7 2.28 1.33 3.48-.17.58-.32.75-.72 1.89a3 3 0 0 0-.23 1.42c.08.6.38.94.6 1.29.8 1.3.74 3.01.33 4.14-.31.86-1 1.86-1.35 1.76-.56-.16.73-2.67-.22-4.85-1.48-3.37-7.01-2.98-7.38-5.62Z"/><path fill="#F5B369" d="M29.21 4.92c-.08 1.37-1.5 2.07-1.85 2.23-1.01.5-2.05.4-2.83.19a1 1 0 0 1-.07-.09c-.49-.62-.23-1.67.1-2.27a3.16 3.16 0 0 1 3.15-1.53c.5.06.95.25 1.33.52a2.1 2.1 0 0 1 .17.95M7.2 25.34c-.32.58-1 1.26-1.83 1.27-.97 0-1.66-.9-1.94-1.53a2.8 2.8 0 0 1-.23-1.22l.1-.24c.13-.28.62-1.3 1.77-1.59 1.32-.33 2.16.73 2.23.8.01.13.05.26.1.42a3 3 0 0 1-.2 2.09"/><path fill="#E09D51" d="M7.86 24.39c.39 1.13.8 1.42.71 1.99-.12.78-1.06 1.33-1.73 1.52a3.1 3.1 0 0 1-3.28-1.18 3.08 3.08 0 0 1-.36-2.86c0 .38.05.8.23 1.22.28.63.97 1.54 1.94 1.53.84 0 1.51-.69 1.83-1.27.38-.7.34-1.46.2-2.1.12.32.3.69.46 1.15m20.3-21.57-.06-.04.05.04Z"/><path fill="#F5B369" d="M9.62 21.4c0-1.04.42-1.98.96-2.76a9.7 9.7 0 0 1 2.23-2.22c1.3-.92 1.8-.64 3-1.66 1.55-1.3 1.3-2.25 2.54-3.39.25-.22.54-.44.84-.63 1.54-.96 3.71-1.43 5.13-.48 1.38.93 1.73 2.98 1.14 4.44-.23.59-.5.76-.61 1.37-.23 1.22.54 1.89 1 2.77v.03c.38.74.57 1.75.51 2.75a4.77 4.77 0 0 1-1.08 2.91c-1.52 1.7-4.8 1.9-6.62.94-1.04-.55-1.17-1.25-2.3-1.37-1.45-.15-2.12.92-3.48.92-1.66 0-3.24-1.62-3.26-3.62"/><path fill="#E09D51" d="M30.09 7.73c-.7 1.17-2.11 1.24-2.2 1.25a7.5 7.5 0 0 0-1.48-.88c-1.03-.46-1.53-.4-1.88-.76.78.21 1.82.3 2.83-.19.34-.16 1.77-.86 1.85-2.23a2.1 2.1 0 0 0-.17-.95c.52.36.9.87 1.12 1.41.11.3.53 1.34-.07 2.35M13.56 19c-.88-.23-1.6.13-1.76.2-.94.49-1.6 1.62-1.37 2.72a2.42 2.42 0 0 0 1.17 1.54c.72.38 1.42.27 1.72.2.95-.24 2.08-1.12 2.07-2.42A2.43 2.43 0 0 0 13.56 19m8.1-7.85a2.59 2.59 0 0 0-1.8 1.35c-.4.8-.44 1.93.24 2.66.6.65 1.47.67 1.71.68.23 0 1.03 0 1.72-.57a2.4 2.4 0 0 0 .78-2.48 2.42 2.42 0 0 0-2.66-1.64Zm-2.54 8.76a.73.73 0 0 0-.85.04.76.76 0 0 0-.07 1.07c.22.24.62.32.91.12.33-.21.31-.64.25-.85a.64.64 0 0 0-.24-.38m2.49-1.88a.73.73 0 0 0-.85.04.76.76 0 0 0-.07 1.07c.22.24.62.32.91.13.33-.22.31-.64.25-.86a.66.66 0 0 0-.24-.38m-.36 3.15c-.07.04-1.02.67-1.15 1.77-.03.24-.1.87.3 1.3.43.46 1.1.41 1.5.38a3.27 3.27 0 0 0 2.18-1.12c.15-.2.95-1.18.6-1.94-.4-.91-2.27-1.12-3.43-.4Z"/><path fill="#B16A31" d="M20.5 24.59c-.62-.78-.22-2.12.9-3 1.11-.87 2.52-.95 3.14-.17s.22 2.12-.9 3c-1.1.87-2.52.95-3.14.17m1.08-5.72a.67.67 0 0 1-.87-.38.67.67 0 0 1 .39-.86.67.67 0 0 1 .87.38.67.67 0 0 1-.4.86Zm-2.46 1.9a.67.67 0 0 1-.87-.38.67.67 0 0 1 .39-.87.67.67 0 0 1 .87.38.67.67 0 0 1-.4.87Z"/><path fill="#333" d="M19.62 15.47c-.82-.91-.66-2.38.36-3.29 1.03-.9 2.52-.9 3.35 0 .82.92.66 2.39-.36 3.3-1.03.9-2.53.9-3.35-.01m-9 7.95c-.83-.91-.67-2.38.36-3.29 1.02-.9 2.52-.9 3.34 0 .82.92.66 2.39-.36 3.3-1.03.9-2.52.9-3.35-.01Z"/><path fill="#F2F2F2" d="M20.73 12.92c-.19-.23-.08-.62.23-.86.31-.25.72-.26.9-.03s.08.61-.23.86-.72.26-.9.03m.5.9a.18.18 0 0 1-.23-.1.18.18 0 0 1 .1-.23.18.18 0 0 1 .24.1.18.18 0 0 1-.1.23Zm-9.39 7.08c-.18-.23-.08-.61.23-.86s.72-.26.9-.03c.19.23.08.62-.23.86-.31.25-.72.26-.9.03m.5.91a.18.18 0 0 1-.22-.1.18.18 0 0 1 .1-.23.18.18 0 0 1 .23.1.18.18 0 0 1-.1.23Z"/></g><defs><clipPath id="a"><rect width="34" height="34" fill="#fff" rx="8"/></clipPath></defs></svg>
