<svg width="32" height="32" viewBox="0 0 32 32" fill="none" xmlns="http://www.w3.org/2000/svg">
<g clip-path="url(#clip0_1537_394188)">
<rect width="32" height="32" rx="7" fill="#F67344"/>
<path d="M24.7764 0.505198L24.1683 -2.23996C24.1284 -2.42014 23.8716 -2.42014 23.8317 -2.23995L23.2236 0.505198C22.6812 5.07668 19.077 8.68095 14.5055 9.22337L11.7601 9.8314C11.5799 9.8713 11.5799 10.1282 11.7601 10.1681L14.5055 10.7761C19.077 11.3185 22.6812 14.9228 23.2236 19.4942L23.8317 22.2398C23.8716 22.42 24.1284 22.42 24.1683 22.2398L24.7764 19.4942C25.3188 14.9228 28.9231 11.3185 33.4945 10.7761L36.2399 10.1683C36.4201 10.1284 36.4201 9.87152 36.2399 9.8316L33.4945 9.22337C28.9231 8.68095 25.3188 5.07668 24.7764 0.505198Z" fill="#FFA787"/>
<g clip-path="url(#clip1_1537_394188)">
<path d="M-11.0757 7.27455L10.747 20.1544L27.6202 14.305L6.80992 3L-11.0757 7.27455Z" fill="url(#paint0_radial_1537_394188)"/>
<path d="M-14 24.3727L-11.0753 7.27455L6.81029 3L27.6206 14.305L22.2212 32.1344L6.81029 37.9838L-14 24.3727Z" fill="#A3DAE6"/>
<path d="M-11.0757 7.27455L10.747 20.1544L27.6202 14.305L6.80992 3L-11.0757 7.27455Z" fill="#A8F0FF"/>
<path d="M-8.12744 7.90997L10.6347 18.9734L24.6957 14.0802L6.81013 4.39441L-8.12744 7.90997Z" fill="#00C6F2"/>
<path d="M6.81005 37.9839L10.7471 20.1545L-11.0756 7.27466L-14.0002 24.3728L6.81005 37.9839Z" fill="#8FCCD9"/>
<path d="M4.86964 18.6298L1.9201 16.7301L-3.42905 18.1299V19.8572L-5.27876 20.2155L-5.87866 30.9279L-4.32891 31.7277L-4.3789 32.8276L-2.87914 33.1775L-2.27923 32.0777L-2.72916 30.128L-2.27923 23.3291L-0.279548 21.0794L3.66983 19.8572L4.86964 18.6298Z" fill="#76BFCF"/>
<path d="M3.51956 28.5782L1.65024 27.3889L-2.31055 28.5782L-1.91714 30.3481L2.33313 29.5742L3.51956 28.5782Z" fill="#76BFCF"/>
<path d="M4.86928 18.6298L-1.42973 20.4295L-1.91721 21.734L-3.27943 22.4292L-3.82935 31.8777L-3.02947 32.2276L-2.8795 33.1775L3.11955 31.2778L3.51949 28.5782L-1.22976 30.1279L-1.27975 29.628L-1.91721 29.778L-1.56557 23.6241L-0.444733 23.1776L-0.329899 22.0292L4.31937 20.5795L4.86928 18.6298Z" fill="#A3DAE6"/>
<path d="M14.2834 23.7399C14.4179 23.8473 14.5408 23.9919 14.6478 24.167C15.2238 23.9762 15.8478 23.8921 16.5215 23.908C15.7754 23.5663 14.9975 23.5369 14.2834 23.7399Z" fill="#293B3C"/>
<path d="M11.7715 26.0854C11.6729 26.3391 11.5939 26.6014 11.561 26.8719C11.8174 26.4804 12.0816 26.1142 12.3691 25.7771C12.3813 25.4563 12.4287 25.1527 12.5047 24.8784C12.1953 25.2283 11.9435 25.6366 11.7715 26.0854Z" fill="#293B3C"/>
<path d="M12.5033 25.6239C12.458 25.6743 12.4134 25.7254 12.3693 25.7772C12.3672 25.832 12.3657 25.8872 12.3657 25.9429C12.3657 27.2767 12.9748 28.358 13.7262 28.358C14.4775 28.358 15.0866 27.2767 15.0866 25.9429C15.0866 25.2405 14.9175 24.6083 14.6478 24.167C13.8393 24.4348 13.1256 24.9133 12.5033 25.6239Z" fill="#293B3C"/>
<path d="M14.2835 23.7399C13.6058 23.9326 12.9857 24.3349 12.505 24.8784C12.429 25.1527 12.3816 25.4563 12.3694 25.7771C12.4135 25.7254 12.4581 25.6742 12.5034 25.6238C13.1257 24.9132 13.8394 24.4347 14.6479 24.1669C14.5409 23.9918 14.418 23.8472 14.2835 23.7399Z" fill="#293B3C"/>
<path d="M14.2835 23.7399C13.6058 23.9326 12.9857 24.3349 12.505 24.8784C12.429 25.1527 12.3816 25.4563 12.3694 25.7771C12.4135 25.7254 12.4581 25.6742 12.5034 25.6238C13.1257 24.9132 13.8394 24.4347 14.6479 24.1669C14.5409 23.9918 14.418 23.8472 14.2835 23.7399Z" fill="#293B3C"/>
<path d="M24.7543 21.618C24.6028 21.4569 24.4151 21.33 24.21 21.2334C23.5996 20.9536 22.8884 20.9908 22.2356 21.2352C22.3793 21.3401 22.509 21.4991 22.6179 21.6993C23.3082 21.4564 24.0379 21.4146 24.7543 21.618Z" fill="#293B3C"/>
<path d="M20.3193 23.0473C20.4564 22.938 20.5918 22.8308 20.7284 22.7272C20.7541 22.535 20.7935 22.3535 20.8439 22.1857C20.6129 22.4465 20.4309 22.7385 20.3193 23.0473Z" fill="#293B3C"/>
<path d="M21.333 22.3102C21.1226 22.4378 20.9241 22.5787 20.7283 22.7272C20.7052 22.9001 20.6929 23.0813 20.6929 23.268C20.6929 24.4695 21.2021 25.4435 21.8303 25.4435C22.4584 25.4435 22.9676 24.4695 22.9676 23.268C22.9676 22.6514 22.8333 22.0952 22.6178 21.6993C22.5479 21.7239 22.4783 21.7499 22.4092 21.7786C22.0388 21.9286 21.6764 22.1007 21.333 22.3102Z" fill="#293B3C"/>
<path d="M22.2357 21.2352C21.7045 21.4341 21.2119 21.77 20.844 22.1856C20.7935 22.3534 20.7542 22.535 20.7285 22.7271C20.9243 22.5787 21.1228 22.4377 21.3332 22.3102C21.6765 22.1006 22.0389 21.9285 22.4094 21.7786C22.4784 21.7499 22.5481 21.7239 22.618 21.6993C22.5091 21.4991 22.3794 21.3401 22.2357 21.2352Z" fill="#293B3C"/>
<path d="M22.2357 21.2352C21.7045 21.4341 21.2119 21.77 20.844 22.1856C20.7935 22.3534 20.7542 22.535 20.7285 22.7271C20.9243 22.5787 21.1228 22.4377 21.3332 22.3102C21.6765 22.1006 22.0389 21.9285 22.4094 21.7786C22.4784 21.7499 22.5481 21.7239 22.618 21.6993C22.5091 21.4991 22.3794 21.3401 22.2357 21.2352Z" fill="#293B3C"/>
<path d="M16.5445 21.1992C15.6854 21.5826 14.7855 21.8904 13.9318 22.2732C13.4209 22.4886 12.8723 22.7539 12.3479 22.9459C13.1457 21.6165 15.039 20.8299 16.5445 21.1992Z" fill="#00B3FF"/>
<path d="M21.5347 19.7679C22.1483 18.4917 23.9908 17.8606 25.2549 18.4998C24.5944 18.6981 23.9953 18.8321 23.3669 19.052C22.7555 19.2524 22.1428 19.5357 21.5347 19.7679Z" fill="#00B3FF"/>
<path d="M8.04072 11.8223C8.04507 11.5126 8.04597 8.18245 5.81266 6.93083C5.43268 6.71787 4.34706 6.10945 3.3285 6.62351C2.26981 7.15782 2.11306 8.48617 2.09923 8.62108C1.97931 8.60539 1.81231 8.58582 1.61264 8.56986C0.72988 8.49932 -1.16856 8.34762 -1.58859 9.08205C-1.90162 9.62939 -1.3068 10.5171 -1.20444 10.6699C0.471094 13.1705 6.375 12.2085 7.55413 12.0016L8.04072 11.8223Z" fill="#B0F1FF"/>
<path d="M3.71222 13.1028C3.69827 13.214 5.94092 13.799 8.8342 13.8199C10.2319 13.83 11.3902 13.7056 12.1891 13.5894C12.4083 12.8986 12.4438 12.3036 12.4196 11.848C12.2604 8.85954 9.27677 7.10236 8.88542 6.87964C9.27247 7.17489 9.49889 7.47305 9.6281 7.67354C10.4842 9.00188 10.0979 10.7351 9.93542 11.4638C9.89248 11.6564 9.67934 12.565 9.67932 12.565C9.67922 12.5651 8.27856 12.8905 8.01468 12.9492C5.8811 13.4237 3.72585 12.9943 3.71222 13.1028Z" fill="#B0F1FF"/>
<path d="M12.6492 8.8302C12.9948 9.15223 13.732 9.92797 14.0737 11.1722C14.5142 12.7764 14.0061 14.0996 13.8322 14.5042C13.5485 14.5576 13.2594 14.6061 12.9649 14.649C10.2124 15.0506 7.66158 14.8718 5.42993 14.4317C5.88479 14.6171 6.49925 14.8459 7.24078 15.0595C10.227 15.9198 12.8481 15.8357 13.7115 15.808C14.0656 15.7966 15.6431 15.7356 15.6431 15.7356C15.7865 15.3617 15.9144 14.8979 15.957 14.3593C16.1053 12.4844 15.1101 11.0892 14.798 10.6652C14.4938 10.2519 13.9219 9.58615 12.973 9.02209L12.6492 8.8302Z" fill="#B0F1FF"/>
<path d="M13.1658 26.206C13.4296 26.206 13.6435 25.9921 13.6435 25.7283C13.6435 25.4644 13.4296 25.2505 13.1658 25.2505C12.9019 25.2505 12.688 25.4644 12.688 25.7283C12.688 25.9921 12.9019 26.206 13.1658 26.206Z" fill="white"/>
<path d="M14.0741 26.8076C14.2246 26.8076 14.3467 26.6856 14.3467 26.535C14.3467 26.3845 14.2246 26.2625 14.0741 26.2625C13.9235 26.2625 13.8015 26.3845 13.8015 26.535C13.8015 26.6856 13.9235 26.8076 14.0741 26.8076Z" fill="white"/>
<path d="M21.4375 23.4436C21.7014 23.4436 21.9153 23.2297 21.9153 22.9658C21.9153 22.7019 21.7014 22.488 21.4375 22.488C21.1736 22.488 20.9597 22.7019 20.9597 22.9658C20.9597 23.2297 21.1736 23.4436 21.4375 23.4436Z" fill="white"/>
<path d="M22.3458 24.045C22.4964 24.045 22.6184 23.923 22.6184 23.7725C22.6184 23.6219 22.4964 23.4999 22.3458 23.4999C22.1953 23.4999 22.0732 23.6219 22.0732 23.7725C22.0732 23.923 22.1953 24.045 22.3458 24.045Z" fill="white"/>
<path d="M12.3478 25.2169C12.3277 25.7521 11.6203 26.096 11.1882 25.7777C11.567 25.5041 11.8991 25.3461 12.3478 25.2169Z" fill="#293B3C"/>
<path d="M23.8264 21.1139C24.239 20.8953 24.5876 20.7784 25.0502 20.7123C24.9603 21.2413 24.2125 21.4851 23.8264 21.1139Z" fill="#293B3C"/>
<path d="M17.5182 32.3368C19.199 30.3498 19.1156 29.7656 18.9682 29.5613C18.8276 29.3664 18.4546 29.2756 18.1554 29.3696C17.6737 29.5209 17.5438 30.1008 17.536 30.138C17.4865 29.978 17.3313 29.7834 17.2627 29.7267C16.8939 29.422 16.2159 29.7292 16.008 30.0723C15.7561 30.4879 16.1551 31.3538 17.1278 32.115L17.5182 32.3368Z" fill="#00C6F2"/>
<path d="M17.8879 28.3578C19.0434 27.6056 19.0008 27.3969 18.9077 27.3265C18.8189 27.2593 18.5739 27.2347 18.3739 27.275C18.0518 27.3399 17.9533 27.5517 17.9473 27.5652C17.918 27.5087 17.8195 27.4419 17.7753 27.423C17.5378 27.3212 17.0825 27.4465 16.9374 27.5746C16.7617 27.7298 17.0071 28.0332 17.6343 28.2863L17.8879 28.3578Z" fill="#8FCCD9"/>
</g>
</g>
<defs>
<radialGradient id="paint0_radial_1537_394188" cx="0" cy="0" r="1" gradientUnits="userSpaceOnUse" gradientTransform="translate(12.4237 2.7106) scale(45.4122 45.4122)">
<stop offset="0.0055866" stop-color="#748C99"/>
<stop offset="1" stop-color="#364752"/>
</radialGradient>
<clipPath id="clip0_1537_394188">
<rect width="32" height="32" rx="7" fill="white"/>
</clipPath>
<clipPath id="clip1_1537_394188">
<rect width="41.6206" height="34.9838" fill="white" transform="translate(-14 3)"/>
</clipPath>
</defs>
</svg>
