<svg width="32" height="32" viewBox="0 0 32 32" fill="none" xmlns="http://www.w3.org/2000/svg">
  <g clip-path="url(#clip0_rac)">
    <rect width="32" height="32" rx="7" fill="#029663"/>
    <path d="M24.7764 0.505198L24.1683 -2.23996C24.1284 -2.42014 23.8716 -2.42014 23.8317 -2.23995L23.2236 0.505198C22.6812 5.07668 19.077 8.68095 14.5055 9.22337L11.7601 9.8314C11.5799 9.8713 11.5799 10.1282 11.7601 10.1681L14.5055 10.7761C19.077 11.3185 22.6812 14.9228 23.2236 19.4942L23.8317 22.2398C23.8716 22.42 24.1284 22.42 24.1683 22.2398L24.7764 19.4942C25.3188 14.9228 28.9231 11.3185 33.4945 10.7761L36.2399 10.1683C36.4201 10.1284 36.4201 9.87152 36.2399 9.8316L33.4945 9.22337C28.9231 8.68095 25.3188 5.07668 24.7764 0.505198Z"
          fill="#18B17C"/>
    <path d="M6.0 8.4C5.3 5.8 6.3 3.6 8.2 3.6C10.0 3.6 11.2 5.6 11.5 7.6C9.8 7.0 7.6 7.4 6.0 8.4Z" fill="#9AA4B2"/>
    <path d="M26.0 8.4C26.7 5.8 25.7 3.6 23.8 3.6C22.0 3.6 20.8 5.6 20.5 7.6C22.2 7.0 24.4 7.4 26.0 8.4Z"
          fill="#9AA4B2"/>
    <path d="M7.1 7.7C6.7 5.8 7.5 4.7 8.5 4.7C9.5 4.7 10.0 5.9 10.2 7.1C9.1 6.8 7.9 7.05 7.1 7.7Z" fill="#454C5A"/>
    <path d="M24.9 7.7C25.3 5.8 24.5 4.7 23.5 4.7C22.5 4.7 22.0 5.9 21.8 7.1C22.9 6.8 24.1 7.05 24.9 7.7Z"
          fill="#454C5A"/>
    <path d="M16 6.4C21.4 6.4 24.9 9.7 24.9 14.6C24.9 18.9 22.9 22.4 19.5 24.7C18.45 25.4 17.25 25.8 16 25.8C14.75 25.8 13.55 25.4 12.5 24.7C9.1 22.4 7.1 18.9 7.1 14.6C7.1 9.7 10.6 6.4 16 6.4Z"
          fill="url(#gFur)"/>
    <path d="M8.6 12.8C9.6 11.0 12.0 10.6 13.7 11.8C14.3 12.2 15.2 12.4 16 12.4C16.8 12.4 17.7 12.2 18.3 11.8C20.0 10.6 22.4 11.0 23.4 12.8C24.2 14.3 23.9 16.2 22.7 17.6C21.4 19.1 19.4 18.8 18.5 17.3C17.9 16.4 17.0 16.0 16 16.0C15.0 16.0 14.1 16.4 13.5 17.3C12.6 18.8 10.6 19.1 9.3 17.6C8.1 16.2 7.8 14.3 8.6 12.8Z"
          fill="#20232F"/>
    <path d="M16 15.6C17.7 15.6 19.1 16.9 19.5 19.0C19.9 21.1 18.8 23.5 16 25.1C13.2 23.5 12.1 21.1 12.5 19.0C12.9 16.9 14.3 15.6 16 15.6Z"
          fill="#EEF1F6"/>
    <ellipse cx="12.4" cy="14.2" rx="1.75" ry="2.05" fill="white"/>
    <ellipse cx="19.6" cy="14.2" rx="1.75" ry="2.05" fill="white"/>
    <circle cx="12.6" cy="14.45" r="1.0" fill="#15161F"/>
    <circle cx="19.4" cy="14.45" r="1.0" fill="#15161F"/>
    <circle cx="12.15" cy="13.7" r="0.42" fill="white"/>
    <circle cx="18.95" cy="13.7" r="0.42" fill="white"/>
    <path d="M16 16.4C17.45 16.4 18.05 17.25 17.75 17.95C17.5 18.55 16.8 19.15 16 19.15C15.2 19.15 14.5 18.55 14.25 17.95C13.95 17.25 14.55 16.4 16 16.4Z"
          fill="#15161F"/>
    <path d="M16 19.15L16 20.5" stroke="#15161F" stroke-width="0.9" stroke-linecap="round"/>
    <path d="M13.3 20.7C14.3 21.7 15.4 21.3 16 20.5C16.6 21.3 17.7 21.7 18.7 20.7" stroke="#15161F" stroke-width="0.9"
          stroke-linecap="round" stroke-linejoin="round" fill="none"/>
  </g>
  <defs>
    <linearGradient id="gFur" x1="16" y1="5.5" x2="16" y2="26.5" gradientUnits="userSpaceOnUse">
      <stop stop-color="#B7C0CC"/>
      <stop offset="1" stop-color="#828D9C"/>
    </linearGradient>
    <clipPath id="clip0_rac">
      <rect width="32" height="32" rx="7" fill="white"/>
    </clipPath>
  </defs>
</svg>

