<svg width="32" height="32" viewBox="0 0 32 32" fill="none" xmlns="http://www.w3.org/2000/svg">
<g clip-path="url(#clip0_3644_50262)">
<rect width="32" height="32" rx="7" fill="#5DB7FD"/>
<path d="M24.7764 0.505198L24.1683 -2.23996C24.1284 -2.42014 23.8716 -2.42014 23.8317 -2.23995L23.2236 0.505198C22.6812 5.07668 19.077 8.68095 14.5055 9.22337L11.7601 9.8314C11.5799 9.8713 11.5799 10.1282 11.7601 10.1681L14.5055 10.7761C19.077 11.3185 22.6812 14.9228 23.2236 19.4942L23.8317 22.2398C23.8716 22.42 24.1284 22.42 24.1683 22.2398L24.7764 19.4942C25.3188 14.9228 28.9231 11.3185 33.4945 10.7761L36.2399 10.1683C36.4201 10.1284 36.4201 9.87152 36.2399 9.8316L33.4945 9.22337C28.9231 8.68095 25.3188 5.07668 24.7764 0.505198Z" fill="#77C3FE"/>
<path d="M9.00156 15.0245L11.5181 14.9101C11.9824 14.889 12.4183 15.1336 12.6422 15.5408L14.8188 19.4996C14.9703 19.7752 15.1813 20.0136 15.4364 20.1975L18.1951 22.186C18.503 22.4079 18.6277 22.8063 18.5014 23.1642L18.3506 23.5916C18.2966 23.7445 18.2003 23.8789 18.0728 23.9792L16.3296 25.3497C16.0332 25.5828 15.6191 25.5942 15.3104 25.3777L11.6624 22.8209L9.00156 15.0245Z" fill="#333333"/>
<path d="M12.6115 25.5376V35.6725L4.85233 35.6417L6.38065 28.6003L12.6115 25.5376Z" fill="#525252"/>
<path d="M15.4584 29.1474L12.872 25.2771L12.356 17.8191L12.35 17.639C12.3462 17.5245 12.336 17.4115 12.3201 17.3004C12.229 16.6647 11.9447 16.0906 11.5273 15.6408C11.0108 15.0841 10.2908 14.7178 9.48135 14.6605L9.36534 14.6523L6.47281 14.4475C6.12679 14.423 5.77913 14.4569 5.4444 14.548L1.86909 15.52L0.208251 15.9716C-0.495141 16.1628 -1.08498 16.5877 -1.48817 17.1479C-1.71178 17.4586 -1.878 17.8108 -1.97425 18.1881C-2.04264 18.4561 -2.07577 18.7367 -2.06907 19.0239L-1.97489 23.0619C-1.97471 23.4828 -1.97438 23.7448 -1.97383 23.7433C-1.97105 23.7352 -3 31.0825 -3 31.0825L5.95008 34.4727L7.45857 28.0704L10.3702 26.6392L10.3972 27.696L11.2904 34.0334L16.3329 33.7992L15.4584 29.1474Z" fill="#474747"/>
<path d="M10.3699 26.6392L10.1191 16.8168C10.1125 16.5566 10.0381 16.307 9.90827 16.0901C9.7944 15.8997 9.6379 15.7345 9.44702 15.6093L9.09442 15.378L9.36506 14.6523L6.47252 14.4475C6.12651 14.423 5.77884 14.4569 5.44411 14.548L1.8688 15.52L2.07847 15.6441C2.56039 15.9293 3.12626 16.0386 3.67973 15.9534L6.12062 15.5779C6.32714 15.5461 6.53558 15.6221 6.67329 15.7792L7.1407 16.3126C7.26261 16.4517 7.35826 16.6098 7.42508 16.7793C7.49441 16.9551 7.53268 17.1431 7.53629 17.3349L7.71748 26.9703L7.45829 28.0704L10.3699 26.6392Z" fill="#FEFAF1"/>
<path d="M9.90887 16.0901L7.42569 16.7793C7.49501 16.9551 7.53329 17.1431 7.5369 17.3349L7.71809 26.9703L7.4589 28.0704L10.3705 26.6392L10.1197 16.8168C10.1131 16.5566 10.0387 16.307 9.90887 16.0901Z" fill="#EDE9E1"/>
<path d="M12.3496 17.639C12.3458 17.5245 12.3356 17.4115 12.3197 17.3004L12.3556 17.819L12.3496 17.639Z" fill="#EDE9E1"/>
<path d="M9.44701 15.6093L9.09442 15.378L9.36506 14.6523L6.47252 14.4475C6.12651 14.423 5.77884 14.4569 5.44411 14.548L1.8688 15.52L2.07847 15.6441C2.56039 15.9293 3.12626 16.0386 3.67972 15.9534L6.12061 15.5779C6.32714 15.5461 6.53558 15.6221 6.67329 15.7792L7.1407 16.3126C7.26261 16.4517 7.35826 16.6098 7.42508 16.7793L9.90827 16.0901C9.7944 15.8997 9.6379 15.7345 9.44701 15.6093Z" fill="#FEFAF1"/>
<path d="M7.53657 17.335C7.53297 17.1431 7.49469 16.9551 7.42537 16.7793L2.95431 18.0203L-1.48817 17.1479C-1.71178 17.4586 -1.878 17.8109 -1.97425 18.1881C-1.97473 19.5859 -1.97537 21.9147 -1.97489 23.062C-1.97471 23.4829 -1.97438 23.7449 -1.97383 23.7433C-1.97105 23.7353 -3 31.0826 -3 31.0826L5.95008 34.4728L7.45857 28.0705L7.71777 26.9704L7.53657 17.335Z" fill="#3B3B3B"/>
<path d="M6.67285 15.7792C6.53514 15.622 6.3267 15.5461 6.12018 15.5779L3.67929 15.9534C3.12582 16.0386 2.55996 15.9292 2.07803 15.6441L1.86837 15.52L0.207528 15.9716C-0.495863 16.1628 -1.0857 16.5877 -1.48889 17.1479L2.95359 18.0202L7.42464 16.7793C7.35782 16.6098 7.26217 16.4517 7.14026 16.3125L6.67285 15.7792Z" fill="#474747"/>
<path d="M15.4581 29.1474L12.8717 25.2771L12.3557 17.819L12.3198 17.3004C12.2287 16.6646 11.9444 16.0905 11.527 15.6407L9.90823 16.09C10.038 16.307 10.1124 16.5566 10.1191 16.8167L10.3699 26.6392L10.3969 27.696L11.29 34.0333L16.3326 33.7992L15.4581 29.1474Z" fill="#3B3B3B"/>
<path d="M9.48086 14.6605L9.36485 14.6523L9.09421 15.378L9.44681 15.6093C9.63769 15.7345 9.79419 15.8997 9.90806 16.0901L11.5268 15.6408C11.0103 15.0841 10.2903 14.7178 9.48086 14.6605Z" fill="#474747"/>
<path d="M9.80166 11.6921V14.5136C9.80166 15.3913 9.09012 16.1028 8.2124 16.1028H3.27816C2.40044 16.1028 1.6889 15.3913 1.6889 14.5136V11.5449C1.6889 10.6486 2.42965 9.92965 3.32553 9.95636L8.25978 10.1035C9.11867 10.1291 9.80166 10.8328 9.80166 11.6921Z" fill="#FCD9B9"/>
<path d="M7.1409 6.7257L8.77834 6.81873L10.6205 8.23288H11.2L11.5694 7.91656V8.40575L11.1229 8.64224L11.5694 9.40766L11.0112 9.01439L11.6625 10.2983V11.083L11.4764 10.503L11.1415 10.3355L11.588 11.6008C11.588 11.6008 11.067 13.0522 11.067 12.9963C11.067 12.9405 11.1042 12.066 11.1042 12.066L10.8251 11.6752L9.80174 13.1452L9.9506 11.9543L8.90859 13.5918L9.05745 12.1776L7.92241 13.1638L8.77834 11.4519L8.6667 9.79589L8.18291 11.7496L6.11751 13.4987L6.56408 11.9543L5.63372 13.0894L4.294 13.8151L5.336 12.1962L4.62893 10.5588L4.85221 11.6194L5.13132 12.3265L3.94046 11.9543L3.0287 10.3355V11.8057L3.84742 13.1266L2.56352 12.3451L2.15416 11.6938V12.6105L2.43327 13.5546L1.44709 12.5498L1.07495 11.5078L0.944695 12.3265L1.24241 12.9033L0.516728 12.3637L0.0887618 10.8937L-0.208954 10.0564L0.423692 8.36313L1.16798 7.91656L0.665586 7.60024L1.63316 7.52581L2.37745 7.11645L1.18659 6.89316L3.25199 6.57684L3.94046 6.24191L4.44285 6.35355L5.5965 6.00002L6.80597 6.27912L7.1409 6.7257Z" fill="#84524B"/>
<path d="M5.98745 9.60982L5.0943 7.73049L5.59669 6.00002L6.80617 6.27912L5.72694 7.65125L5.98745 9.60982Z" fill="#6B433D"/>
<path d="M5.24295 8.84695L4.62891 7.61888L5.00105 6.83737L4.36841 7.73052L5.24295 8.84695Z" fill="#6B433D"/>
<path d="M4.85222 6.48383L2.82404 8.13987V9.66736L4.07072 10.6891L3.5125 9.05162L4.85222 6.48383Z" fill="#6B433D"/>
<path d="M2.3779 7.11646L3.56876 7.00482L4.59695 6.69261L3.69765 7.4269L2.82447 7.40819L2.3779 7.11646Z" fill="#6B433D"/>
<path d="M2.43397 13.5545L1.72689 12.4567L1.39196 10.168L1.91296 8.5663L0.908173 10.0749L1.07564 11.5077L1.44778 12.5497L2.43397 13.5545Z" fill="#6B433D"/>
<path d="M7.17834 7.63744L8.0901 9.47955L10.0997 10.7448L8.36921 9.38651L7.17834 7.63744Z" fill="#6B433D"/>
<path opacity="0.34" d="M15.3653 24.6053L16.3329 23.007L19.31 21.0347L19.4961 18.9506L22.2872 17.9831C22.2872 17.9831 21.8778 19.0623 21.9895 19.0623C22.1011 19.0623 24.5201 17.5365 24.5201 17.5365L24.8789 15.8356L26.1947 15.9363L28.9858 14.0756L30.0296 13.0335L31.4047 12.8103L32.0002 12.587L31.1442 13.8151L31.628 15.0431L30.1022 15.0803L26.597 19.0002L25.4504 19.0995L22.9943 22.3L21.8406 22.2255L20.1672 23.956L18.4541 24.4956L16.9097 26.094L15.3653 24.6053Z" fill="#BF39E7"/>
<path d="M15.6449 23.956L14.8076 24.4398L16.0171 25.6306L16.9102 25.2213L15.6449 23.956Z" fill="#E0CB67"/>
<path d="M14.8068 24.4398L16.6117 26.2261L16.6884 26.8878L16.3039 27.0448L15.4953 26.5238L13.802 24.4956L14.3974 24.2351L14.8068 24.4398Z" fill="#E0CB67"/>
<path d="M14.0297 24.7375L12.8909 25.6678L14.826 26.7843L15.3656 26.3377L14.0297 24.7375Z" fill="#E0CB67"/>
<path d="M7.14056 6.72566L9.22457 8.1212C9.22457 8.1212 10.4154 10.0191 10.434 9.98193C10.4527 9.94471 9.91304 7.97235 9.91304 7.97235L8.778 6.8187L7.14056 6.72566Z" fill="#6B433D"/>
<path opacity="0.37" d="M15.8483 24.1595L17.2212 22.9787L18.532 22.1376L19.3105 21.0347L21.0037 19.788L21.1712 20.0671L22.7528 19.0065L24.9484 17.3504L25.2462 16.4759L26.1651 16.6858L27.5535 15.3595C27.5535 15.3595 27.8153 14.1396 27.8425 14.089C27.8698 14.0384 28.9862 14.0756 28.9862 14.0756L28.9341 14.451L29.7041 13.3589L30.4293 13.8151L29.6189 15.099L29.0048 15.3036L28.2334 17.1707L27.6093 17.0155L26.8665 17.4821L24.7571 19.4016L24.6321 21.1091L23.7586 20.3075C23.7586 20.3075 22.7981 21.074 22.7196 21.1287C22.6411 21.1835 21.0781 22.5977 21.0781 22.5977C21.0781 22.5977 19.7756 24.3654 19.6826 24.3654C19.5896 24.3654 18.8922 23.956 18.8922 23.956C18.8922 23.956 17.978 24.5673 17.9093 24.5966C17.8405 24.6259 15.8483 24.1595 15.8483 24.1595Z" fill="#BF39E7"/>
<path d="M11.0674 12.9963L11.2907 11.6008L10.3603 10.1308L10.2487 11.731L9.80209 13.1452L10.8255 11.6752L11.1046 12.066L11.0674 12.9963Z" fill="#6B433D"/>
<path d="M14.5448 26.0952L13.7898 25.5659L11.2996 23.8201L11.2161 23.7616L10.0063 22.9134L8.57379 21.9092L8.13538 21.5176L7.41149 20.8709L5.95017 19.5655L5.09424 18.8009L4.41213 18.1916C4.34458 18.1313 4.27072 18.0789 4.19222 18.0346C4.12362 17.996 4.05152 17.9635 3.97651 17.9382L3.07072 17.6333C2.65234 17.4925 2.19073 17.5818 1.85514 17.8686L-0.632991 19.9951C-0.746263 20.0919 -0.841386 20.2081 -0.913907 20.3383L-1.81437 21.9545C-1.91665 22.1381 -1.96852 22.3391 -1.97256 22.5397C-1.97259 22.5414 -1.97262 22.5432 -1.97265 22.5449C-1.97766 22.8591 -1.86499 23.1717 -1.64228 23.4142L1.31697 26.6354L5.68292 30.393C5.79763 30.4917 5.93282 30.5638 6.07873 30.604L6.83686 30.8128L9.56506 31.5643C9.68352 31.5969 9.80494 31.6071 9.92394 31.5969C10.1399 31.5785 10.3478 31.492 10.5149 31.3442L14.6353 27.6998C15.131 27.2614 15.0866 26.475 14.5448 26.0952Z" fill="#474747"/>
<path d="M2.14621 24.5424L4.23888 23.1931L2.40182 24.8278L3.51334 26.069L4.63485 24.9236L3.7602 26.3447L3.90394 26.5052L8.36995 30.2822L13.7904 25.566L11.3001 23.8201L11.6632 24.0746L6.38124 28.6003L6.09421 28.3576L11.2167 23.7616L10.0068 22.9135L8.64879 24.3095L9.70287 22.7465L10.0068 22.9135L8.57436 21.9092L8.13595 21.5176L7.43932 22.1883L5.72745 23.1879L7.17882 21.7954L7.41206 20.8709L5.95074 19.5656L5.39252 20.6811L4.01847 21.6673L4.85291 20.4484L5.09481 18.801L4.4127 18.1917C4.34515 18.1313 4.27129 18.0789 4.19279 18.0347L-1.97199 22.5397C-1.97202 22.5414 -1.97205 22.5432 -1.97208 22.5449L-0.561791 21.5185L2.14621 24.5424ZM6.80667 26.7036L5.64177 27.9749L5.38691 27.7594L6.80667 26.7036Z" fill="#333333"/>
<path d="M-1.64243 23.4142L1.31681 26.6354L5.68277 30.393C5.79748 30.4918 5.93266 30.5638 6.07858 30.604L6.8367 30.8128L8.36896 30.2825L8.36922 30.2822L3.90322 26.5052L3.75947 26.3447L3.75943 26.3447L3.51247 26.0692L3.51261 26.069L2.4011 24.8278L2.40051 24.8283L2.1447 24.5429L2.14548 24.5424L-0.562516 21.5185L-1.9728 22.5449C-1.97781 22.8591 -1.86514 23.1718 -1.64243 23.4142Z" fill="#292929"/>
<path d="M3.97681 17.9382L3.07102 17.6333C2.65264 17.4925 2.19102 17.5818 1.85544 17.8686L-0.632693 19.9951C-0.745964 20.0919 -0.841088 20.2081 -0.913609 20.3383L-1.81407 21.9545C-1.91635 22.1381 -1.96822 22.3391 -1.97226 22.5397L4.19252 18.0346C4.12392 17.996 4.05182 17.9635 3.97681 17.9382Z" fill="#474747"/>
<path d="M9.92364 31.597C10.1396 31.5785 10.3475 31.492 10.5146 31.3443L14.635 27.6998C15.1307 27.2614 15.0863 26.4751 14.5445 26.0952L13.7895 25.5659L8.36908 30.2822L9.92364 31.597Z" fill="#FCD9B9"/>
<path d="M14.5443 26.0952L13.7894 25.5659L8.36891 30.2822L8.36865 30.2825L6.8364 30.8128L9.5646 31.5643C9.68306 31.597 9.80448 31.6071 9.92348 31.597C10.1395 31.5785 10.3474 31.492 10.5144 31.3443L14.6349 27.6998C15.1305 27.2614 15.0861 26.4751 14.5443 26.0952Z" fill="#FCD9B9"/>
<path d="M8.36865 30.2825L6.8364 30.8128L9.5646 31.5643C9.68306 31.597 9.80448 31.6071 9.92348 31.597L8.36891 30.2822L8.36865 30.2825Z" fill="#CCA178"/>
<path d="M5.72647 23.1879L7.43834 22.1883L8.13497 21.5176L7.41108 20.871L7.17784 21.7954L5.72647 23.1879Z" fill="#474747"/>
<path d="M4.01749 21.6673L5.39154 20.6811L5.94976 19.5655L5.09383 18.8009L4.85194 20.4484L4.01749 21.6673Z" fill="#474747"/>
<path d="M2.14569 24.5424L2.40131 24.8278L4.23836 23.1931L2.14569 24.5424Z" fill="#474747"/>
<path d="M2.14478 24.5428L2.40059 24.8283L2.40118 24.8278L2.14556 24.5423L2.14478 24.5428Z" fill="#636363"/>
<path d="M3.51288 26.069L3.75974 26.3447L4.63439 24.9236L3.51288 26.069Z" fill="#474747"/>
<path d="M3.51298 26.069L3.51288 26.0691L3.75984 26.3447L3.75995 26.3446L3.51298 26.069Z" fill="#636363"/>
<path d="M11.2159 23.7616L11.2994 23.8201L11.2159 23.7616Z" fill="#636363"/>
<path d="M6.38047 28.6003L11.6624 24.0746L11.2994 23.8201L11.2159 23.7616L6.09344 28.3576L6.38047 28.6003Z" fill="#474747"/>
<path d="M6.80624 26.7035L5.38647 27.7594L5.64133 27.9749L6.80624 26.7035Z" fill="#474747"/>
<path d="M8.64792 24.3095L10.006 22.9134H10.006L9.702 22.7465L8.64792 24.3095Z" fill="#474747"/>
<path d="M30.4709 13.1452C28.1265 15.1747 25.4961 17.2786 22.5669 19.3786C20.181 21.0891 17.8606 22.6081 15.645 23.956L16.9103 25.2213C17.5224 24.8465 18.1367 24.456 18.7524 24.049C23.6289 20.8254 27.8473 16.6731 31.1448 13.0336L30.4709 13.1452Z" fill="#BABABA"/>
<path d="M16.039 24.3505L25.8226 17.6295L16.6121 24.9236L16.039 24.3505Z" fill="#858585"/>
</g>
<defs>
<clipPath id="clip0_3644_50262">
<rect width="32" height="32" rx="7" fill="white"/>
</clipPath>
</defs>
</svg>
