<svg width="32" height="32" viewBox="0 0 32 32" fill="none" xmlns="http://www.w3.org/2000/svg">
<g clip-path="url(#clip0_1537_394186)">
<rect width="32" height="32" rx="7" fill="#029663"/>
<path d="M24.7764 0.505198L24.1683 -2.23996C24.1284 -2.42014 23.8716 -2.42014 23.8317 -2.23995L23.2236 0.505198C22.6812 5.07668 19.077 8.68095 14.5055 9.22337L11.7601 9.8314C11.5799 9.8713 11.5799 10.1282 11.7601 10.1681L14.5055 10.7761C19.077 11.3185 22.6812 14.9228 23.2236 19.4942L23.8317 22.2398C23.8716 22.42 24.1284 22.42 24.1683 22.2398L24.7764 19.4942C25.3188 14.9228 28.9231 11.3185 33.4945 10.7761L36.2399 10.1683C36.4201 10.1284 36.4201 9.87152 36.2399 9.8316L33.4945 9.22337C28.9231 8.68095 25.3188 5.07668 24.7764 0.505198Z" fill="#18B17C"/>
<g clip-path="url(#clip1_1537_394186)">
<path d="M14.963 6.75003L18.1233 2.73222L19.7298 2.44025L20.1741 2.53941L22.1768 11.2749L13.9524 10.3769L13.9736 9.06919L15.6695 8.57869L14.963 6.75003ZM18.6758 8.83069L20.2893 9.46545L19.7014 3.7647L18.1303 3.84145L18.6758 8.83069Z" fill="#FF4A4B"/>
<path d="M17.7411 1.99697L19.7297 2.44089L18.1232 2.73286L14.9629 6.75067L15.6694 8.57933L13.9735 9.06983L14.0042 7.17241L17.7411 1.99697Z" fill="#FF4A4B"/>
<path d="M17.7411 1.99697L19.7297 2.44089L18.1232 2.73286L14.9629 6.75067L15.6694 8.57933L13.9735 9.06983L14.0042 7.17241L17.7411 1.99697Z" fill="url(#paint0_radial_1537_394186)"/>
<path d="M19.7014 3.76483L20.2893 9.46558L18.6757 8.83082L18.1302 3.84159L19.7014 3.76483Z" fill="#FE7271"/>
<path d="M16.0064 8.01675C15.9899 7.97398 15.6579 6.59362 15.6579 6.59362L18.1301 3.84193L19.4856 4.19085L19.7078 8.78168L16.0064 8.01675Z" fill="#FFA6A6"/>
<path d="M-1.19036 9.41746L0.281585 7.55998L6.66 9.66214L8.00222 11.7632L2.00479 18.7306L2.02717 18.1621L-1.19036 9.41746ZM4.53698 9.8047L0.928095 8.85311L-0.254575 10.1973L4.44402 13.3498L6.65298 12.7108L4.53698 9.8047Z" fill="#FF4A4B"/>
<path d="M-0.254658 10.1973L0.928012 8.85311L4.5369 9.80469L6.6529 12.7108L4.44394 13.3498L-0.254658 10.1973Z" fill="#FE7271"/>
<path d="M-1.91327 9.16532L0.280455 7.55994L0.281313 7.56022L-1.19063 9.4177L2.0269 18.1623L2.00452 18.7309L0.901382 20.0124L-1.91327 9.16532Z" fill="#FF4A4B"/>
<path d="M-1.91327 9.16532L0.280455 7.55994L0.281313 7.56022L-1.19063 9.4177L2.0269 18.1623L2.00452 18.7309L0.901382 20.0124L-1.91327 9.16532Z" fill="url(#paint1_radial_1537_394186)"/>
<path d="M5.58452 12.851L3.97393 10.2034L0.905105 9.24097L-0.254348 10.1965L2.0444 15.9834L5.58452 12.851Z" fill="#FFA6A6"/>
<path d="M-9.21704 18.8634L-7.17954 13.0597L8.26503 26.0215L6.95305 19.0099L8.37901 19.9678C8.81087 20.2579 9.14792 20.6689 9.34791 21.1492L10.5418 24.0162C10.895 24.8645 10.783 25.8341 10.2459 26.5767L6.15469 32.2335C5.30186 33.4127 3.653 33.6738 2.47187 32.8167L-5.79505 26.8182L-8.6017 22.9891C-9.47487 21.7978 -9.70516 20.2538 -9.21704 18.8634Z" fill="#FF4A4B"/>
<path d="M-12.7927 18.4855L-8.74057 12.8828C-8.1825 12.1111 -7.25084 11.7022 -6.30365 11.813L-3.86042 12.0989C-3.44281 12.1477 -3.04259 12.2957 -2.69313 12.5305L6.95289 19.0103L8.26488 26.0219L-7.17969 13.06L-9.2172 18.8637C-9.70532 20.2541 -9.47502 21.7981 -8.60185 22.9894L-5.79521 26.8185L-12.1983 22.1724C-13.3794 21.3154 -13.6455 19.6647 -12.7927 18.4855Z" fill="#FF4A4B"/>
<path d="M-12.7927 18.4855L-8.74057 12.8828C-8.1825 12.1111 -7.25084 11.7022 -6.30365 11.813L-3.86042 12.0989C-3.44281 12.1477 -3.04259 12.2957 -2.69313 12.5305L6.95289 19.0103L8.26488 26.0219L-7.17969 13.06L-9.2172 18.8637C-9.70532 20.2541 -9.47502 21.7981 -8.60185 22.9894L-5.79521 26.8185L-12.1983 22.1724C-13.3794 21.3154 -13.6455 19.6647 -12.7927 18.4855Z" fill="url(#paint2_radial_1537_394186)"/>
<path d="M12.4621 8.68106L16.7553 8.44056C18.3027 8.35388 19.7545 9.20276 20.4409 10.5956L23.9697 17.7561L19.5129 19.9249L8.70807 24.9377L2.72766 13.6468C3.03266 13.3699 3.37754 13.1343 3.75457 12.9495L12.4621 8.68106Z" fill="#FF4A4B"/>
<path d="M9.55167 26.5289L8.70843 24.9369L19.5133 19.9241L24.4809 18.2988L26.6071 20.4618C26.7212 20.8779 26.7732 21.3038 26.7648 21.7263L13.2762 27.8102C11.8945 28.4334 10.2632 27.8723 9.55167 26.5289Z" fill="#FFA6A6"/>
<path d="M8.7082 24.9375L5.29809 29.1099L1.13689 21.1094C0.59984 20.0769 0.487462 18.8763 0.82382 17.7646L1.46548 15.6439C1.70013 14.8683 2.13973 14.1805 2.72779 13.6466L8.7082 24.9375Z" fill="url(#paint3_radial_1537_394186)"/>
<path d="M8.70848 24.9374L9.55172 26.5294C10.2632 27.8727 11.8945 28.4339 13.2763 27.8107L26.7649 21.7268C26.7417 22.8926 26.2611 24.0324 25.3726 24.8692L21.7183 28.3108C21.3524 28.6555 20.9304 28.9352 20.4705 29.1382L11.9586 32.8941C9.81349 33.8406 7.29735 32.953 6.21238 30.867L5.29837 29.1097L8.70848 24.9374Z" fill="url(#paint4_radial_1537_394186)"/>
<path d="M21.2264 9.34376L25.0934 17.2039L20.2463 19.5843L19.5132 19.9245L23.97 17.7556L20.4411 10.5952C19.7547 9.20236 18.3029 8.35347 16.7555 8.44015L12.4623 8.68065L15.2735 7.30257C17.4756 6.22314 20.1407 7.13702 21.2264 9.34376Z" fill="#FE7271"/>
<path d="M19.5136 19.9237L20.2468 19.5836L25.0939 17.2032L26.3077 19.6705C26.4343 19.9277 26.5337 20.1926 26.6074 20.4614L25.5227 19.3579C24.8848 18.7091 23.9356 18.477 23.0732 18.7592L19.5136 19.9237Z" fill="#FFBABA"/>
<path d="M8.87674 17.8611L13.0813 19.7661L12.4117 21.254L8.20713 19.3491L8.87674 17.8611Z" fill="#0A0A1D"/>
<path d="M11.6934 15.4225L12.479 15.901C12.6649 16.0143 12.7244 16.2566 12.6118 16.4423C12.4992 16.628 12.2572 16.6868 12.0712 16.5735L11.2856 16.0951C11.0997 15.9818 11.0402 15.7394 11.1528 15.5537C11.2654 15.368 11.5074 15.3093 11.6934 15.4225Z" fill="#FFA6A6"/>
<path d="M22.3407 13.6204L20.4719 17.8314L18.9793 17.1645L20.8481 12.9535L22.3407 13.6204Z" fill="#0A0A1D"/>
<path d="M15.8097 22.9324L15.5682 22.3716L20.3564 20.2495L20.5401 20.5764C20.7401 20.9323 20.7675 21.3596 20.6146 21.7372L20.3987 22.2702L17.0233 23.8206L16.3298 23.4795C16.0969 23.3649 15.9124 23.1708 15.8097 22.9324Z" fill="#FFA6A6"/>
<path d="M19.1742 19.4383C19.6373 19.4592 20.0575 19.7182 20.285 20.1231L20.3562 20.2498L15.568 22.3719L15.5406 22.3084C15.3807 21.937 15.4397 21.5081 15.6938 21.1951L16.1543 20.6276L18.7824 19.4205L18.7822 19.4206L19.1742 19.4383Z" fill="#FF4A4B"/>
<path d="M17.8718 13.2323L17.6044 14.1106C17.5411 14.3185 17.3212 14.4352 17.1132 14.3712L17.1132 14.3712C16.9052 14.3072 16.788 14.0868 16.8513 13.8789L17.1187 13.0006C17.182 12.7927 17.4019 12.6761 17.6099 12.74C17.8178 12.804 17.9351 13.0244 17.8718 13.2323Z" fill="#FFA6A6"/>
<path d="M14.3015 23.5823L14.0671 23.0741C14.0623 23.0637 14.0581 23.0531 14.0536 23.0427L15.5684 22.3713L15.8099 22.9321C15.9126 23.1706 16.0971 23.3646 16.33 23.4792L17.0234 23.8203L16.0935 24.2475C15.4166 24.5583 14.6144 24.2605 14.3015 23.5823Z" fill="url(#paint5_radial_1537_394186)"/>
<path d="M18.8415 20.2205L18.9778 20.516C19.0584 20.6908 18.9824 20.8975 18.8079 20.9776L17.2482 21.694C17.0737 21.7741 16.867 21.6974 16.7864 21.5226L16.65 21.227C16.5694 21.0522 16.6455 20.8456 16.8199 20.7654L18.3797 20.049C18.5541 19.9689 18.7609 20.0457 18.8415 20.2205Z" fill="#0A0A1D"/>
<path d="M15.5408 22.3082L15.5682 22.3717L14.0534 23.0431C13.7637 22.3716 14.0596 21.5896 14.7261 21.2835L16.1545 20.6274L15.6939 21.1949C15.4398 21.5079 15.3808 21.9368 15.5408 22.3082Z" fill="url(#paint6_radial_1537_394186)"/>
<path d="M20.5396 20.577L20.3559 20.2502L20.9587 19.983L21.1651 20.4304C21.4779 21.1086 21.1828 21.9105 20.5059 22.2214L20.3982 22.2708L20.6141 21.7378C20.7671 21.3602 20.7396 20.933 20.5396 20.577Z" fill="#FFBABA"/>
<path d="M20.931 19.9218L20.959 19.9826L20.3562 20.2498L20.285 20.123C20.0575 19.7182 19.6373 19.4592 19.1742 19.4383L18.7822 19.4206L18.7824 19.4205L19.139 19.2567C19.8159 18.9458 20.6181 19.2436 20.931 19.9218Z" fill="#FE7271"/>
<path d="M17.9914 20.8104L18.5838 22.0949C18.6271 22.1886 18.5863 22.2995 18.4927 22.3425L18.4927 22.3425C18.3991 22.3855 18.2882 22.3443 18.2449 22.2505L17.6525 20.9661C17.6093 20.8723 17.6501 20.7615 17.7437 20.7185L17.7437 20.7185C17.8372 20.6755 17.9482 20.7167 17.9914 20.8104Z" fill="#0A0A1D"/>
<path d="M1.29041 33.2662L0.950335 33.6002C0.559672 33.9838 -0.0593148 34.0066 -0.479402 33.6528L-2.16523 32.2331C-2.27513 32.1406 -2.36527 32.0268 -2.43021 31.8986L-3.06315 30.6495C-3.19323 30.3928 -3.21417 30.0947 -3.12122 29.823L-2.79227 28.8615C-2.53951 28.1227 -1.60288 27.9018 -1.0434 28.4491L1.02586 30.4731C1.17835 30.6223 1.28275 30.8137 1.32553 31.0225L1.58617 32.2948C1.65859 32.6484 1.54727 33.014 1.29041 33.2662Z" fill="#FF4A4B"/>
<path d="M-1.06554 31.7499L0.329834 32.8896L-2.13815 35.9187L-3.53352 34.7789L-1.06554 31.7499Z" fill="#0A0A1D"/>
<path d="M-0.769039 31.7822L-2.5414 28.1055C-2.47953 27.9138 -2.36423 27.7393 -2.20238 27.606L-1.79081 27.2668C-1.56883 27.0838 -1.28267 26.9975 -0.996075 27.0271L2.6939 27.4078C3.16672 27.4566 3.55293 27.809 3.64496 28.2758L4.52441 32.7363L0.953575 32.8639L-0.769039 31.7822Z" fill="#FF4A4B"/>
<path d="M3.43191 34.2236L0.759429 34.0313C0.528697 34.0147 0.309175 33.9243 0.133234 33.7736L-1.29866 32.5467C-1.46181 32.4069 -1.57977 32.2217 -1.63747 32.0148L-2.55436 28.7278C-2.61253 28.5192 -2.60547 28.3035 -2.54177 28.1061L-0.769406 31.7828L0.953208 32.8645L4.52404 32.7368L4.56432 32.9411C4.70185 33.6387 4.14038 34.2745 3.43191 34.2236Z" fill="#FF4A4B"/>
<path d="M3.43191 34.2236L0.759429 34.0313C0.528697 34.0147 0.309175 33.9243 0.133234 33.7736L-1.29866 32.5467C-1.46181 32.4069 -1.57977 32.2217 -1.63747 32.0148L-2.55436 28.7278C-2.61253 28.5192 -2.60547 28.3035 -2.54177 28.1061L-0.769406 31.7828L0.953208 32.8645L4.52404 32.7368L4.56432 32.9411C4.70185 33.6387 4.14038 34.2745 3.43191 34.2236Z" fill="url(#paint7_radial_1537_394186)"/>
<path d="M3.91636 32.7582C3.88769 32.7593 3.67015 28.1031 3.67015 28.1031L4.52392 32.7365L3.91636 32.7582Z" fill="#FE7271"/>
<path d="M20.865 13.6699L21.4583 14.0814L21.0488 14.6738L20.4555 14.2623L20.865 13.6699Z" fill="white"/>
<path d="M20.8968 14.8931L21.207 15.1268L20.9744 15.4365L20.6641 15.2028L20.8968 14.8931Z" fill="white"/>
<path d="M9.14354 18.4791L9.86084 18.4098L9.93237 19.1277L9.21507 19.1971L9.14354 18.4791Z" fill="white"/>
<path d="M9.9586 19.3938L10.3457 19.3717L10.369 19.7591L9.98187 19.7812L9.9586 19.3938Z" fill="white"/>
</g>
</g>
<defs>
<radialGradient id="paint0_radial_1537_394186" cx="0" cy="0" r="1" gradientUnits="userSpaceOnUse" gradientTransform="translate(16.739 5.81044) rotate(-129.493) scale(8.73874 8.71092)">
<stop stop-color="#F92F3E"/>
<stop offset="1" stop-color="#3C257B"/>
</radialGradient>
<radialGradient id="paint1_radial_1537_394186" cx="0" cy="0" r="1" gradientUnits="userSpaceOnUse" gradientTransform="translate(0.283361 14.3503) rotate(-129.493) scale(12.7271 12.6866)">
<stop stop-color="#F92F3E"/>
<stop offset="1" stop-color="#3C257B"/>
</radialGradient>
<radialGradient id="paint2_radial_1537_394186" cx="0" cy="0" r="1" gradientUnits="userSpaceOnUse" gradientTransform="translate(-5.19487 19.4434) rotate(-129.493) scale(20.4461 20.381)">
<stop stop-color="#F92F3E"/>
<stop offset="1" stop-color="#3C257B"/>
</radialGradient>
<radialGradient id="paint3_radial_1537_394186" cx="0" cy="0" r="1" gradientUnits="userSpaceOnUse" gradientTransform="translate(10.8399 26.9922) rotate(-129.493) scale(25.3198 25.2392)">
<stop stop-color="#F92F3E"/>
<stop offset="1" stop-color="#3C257B"/>
</radialGradient>
<radialGradient id="paint4_radial_1537_394186" cx="0" cy="0" r="1" gradientUnits="userSpaceOnUse" gradientTransform="translate(11.0018 27.1881) rotate(-129.493) scale(25.1411 25.0611)">
<stop stop-color="#F94D5A"/>
<stop offset="1" stop-color="#8364D9"/>
</radialGradient>
<radialGradient id="paint5_radial_1537_394186" cx="0" cy="0" r="1" gradientUnits="userSpaceOnUse" gradientTransform="translate(16.4859 22.6849) rotate(-129.493) scale(4.39567 4.38168)">
<stop stop-color="#F94D5A"/>
<stop offset="1" stop-color="#8364D9"/>
</radialGradient>
<radialGradient id="paint6_radial_1537_394186" cx="0" cy="0" r="1" gradientUnits="userSpaceOnUse" gradientTransform="translate(16.4857 22.6853) rotate(-129.493) scale(4.39567 4.38168)">
<stop stop-color="#F92F3E"/>
<stop offset="1" stop-color="#3C257B"/>
</radialGradient>
<radialGradient id="paint7_radial_1537_394186" cx="0" cy="0" r="1" gradientUnits="userSpaceOnUse" gradientTransform="translate(1.23764 31.8709) rotate(-129.493) scale(9.45672 9.42662)">
<stop stop-color="#F92F3E"/>
<stop offset="1" stop-color="#3C257B"/>
</radialGradient>
<clipPath id="clip0_1537_394186">
<rect width="32" height="32" rx="7" fill="white"/>
</clipPath>
<clipPath id="clip1_1537_394186">
<rect width="43.6081" height="44.9925" fill="white" transform="matrix(-0.63599 -0.771697 -0.771697 0.63599 33.4531 18.6523)"/>
</clipPath>
</defs>
</svg>
