<svg width="32" height="32" viewBox="0 0 32 32" fill="none" xmlns="http://www.w3.org/2000/svg">
<g clip-path="url(#clip0_3205_192089)">
<rect width="32" height="32" rx="7" fill="#43AAF6"/>
<path d="M24.7764 0.505198L24.1683 -2.23996C24.1284 -2.42014 23.8716 -2.42014 23.8317 -2.23995L23.2236 0.505198C22.6812 5.07668 19.077 8.68095 14.5055 9.22337L11.7601 9.8314C11.5799 9.8713 11.5799 10.1282 11.7601 10.1681L14.5055 10.7761C19.077 11.3185 22.6812 14.9228 23.2236 19.4942L23.8317 22.2398C23.8716 22.42 24.1284 22.42 24.1683 22.2398L24.7764 19.4942C25.3188 14.9228 28.9231 11.3185 33.4945 10.7761L36.2399 10.1683C36.4201 10.1284 36.4201 9.87152 36.2399 9.8316L33.4945 9.22337C28.9231 8.68095 25.3188 5.07668 24.7764 0.505198Z" fill="#6BC0FF"/>
<rect x="3.66016" y="-2.71484" width="48.4889" height="13.2193" transform="rotate(53.5303 3.66016 -2.71484)" fill="#D9D9D9"/>
<rect x="0.796875" y="-0.597656" width="48.4889" height="2.91965" transform="rotate(53.5303 0.796875 -0.597656)" fill="#F2F2F2"/>
<path d="M8.35534 8.26345L8.78572 7.66765C8.884 7.5316 8.74973 7.3496 8.59074 7.40334L7.89446 7.63867C6.46002 8.35981 4.38619 7.65021 2.8782 5.92226L2.41845 5.46463C2.27859 5.32542 2.05242 5.49226 2.14415 5.66698L2.44566 6.24133C3.65146 8.19221 3.71726 10.3831 2.60484 11.5407L2.17436 12.1366C2.07608 12.2726 2.21035 12.4546 2.36934 12.4009L3.06572 12.1655C4.50015 11.4444 6.57397 12.154 8.08195 13.8819L8.54167 14.3395C8.68152 14.4788 8.9077 14.3119 8.81598 14.1372L8.51449 13.5628C7.3087 11.612 7.2429 9.42109 8.35534 8.26345Z" fill="#FE7D15"/>
<circle cx="7" cy="23" r="12" fill="url(#paint0_radial_3205_192089)"/>
<path d="M12.3581 14.7664C14.0269 15.7419 14.6719 17.0009 14.118 18.691C13.1617 21.1929 11.122 19.3486 9.67188 18.5009C8.22177 17.6531 7.37804 16.3503 8.07485 15.1583C8.77166 13.9663 10.6893 13.7908 12.3581 14.7664Z" fill="#FFA6A6"/>
<path d="M16.8826 20.5524C17.3405 21.4098 17.2852 22.119 16.6028 22.6971C15.5342 23.5169 15.1463 22.1897 14.7484 21.4446C14.3505 20.6996 14.3323 19.9192 14.9447 19.5922C15.5571 19.2651 16.4248 19.6951 16.8826 20.5524Z" fill="#FFA6A6"/>
</g>
<defs>
<radialGradient id="paint0_radial_3205_192089" cx="0" cy="0" r="1" gradientUnits="userSpaceOnUse" gradientTransform="translate(-8.34389 17.8096) scale(44.7884 77.1544)">
<stop stop-color="#F92F3E"/>
<stop offset="1" stop-color="#FF6263"/>
</radialGradient>
<clipPath id="clip0_3205_192089">
<rect width="32" height="32" rx="7" fill="white"/>
</clipPath>
</defs>
</svg>
