<svg xmlns="http://www.w3.org/2000/svg" width="33" height="33" fill="none"><path fill="#43CAE8" d="M4.194 3.96C4.67 5.074 6.258 6.102 7.458 5.53c1.04-.496 1.603-2.106.998-2.956-.099-.14-.375-.464-1.038-.59a3.56 3.56 0 0 1 1.733.242c1.496.628 2.25 2.262 2.377 3.546.186 1.869-.95 3.04-.604 3.305.402.307 2.411-.911 3.708-2.862 1.022-1.538 1.221-2.96 2.78-3.909.384-.233.734-.367.968-.443-1.31 2.213-.857 4.669.564 5.642 1.111.762 3.032.764 3.869-.282.994-1.243-.038-3.343-.182-3.627a4.5 4.5 0 0 0-.481-.748c1.83.384 5.528 1.435 8.755 4.594.224.22.678.663 1.219 1.263v-.222A7.654 7.654 0 0 0 24.47.83H7.778a7.6 7.6 0 0 0-3.444.817c-.131.545-.53 1.4-.14 2.312"/><path fill="#8AF2F7" d="M.124 8.484v16.692c0 .892.153 1.748.433 2.544q.235.127.504.21c.804.248 1.884.178 2.134-.32.316-.626-.96-1.393-1.334-3.2a5 5 0 0 1 0-1.975 6.8 6.8 0 0 0 1.28 1.92c1.673 1.753 3.838 2.069 4.75 2.189 1.783.234 2.671-.14 6.297-1.014 8.287-1.997 9.694-1.496 10.459-.8.727.66 1.073 1.676 2.241 1.92.988.207 1.851-.288 2.081-.432 1.088-.679 1.36-1.814 1.422-2.136.083-.428.063-.793.032-1.035.778 1.43.84 2.488.553 3.284-.357.989-1.13 1.227-1.206 2.08-.057.633.318 1.093.72 1.492a7.62 7.62 0 0 0 1.634-4.727V8.706c-.541-.6-.995-1.044-1.219-1.263-3.227-3.159-6.925-4.21-8.755-4.594.13.165.312.417.48.748.145.284 1.177 2.384.183 3.627-.837 1.046-2.758 1.044-3.87.282-1.42-.973-1.873-3.43-.563-5.642-.234.076-.584.21-.967.443-1.56.948-1.759 2.37-2.781 3.91-1.297 1.95-3.306 3.168-3.708 2.86-.346-.264.79-1.435.604-3.304-.127-1.284-.88-2.918-2.377-3.546a3.56 3.56 0 0 0-1.733-.242c.663.126.94.45 1.038.59.605.85.043 2.46-.998 2.956-1.2.572-2.787-.456-3.264-1.571-.39-.912.009-1.768.14-2.313a7.65 7.65 0 0 0-4.21 6.837"/><path fill="#43CAE8" d="M29.77 28.411c.077-.853.849-1.091 1.206-2.08.287-.796.225-1.853-.553-3.283.03.241.05.606-.032 1.035-.062.321-.334 1.456-1.422 2.135-.23.144-1.093.639-2.08.432-1.169-.244-1.515-1.26-2.242-1.92-.765-.696-2.172-1.197-10.459.8-3.626.873-4.514 1.248-6.297 1.014-.912-.12-3.077-.436-4.749-2.188a6.8 6.8 0 0 1-1.28-1.921 5 5 0 0 0 0 1.976c.373 1.806 1.649 2.573 1.333 3.2-.25.497-1.33.567-2.134.32a3 3 0 0 1-.504-.21 7.66 7.66 0 0 0 7.221 5.11H24.47a7.64 7.64 0 0 0 6.02-2.928c-.402-.4-.777-.859-.72-1.492"/><path fill="url(#a)" d="M7.07 11.027c.054-1.053.484-1.934.484-1.934.693-1.419 1.935-2.14 2.57-2.449-.04.035-.261.237-.242.514.02.3.312.561.574.575.416.02.552-.593 1.27-1.119a3 3 0 0 1 1.027-.483.94.94 0 0 0-.272.393c-.253.736.547 1.856 1.42 2.267 1.374.645 2.116-.844 4.112-.575 1.61.217 1.806 1.279 3.717 1.39.62.037 1.47.074 2.116-.513.83-.753.717-1.98.696-2.176.102.095.27.267.423.513.85 1.37-.097 2.861.483 3.325.48.384 1.608-.254 2.116-.635 1.113-.832 1.424-2.05 1.512-2.478.071.202.175.527.25.937.14.75.45 2.415-.402 3.446-.398.483-.858.591-.906 1.088-.02.21.02.598.302.725.197.09.456.026.665-.15-.038.095-.104.24-.212.398-.474.697-1.215.843-1.572 1.022-.848.427-1.016 1.796-1.135 3.778-.278 4.594.152 4.997-.255 5.441-2.38 2.597-18.953-9.14-18.74-13.3"/><path fill="url(#b)" d="M23.378 21.902c-.177-.96-.372-.97-.314-1.414.105-.8.77-.948 1.13-1.852.157-.393.259-.934.126-1.664 0 .081-.016.17-.062.253-.21.387-.982.513-1.237.262-.427-.423.88-1.645.411-2.633-.27-.568-.998-.786-1.923-1.064-.879-.264-1.302.08-1.737-.28-.37-.307-.544-.881-.41-1.4.147-.573.651-1.005 1.27-1.084a2.4 2.4 0 0 0-.355-.224c-1.051-.542-2.517-.355-3.492.355-.955.695-.703 1.353-1.456 1.606-1.138.381-2.531-.842-2.633-.934-.205-.184-.09-.123-1.046-1.213-.824-.941-.998-1.088-1.213-1.214-.298-.174-.851-.411-1.73-.341.06.056.138.143.199.266.222.448-.009.915-.038.971-.016.033-.306.58-.765.598-.353.013-.523-.299-.896-.56 0 0-.427-.3-1.266-.376a4.14 4.14 0 0 0-2.182 3.648v6.954q.146.216.276.4c.829 1.192 1.59 1.795 1.814 1.966.684.524 1.334.837 2.16 1.154.32.05.495.093.704.211q.104.06.191.118l.141.05c1.157.412 1.384.389 2.532.743.366-.196.732-.375 1.192-.247.588.165.71.66 1.045 1.039.263.1.527.194.976.323l.303.086c.304-.06.645-.173 1.312-.119.905.074.905.333 1.398.28 1.12-.122 1.122-1.46 2.483-2.063.956-.424 1.196.13 2.482-.35.115-.043.33-.125.598-.263.283-.511.16-1.18.012-1.988"/><path fill="#FFD21A" d="M11.824 22.096c-.08-.292-.544-2.119.585-3.901 1.151-1.819 3.055-2.163 3.348-2.21a2.95 2.95 0 0 1 1.105.682c.016-.151.02-.319 0-.5-.09-.851-.62-1.432-.877-1.678a3.6 3.6 0 0 1 1.04 0c1.844.274 3.733 2.077 3.77 4.226.003.112.01 2.249-1.462 3.089-1.226.7-2.796.11-3.088 0-1.034-.389-1.306-.945-2.21-1.008-.728-.05-1.346.253-1.756.52zM10.336 21.963c.159-.25 1.124-1.813.902-3.768-.226-1.995-1.51-2.83-1.708-2.954q-.166.006-.374.054a2.5 2.5 0 0 0-.673.277q.059-.218.17-.462a3 3 0 0 1 1.22-1.314 2.3 2.3 0 0 0-.765-.283c-1.45-.248-3.457.906-4.219 2.884-.04.103-.774 2.078.022 3.254.663.98 2.02.862 2.272.84.893-.079 1.284-.52 1.97-.332.553.15.904.6 1.115.958z"/><path fill="#FFED9E" d="M11.958 21.797c.041-.541.182-1.39.682-2.282 1.007-1.791 2.73-2.431 3.226-2.596q.197.064.419.184c.51.282.81.683.97.944a1.1 1.1 0 0 0 .367-.293c.433-.538.311-1.501-.262-2.434.168.058.389.147.63.288 1.089.638 2.22 2.11 1.966 3.803-.125.833-.644 2.147-1.73 2.543-1.426.52-2.623-.981-5.009-.55-.423.076-.754.19-.944.262zM10.645 21.366a6.6 6.6 0 0 0 .059-2.322c-.31-1.917-1.45-2.872-1.784-3.128-.11.016-.232.044-.364.093-.456.169-.784.494-.97.712a.95.95 0 0 1-.204-.354c-.192-.601.143-1.5.81-2.28-.14.021-.33.064-.548.151-.983.395-2.208 1.582-2.443 3.254-.115.824-.053 2.186.668 2.781.947.781 2.23-.42 3.924.466.3.157.522.332.647.439z"/><path fill="#28EB57" d="M16.067 2.603c-.28-.14-.833.273-1.097.722-.65 1.101.058 2.698.404 2.644.452-.07-.307-.959.191-1.62.223-.296.445-.298.605-.635.192-.404.15-.985-.103-1.111"/><path fill="#FEFFFF" d="M8.904 24.411c.698.47.69.935 1.312 1.106.54.148.95-.093 1.36-.312-1.147-.355-1.374-.332-2.53-.743zM13.814 25.996c.149.168.34.313.633.395.256.072.443.055.646.014l-.303-.086a11 11 0 0 1-.976-.323"/><path fill="#28EB57" d="M13.76 7.906c1.266.962 2.936.572 3.006.555.81-.202 1.427-.669 1.9-1.177q.056-.223.093-.454c.279-1.787-.417-3.444-1.621-4.143.23.545.325 1.242.237 1.982-.191 1.594-1.166 2.79-2.177 2.668-1.01-.12-1.676-1.511-1.485-3.106.053-.44.165-.85.322-1.21-.751.605-1.324 1.57-1.53 2.718.165.744.5 1.592 1.256 2.167"/><path fill="#28D257" d="M15.003 10.314c1.61.252 3.176-1.079 3.664-3.03-.474.508-1.092.975-1.902 1.177-.069.017-1.74.407-3.004-.555-.757-.575-1.09-1.423-1.255-2.167l-.02.113c-.342 2.194.785 4.192 2.517 4.462"/><path fill="#FEFFFF" d="m4.035 20.963-.276-.4v2.97c.41-.067 1.126 0 2.751.306.744.14 1.19.195 1.499.244-.826-.318-1.476-.631-2.16-1.155-.224-.171-.985-.774-1.814-1.965M12.769 24.957c-.46-.128-.826.051-1.192.247q.279.086.643.208c.862.287 1.226.443 1.594.584-.335-.378-.457-.874-1.045-1.039M8.009 24.083q.412.157.895.328a3 3 0 0 0-.19-.118c-.21-.118-.384-.16-.705-.21M20.286 24.503c-1.361.604-1.363 1.941-2.483 2.063-.493.053-.493-.206-1.398-.28-.667-.054-1.008.059-1.312.12 1.542.438 2.37.627 3.131.237.752-.386.518-.862 1.404-1.34.724-.389 1.062-.17 2.376-.626.73-.253 1.1-.387 1.31-.703q.029-.041.052-.084c-.267.138-.483.22-.598.263-1.286.48-1.526-.074-2.482.35"/><path fill="url(#c)" d="m6.89 27.65 9.955 2.504a4.14 4.14 0 0 0 3.028-.4l4.071-2.274a4.14 4.14 0 0 0 2.122-3.615v-2.56a.6.6 0 0 0-.151.016c-.444.11-.403.674-1.154 1.504a5.1 5.1 0 0 1-1.993 1.328c-1.286.48-1.526-.074-2.482.35-1.361.604-1.363 1.941-2.483 2.063-.493.053-.493-.206-1.398-.28-1.112-.09-1.319.285-1.958.105-.953-.268-.829-1.196-1.678-1.433-.975-.273-1.53.84-2.553.559-.673-.185-.608-.717-1.503-1.224-.41-.232-.687-.17-2.203-.454-1.625-.305-2.34-.373-2.751-.306v.103a4.14 4.14 0 0 0 3.13 4.015"/><path fill="#FFD21A" d="M1.33 19.824a4.4 4.4 0 0 1 1.977 1.953c.377.75.43 1.882.452 2.126.063.686.026 1.124.26 1.229.31.14.652-.507 1.22-.611.965-.176 1.51 1.89 2.302 1.771.493-.074.556-.865 1.018-.875.538-.012.612 1.061 1.364 1.323.87.304 1.488-.885 2.382-.672 1.082.259.947 2.18 1.955 2.403.931.206 1.504-1.332 2.891-1.222.788.063.984.59 1.507.428.813-.251.64-1.618 1.527-2.097.612-.33.985.281 1.955.203 1.103-.088 1.873-.922 2.58-1.689 1.314-1.42 1.162-2.24 2.237-3.018.818-.592 1.738-.72 2.37-.738a3 3 0 0 0-.716-.29c-1.29-.335-2.447.32-2.66.447-1.678.994-1.492 2.727-2.706 2.906-.402.06-.93-.055-1.185-.425-.263-.383-.193-.987.18-1.52a9 9 0 0 0-.627.358 8.4 8.4 0 0 0-2.37 2.146c-.738.997-.526 1.762-1.028 1.878-.357.083-.814-.187-.984-.581-.185-.428-.022-.978.425-1.297a2.5 2.5 0 0 0-.582.09c-1.25.348-1.58 1.517-2.094 1.425-.42-.076-.329-.882-.959-1.638-.523-.627-1.262-.884-1.829-1.003a.8.8 0 0 1 .118.266c.104.454-.232.973-.649 1.21-.492.278-1.135.186-1.549-.177-.46-.405-.643-1.153-.34-1.579a.8.8 0 0 1 .34-.265q-.168-.061-.324-.089c-1.105-.202-1.722 1.069-2.538 1.003-.643-.051-.836-.868-1.468-1.622-.614-.733-1.751-1.538-4.056-1.762z"/><path fill="url(#d)" d="M15.233 6.78c-.904-.425-2.616 1.439-3.348 2.404-.75.988-2.431 3.204-1.553 5.205.382.87 1.217 1.629 2.253 1.857 1.496.328 3.058-.53 3.622-1.674.396-.807.036-1.227-.305-3.805-.378-2.859-.118-3.729-.67-3.987"/><path fill="url(#e)" d="M22.349 16.159c.663.106 1.408-.731 1.708-1.451.904-2.17-1.507-5.028-1.949-4.93-.125.028-.017.278-.094.941-.17 1.468-.878 1.776-.995 2.788-.131 1.14.563 2.529 1.33 2.652"/><path fill="url(#f)" d="M4.374 13.96c-.659-.133-1.044-1.38-1.057-2.32-.04-2.833 3.27-5.182 3.647-4.9.107.081-.087.326-.26 1.115-.386 1.747.16 2.373-.105 3.577-.3 1.358-1.463 2.682-2.225 2.528"/><path fill="#FEFFFF" d="M12.128 21.613a5.4 5.4 0 0 1 1.462-2.116 5.4 5.4 0 0 1 2.187-1.164q.167.083.347.227c.414.34.588.77.661 1.008.108-.058.283-.162.469-.327.694-.616.99-1.6.88-2.47a2.9 2.9 0 0 0-.255-.867c.17.085.345.196.51.341.954.84.89 2.195.881 2.343-.071 1.136-.813 2.36-1.832 2.656-.235.068-.182-.002-2.499-.256-.598-.066-1.167-.122-1.831.114a3.2 3.2 0 0 0-.725.369zM10.614 21.413c-.022-.486-.119-1.458-.619-2.423-.477-.92-1.09-1.387-1.42-1.596a1.6 1.6 0 0 0-.326.164c-.407.264-.65.668-.766.895a2 2 0 0 1-.285-.42c-.39-.758-.378-1.81-.076-2.672.068-.194.192-.496.414-.828a2 2 0 0 0-.484.247c-.952.669-1.238 2.054-1.267 2.206-.225 1.165.051 2.546.773 3.04.167.114.143.034 2.015.218.484.047.942.099 1.402.464.22.175.375.37.474.512z"/><defs><radialGradient id="a" cx="0" cy="0" r="1" gradientTransform="translate(18.905 18.398)scale(14.2181)" gradientUnits="userSpaceOnUse"><stop stop-color="#FBB30F"/><stop offset="1" stop-color="#FF7815"/></radialGradient><radialGradient id="b" cx="0" cy="0" r="1" gradientTransform="translate(18.004 1.946)scale(24.0434)" gradientUnits="userSpaceOnUse"><stop stop-color="#FFF575"/><stop offset="1" stop-color="#FE9300"/></radialGradient><radialGradient id="c" cx="0" cy="0" r="1" gradientTransform="translate(14.24 39.383)scale(20.2988)" gradientUnits="userSpaceOnUse"><stop stop-color="#FFF575"/><stop offset="1" stop-color="#FE9300"/></radialGradient><radialGradient id="d" cx="0" cy="0" r="1" gradientTransform="translate(14.57 7.897)scale(9.05831)" gradientUnits="userSpaceOnUse"><stop stop-color="#FFD21A"/><stop offset="1" stop-color="#FF7815"/></radialGradient><radialGradient id="e" cx="0" cy="0" r="1" gradientTransform="matrix(5.70233 0 0 5.70232 22.224 10.328)" gradientUnits="userSpaceOnUse"><stop stop-color="#FFD21A"/><stop offset="1" stop-color="#FF7815"/></radialGradient><radialGradient id="f" cx="0" cy="0" r="1" gradientTransform="rotate(8.131 -51.743 45.309)scale(5.79745)" gradientUnits="userSpaceOnUse"><stop stop-color="#FFD21A"/><stop offset="1" stop-color="#FF7815"/></radialGradient></defs></svg>
