<svg width="32" height="32" viewBox="0 0 32 32" fill="none" xmlns="http://www.w3.org/2000/svg">
<g clip-path="url(#clip0_3644_50260)">
<rect width="32" height="32" rx="7" fill="#6EEDB8"/>
<path d="M3.0966 21.3062C2.80319 21.0977 2.4491 20.9922 2.08946 21.0059L0.464061 21.0679L-1.50011 20.6806C-1.76418 20.6286 -2.01763 20.5325 -2.24986 20.3965L-3.54654 19.6368L-4.22641 20.4374L-4.34501 20.577L-5.32718 21.7336L-4.50872 22.3155L-4.50797 22.3161L-5.25002 22.4512L-5.51346 22.4991L-5.82038 23.8542L-5.86149 24.0358L-6.07074 24.9596C-6.10627 25.1165 -6.12219 25.276 -6.11968 25.4348C-6.11865 25.4996 -6.11483 25.5643 -6.10755 25.6287C-6.08227 25.8521 -6.01952 26.0712 -5.9203 26.2765L-5.26062 27.6413L-2.30407 27.4302C-1.94869 27.4048 -1.60166 27.3104 -1.28237 27.1524L-0.0851083 26.5596L2.27997 27.1251L3.34624 26.5079L4.77603 22.4991L3.0966 21.3062Z" fill="#762439"/>
<path d="M-2.45147 23.9935L-0.387228 24.7036L1.60683 24.6372L1.6203 24.6409L3.27757 25.0986L3.55986 23.9867L1.91442 23.3571L-0.085577 23.4729L-1.23844 23.3881L-3.10526 22.5895L-5.24977 22.4512L-5.51321 22.4991L-5.82013 23.8542L-2.46416 23.9892L-2.45147 23.9935Z" fill="#762439"/>
<path d="M3.09678 21.3062C2.80337 21.0977 2.44928 20.9922 2.08964 21.0059L0.464244 21.0679L-1.49993 20.6806C-1.764 20.6286 -2.01744 20.5325 -2.24968 20.3965L-3.54636 19.6368L-4.22622 20.4374L-2.78213 21.5589H-0.69941L0.480967 21.8719L1.69713 21.5516L3.26627 22.5655L4.23664 22.878L4.18053 23.0522L3.18719 22.7323L1.66563 21.7492L0.480805 22.0613L-0.723267 21.7419H-2.84486L-4.34483 20.577L-5.327 21.7336L-4.50854 22.3155L-3.06221 22.4088L-1.1946 23.2077L-0.0842104 23.2894L1.94304 23.1721L1.9614 23.1791L3.77729 23.8739L3.40895 25.3248L1.58496 24.821L-0.414927 24.8877L-0.430887 24.8822L-2.49838 24.171L-5.86131 24.0358L-6.07055 24.9596C-6.10609 25.1165 -6.12201 25.276 -6.11949 25.4348L-3.16013 26.2824L-0.365231 25.7004L-0.345315 25.7051L2.06225 26.2814L3.21396 25.8905L3.27279 26.0639L2.07104 26.4718L-0.36801 25.8879L-3.16707 26.4708L-6.10737 25.6287C-6.08209 25.8521 -6.01934 26.0712 -5.92012 26.2765L-5.26043 27.6413L-2.30389 27.4302C-1.94851 27.4048 -1.60148 27.3104 -1.28218 27.1524L-0.0849252 26.5596L2.28015 27.1251L3.34642 26.5079L4.77622 22.4991L3.09678 21.3062Z" fill="#762439"/>
<path d="M-2.84555 21.7419H-0.723957L0.480115 22.0613L1.66494 21.7492L3.1865 22.7323L4.17984 23.0522L4.23595 22.878L3.26558 22.5655L1.69644 21.5516L0.480278 21.8719L-0.7001 21.5589H-2.78282L-4.22691 20.4374L-4.34552 20.577L-2.84555 21.7419Z" fill="#4F1826"/>
<path d="M-2.4984 24.171L-0.430904 24.8822L-0.414946 24.8877L1.58494 24.821L3.40893 25.3248L3.77728 23.8739L1.96139 23.1791L1.94302 23.1721L-0.084228 23.2894L-1.19462 23.2077L-3.06223 22.4088L-4.50855 22.3155L-4.50781 22.3161L-5.24985 22.4512L-3.10534 22.5894L-1.23852 23.3881L-0.0856581 23.4728L1.91434 23.3571L3.55978 23.9867L3.27749 25.0986L1.62022 24.6409L1.60675 24.6371L-0.38731 24.7036L-2.45155 23.9935L-2.46424 23.9892L-5.82021 23.8542L-5.86133 24.0358L-2.4984 24.171Z" fill="#4F1826"/>
<path d="M-0.368267 25.8879L2.07079 26.4718L3.27253 26.0639L3.2137 25.8905L2.06199 26.2814L-0.345572 25.7051L-0.365488 25.7003L-3.16039 26.2824L-6.11975 25.4348C-6.11872 25.4996 -6.11491 25.5643 -6.10762 25.6287L-3.16733 26.4708L-0.368267 25.8879Z" fill="#4F1826"/>
<path d="M7.31651 14.922L8.5805 13.9741C8.89265 13.7399 9.30575 13.6895 9.66504 13.8417L10.2814 14.1027C10.425 14.1635 10.5798 14.193 10.7357 14.1892L12.3087 14.1503C12.8256 14.1376 13.2811 14.4879 13.4013 14.9908L13.6254 15.9288C13.7438 16.424 13.5053 16.9355 13.0498 17.1633L12.0273 17.6745C11.6788 17.8488 11.2639 17.8248 10.9378 17.6115L7.32707 15.2502C7.21069 15.1741 7.20527 15.0055 7.31651 14.922Z" fill="#2A0C14"/>
<path d="M8.40537 14.9163C5.01125 14.3087 1.99782 15.2792 1.6747 17.0841C1.50439 18.0354 2.11546 19.0285 3.22838 19.8441C4.2271 20.576 5.62995 21.165 7.23523 21.4524C8.59533 21.6959 9.89424 21.6859 10.9835 21.4704C12.6124 21.1482 13.7723 20.3662 13.9659 19.2846C14.289 17.4797 11.7995 15.524 8.40537 14.9163Z" fill="#762439"/>
<path d="M13.9659 19.2846C14.289 17.4797 11.7995 15.524 8.40537 14.9163C5.01125 14.3087 1.99782 15.2792 1.6747 17.0841C1.50439 18.0354 2.11546 19.0285 3.22838 19.8441C3.18319 19.4915 3.16154 19.0615 3.35934 18.6383C4.07446 17.1083 7.36196 16.302 9.18387 17.5233C10.6195 18.4857 10.5386 20.3005 10.9835 21.4704C12.6124 21.1482 13.7723 20.3662 13.9659 19.2846Z" fill="#4F1826"/>
<path d="M9.1843 17.5233C7.36239 16.3019 4.07489 17.1083 3.35977 18.6382C3.16198 19.0614 3.18363 19.4915 3.22882 19.8441C4.22754 20.576 5.63039 21.1649 7.23567 21.4523C8.59577 21.6958 9.89468 21.6859 10.9839 21.4704C10.5391 20.3004 10.6199 18.4857 9.1843 17.5233Z" fill="#762439"/>
<path d="M5.82274 19.487L5.62305 22.316L10.2494 21.8501L10.6654 18.4552L5.82274 19.487Z" fill="#5F4043"/>
<path d="M4.74122 18.8213C4.74013 18.8817 4.88777 18.9704 5.58993 19.0876L5.07405 19.4204H5.58993L5.40688 20.0029H5.73955L5.58993 20.4356L6.25559 20.3024L6.12246 20.8183L7.43714 19.67L7.67012 19.903L8.60205 19.3539L8.90159 19.5203L10.0499 19.1209L10.599 19.3705L10.8986 18.5883C10.722 18.4124 10.5178 18.2316 10.2828 18.0558C9.62689 17.5651 8.99413 17.0818 8.16937 17.0573C7.46161 17.0363 6.57973 17.3499 6.08918 17.8894C5.91868 18.0769 5.71122 18.3844 5.27375 18.5883C4.9853 18.7228 4.7426 18.7444 4.74122 18.8213Z" fill="#07150E"/>
<path d="M21.0165 33.0998L20.6342 31.5244C20.5299 31.0945 20.2182 30.7449 19.803 30.5923L12.3629 27.8577L13.0785 26.9923L12.5626 25.9106L12.8954 25.245L12.8434 22.1983C12.8347 21.6883 12.5111 21.237 12.031 21.0649L11.3139 20.8079C11.0964 20.7299 10.8696 20.686 10.6412 20.676C10.4255 20.6666 10.2084 20.6874 9.99649 20.7393L4.50383 22.084C3.91786 22.2275 3.45391 22.6743 3.2885 23.2544L1.86213 28.2571L1.24639 28.8395L1.21311 30.6368L-1.19991 31.2026L-3.42987 29.1224C-3.42987 29.1224 -2.03198 32.9001 -2.03198 33.0998C-2.03198 33.2995 6.58832 35.2299 6.58832 35.2299L12.8455 35.2132L16.7729 34.5309L18.2955 33.0665C18.6618 32.7141 19.2418 32.7164 19.6053 33.0717L21.1663 34.5975C21.3253 34.6824 22.1403 35.0977 22.9303 34.7473C23.1052 34.6696 23.2481 34.5681 23.363 34.4644L21.0165 33.0998Z" fill="#2E2E2E"/>
<path d="M21.0163 33.0998L20.6341 31.5244C20.5297 31.0945 20.218 30.7449 19.8028 30.5923L12.3627 27.8577L10.9649 27.891L9.65017 28.4901L10.641 20.6761C10.4253 20.6666 10.2082 20.6874 9.99631 20.7393L4.50364 22.084C3.91768 22.2275 3.45373 22.6743 3.28831 23.2544L1.86195 28.2571L1.24621 28.8395L1.21293 30.6368L-1.20009 31.2026L-3.43005 29.1225C-3.43005 29.1225 -2.03217 32.9001 -2.03217 33.0998C-2.03217 33.2995 6.58813 35.2299 6.58813 35.2299L12.8453 35.2132L16.7727 34.5309L18.2953 33.0665C18.6617 32.7141 19.2416 32.7165 19.6051 33.0718L21.1661 34.5975C21.3251 34.6824 22.1402 35.0977 22.9301 34.7473C23.1051 34.6697 23.2479 34.5682 23.3628 34.4644L21.0163 33.0998Z" fill="#2E2E2E"/>
<path d="M10.965 27.891L12.3629 27.8577L13.0785 26.9923L12.5626 25.9106L12.8954 25.245L12.8433 22.1983C12.8346 21.6883 12.5111 21.237 12.0309 21.0649L11.3138 20.8079C11.0963 20.7299 10.8695 20.686 10.6412 20.6761L9.65033 28.4901L10.965 27.891Z" fill="#262626"/>
<path d="M2.40438 26.6216L3.77032 26.4568C4.02008 26.4267 4.27196 26.4926 4.47492 26.6412L5.03801 27.0536C5.23809 27.2002 5.41011 27.3816 5.54581 27.5892L6.13478 28.4901L8.15025 26.4077C8.38297 26.1672 8.65903 25.9729 8.96391 25.835L9.52351 25.5819C9.87015 25.425 10.2467 25.3454 10.6272 25.3485L12.8573 25.3668L12.6372 25.8409L10.6879 25.906C10.2678 25.92 9.85583 26.0257 9.48083 26.2155L9.21982 26.3477C8.89923 26.51 8.60846 26.7255 8.35986 26.985L6.07281 29.3721L5.15706 27.9291C5.03652 27.7391 4.87976 27.5748 4.69573 27.4454L4.43763 27.2639C4.10015 27.0266 3.68055 26.937 3.2756 27.0159L2.49054 27.1687C2.2833 27.2091 2.10888 27.0121 2.17401 26.8113C2.20731 26.7086 2.29721 26.6346 2.40438 26.6216Z" fill="#D19F34"/>
<path d="M10.0994 21.6504L8.18364 23.011L8.08573 21.9333C8.08573 21.9333 7.30358 22.6988 7.32022 22.6655C7.33686 22.6322 7.61977 21.7502 7.61977 21.7502L7.02067 22.4991L6.85426 22.0664L6.68784 22.9151L6.40494 22.4991L6.13867 23.4976L6.32173 23.9303L6.43822 25.8441L7.17045 23.7306L10.0994 21.6504Z" fill="#D19F34"/>
<path d="M10.0999 21.6504L7.17095 23.7306L6.43872 25.844L6.88804 26.0604L7.47049 23.8304L10.0999 21.6504Z" fill="#B38012"/>
<path d="M10.0997 21.6504L8.08606 21.9333L8.18397 23.011L10.0997 21.6504Z" fill="#E6AF39"/>
<path d="M5.05762 23.2646L6.13932 23.4976L6.40558 22.4991L5.05762 23.2646Z" fill="#E6AF39"/>
<path d="M6.90412 23.0649L7.07053 23.5309L6.7377 23.9303L6.57129 23.4976L6.90412 23.0649Z" fill="#57F28A"/>
<path d="M-0.0849145 26.5596L0.00014621 24.506C0.0208689 24.0057 0.146312 23.5153 0.368373 23.0665L1.48076 20.8183L0.9635 20.5354L-0.404378 22.7631C-0.652887 23.1678 -0.789274 23.6313 -0.799552 24.1061L-0.867065 27.2253L-0.0849145 26.5596Z" fill="#2E2E2E"/>
<path d="M24.6825 16.1924L21.6526 11.1042C21.0156 10.0344 19.6335 9.68125 18.5614 10.3143L13.672 13.2016C13.3848 13.3712 13.1153 13.5676 12.8665 13.7874C12.5998 14.0229 12.3569 14.2853 12.1424 14.5713C11.7775 15.0577 11.3897 15.5823 11.3809 15.6262C11.3643 15.7094 15.0587 23.5975 15.0587 23.5975L18.5587 22.6919C18.7887 22.6425 19.0135 22.5745 19.2315 22.4894C19.5739 22.3557 19.8991 22.1794 20.1988 21.9635L24.0611 19.1831C25.0124 18.4982 25.2823 17.1997 24.6825 16.1924Z" fill="#6E4A4D"/>
<path d="M12.1424 14.5714C11.7775 15.0578 11.3897 15.5823 11.3809 15.6262C11.3643 15.7094 15.0587 23.5975 15.0587 23.5975L18.5587 22.6919C18.7887 22.6425 19.0135 22.5745 19.2315 22.4894L12.8665 13.7874C12.5998 14.023 12.3569 14.2853 12.1424 14.5714Z" fill="#5F4043"/>
<path d="M24.0608 19.1832C25.0122 18.4983 25.282 17.1997 24.6822 16.1925L21.6524 11.1042C21.0154 10.0345 19.6332 9.68132 18.5611 10.3144L13.6717 13.2017C13.3845 13.3713 13.115 13.5677 12.8662 13.7875L19.2312 22.4894C19.5736 22.3557 19.8988 22.1794 20.1986 21.9636L24.0608 19.1832Z" fill="#6E4A4D"/>
<path d="M19.4182 22.4415L18.7713 22.6406L17.1948 22.9854L17.0558 22.0831L16.8067 21.6892L16.6897 21.5043L15.7924 20.0861L13.9918 21.0415L13.9106 21.0846L14.4265 20.5129L15.1421 19.72L14.7179 18.4552L13.6844 16.8289L13.5157 16.5635L12.201 14.4949L12.6292 14.0103L12.968 13.6717L14.1935 12.897L13.6942 12.6806L11.7358 13.7428L11.7305 13.7457L11.5441 15.3812L11.1148 16.8244L11.4809 19.1708L11.0815 19.4704L10.2189 20.6965L10.44 21.675L10.4888 21.8912L10.0109 22.1167L10.3611 23.2749L10.7617 23.099L10.8102 23.314L10.9983 24.1466L11.0451 24.179L11.2741 24.3379L12.0301 24.8622L13.2782 24.9288L13.7774 24.4295L14.5762 24.5127L15.4505 23.9303L16.4401 23.7472L18.1375 24.0468L19.6087 22.8115L20.0083 22.0956L19.4182 22.4415Z" fill="#762439"/>
<path d="M12.3147 21.7894L13.5054 21.092L14.427 20.5129L15.1425 19.72L14.7184 18.4552L13.6849 16.8289L13.1772 19.4323L11.9058 20.3793L11.1955 21.558L10.4893 21.8912L10.7622 23.099L11.9018 22.5986L12.3147 21.7894Z" fill="#762439"/>
<path d="M11.7421 20.2312L12.9805 19.3087L13.5158 16.5635L12.2012 14.4949L11.7359 13.7428L11.7307 13.7457L11.5442 15.3812L11.1149 16.8243L11.481 19.1708L11.0816 19.4703L10.2191 20.6964L10.4401 21.675L11.0436 21.3902L11.7421 20.2312Z" fill="#762439"/>
<path d="M17.195 22.9854L17.0561 22.0831L16.8069 21.6892C16.3376 21.8957 15.8876 22.093 15.8599 22.1023C15.8385 22.1096 15.7942 22.1245 14.0907 22.1085L13.0205 23.2597L11.9995 24.1275L11.2744 24.3379L12.0304 24.8622L13.2785 24.9288L13.7777 24.4295L14.5765 24.5127L15.4507 23.9303L16.4404 23.7472L18.1378 24.0468L17.4864 23.4976L17.195 22.9854Z" fill="#762439"/>
<path d="M12.871 23.1031L13.9975 21.8912L14.0453 21.8917C14.6652 21.8976 15.6695 21.9034 15.7982 21.8943C15.8686 21.8651 16.2473 21.6991 16.6902 21.5043L15.7929 20.0861L13.9923 21.0415L13.6163 21.2777L12.4787 21.9441L12.0595 22.7657L10.8107 23.314L10.9988 24.1466L11.0456 24.179L11.895 23.9327L12.871 23.1031Z" fill="#762439"/>
<path d="M12.4784 21.9441L13.616 21.2778L13.992 21.0415L13.9108 21.0846L14.4267 20.5129L13.5051 21.092L12.3144 21.7894L11.9015 22.5986L10.7618 23.099L10.8104 23.314L12.0592 22.7657L12.4784 21.9441Z" fill="#4F1826"/>
<path d="M11.9057 20.3793L13.177 19.4323L13.6847 16.8289L13.5161 16.5636L12.9807 19.3088L11.7423 20.2312L11.0439 21.3903L10.4404 21.6751L10.4892 21.8912L11.1954 21.558L11.9057 20.3793Z" fill="#4F1826"/>
<path d="M13.0203 23.2597L14.0905 22.1085C15.794 22.1245 15.8383 22.1096 15.8597 22.1023C15.8874 22.0929 16.3374 21.8957 16.8067 21.6892L16.6897 21.5043C16.2468 21.6991 15.8681 21.8651 15.7978 21.8943C15.669 21.9034 14.6648 21.8976 14.0448 21.8917L13.997 21.8912L12.8705 23.1031L11.8945 23.9327L11.0451 24.179L11.2741 24.3378L11.9993 24.1275L13.0203 23.2597Z" fill="#4F1826"/>
<path d="M20.0081 22.0956L19.418 22.4415L18.771 22.6406L17.1945 22.9853L17.4859 23.4976L18.1373 24.0467L19.6084 22.8114L20.0081 22.0956Z" fill="#611E2F"/>
<path d="M12.6299 14.0103L12.9687 13.6717L14.1942 12.897L13.6949 12.6806L11.7365 13.7428L12.2017 14.4949L12.6299 14.0103Z" fill="#611E2F"/>
<path d="M15.1585 24.4794L13.278 23.2979L11.2478 19.1209L10.8817 19.5203L11.9301 23.2147L13.9603 24.6958L15.1585 24.4794Z" fill="#2E2E2E"/>
<path d="M24.7764 0.505198L24.1683 -2.23996C24.1284 -2.42014 23.8716 -2.42014 23.8317 -2.23995L23.2236 0.505198C22.6812 5.07668 19.077 8.68095 14.5055 9.22337L11.7601 9.8314C11.5799 9.8713 11.5799 10.1282 11.7601 10.1681L14.5055 10.7761C19.077 11.3185 22.6812 14.9228 23.2236 19.4942L23.8317 22.2398C23.8716 22.42 24.1284 22.42 24.1683 22.2398L24.7764 19.4942C25.3188 14.9228 28.9231 11.3185 33.4945 10.7761L36.2399 10.1683C36.4201 10.1284 36.4201 9.87152 36.2399 9.8316L33.4945 9.22337C28.9231 8.68095 25.3188 5.07668 24.7764 0.505198Z" fill="#AAF4D5"/>
</g>
<defs>
<clipPath id="clip0_3644_50260">
<rect width="32" height="32" rx="7" fill="white"/>
</clipPath>
</defs>
</svg>
