<svg width="32" height="32" viewBox="0 0 32 32" fill="none" xmlns="http://www.w3.org/2000/svg">
<g clip-path="url(#clip0_3644_50261)">
<rect width="32" height="32" rx="7" fill="#9B917A"/>
<path d="M17.552 29.6098L16.6704 20.9884C16.585 20.1538 16.1508 19.4243 15.5142 18.9479C15.1174 18.6509 14.6421 18.452 14.123 18.3881L9.39476 17.8061C8.2384 17.6637 7.06873 17.9311 6.08908 18.5618L-0.188502 22.6029C-0.683828 22.9218 -1.08432 23.3481 -1.37029 23.8384C-1.75582 24.4995 -1.93285 25.2772 -1.85016 26.067L-0.408649 39.8363L8.48187 41.0593L8.5222 41.0648L16.919 33.2537L16.7833 31.1508C16.7665 30.8904 16.8939 30.6418 17.1151 30.5034C17.419 30.3131 17.5885 29.9666 17.552 29.6098Z" fill="#82513A"/>
<path d="M16.6705 20.9884C16.5851 20.1538 16.1509 19.4243 15.5143 18.9479L6.85547 25.2L8.48196 41.0593L8.52229 41.0648L16.9191 33.2537L16.7834 31.1509C16.7666 30.8905 16.894 30.6418 17.1152 30.5034C17.4191 30.3131 17.5886 29.9666 17.5521 29.6098L16.6705 20.9884Z" fill="#6B4330"/>
<path d="M-1.37029 23.8385C-1.75582 24.4996 -1.93285 25.2773 -1.85016 26.0671L-0.40865 39.8364L8.48187 41.0593L6.85538 25.2001L-1.37029 23.8385Z" fill="#82513A"/>
<path d="M9.39396 17.8061C8.2376 17.6638 7.06793 17.9312 6.08828 18.5618L-0.189302 22.603C-0.684629 22.9219 -1.08512 23.3481 -1.37109 23.8385L6.85458 25.2001L15.5134 18.9479C15.1166 18.6509 14.6413 18.4521 14.1222 18.3882L9.39396 17.8061Z" fill="#A37058"/>
<path d="M-5.92376 35.0013L-6.99024 24.1574C-7.09903 23.0512 -6.2862 22.068 -5.17928 21.9669L0.186398 21.4767L1.12387 29.8721L-5.92376 35.0013Z" fill="#82513A"/>
<path d="M3.70512 20.0628L3.72903 20.4333C3.74136 20.6242 3.88026 20.7831 4.06782 20.8208L10.4764 22.1104C10.8123 22.178 11.1279 22.3226 11.398 22.5335C11.6359 22.7192 11.9443 22.946 12.2164 23.1427C12.5285 23.3684 12.9698 23.2157 13.0761 22.8456L13.6777 20.7503C13.78 20.3939 13.6357 20.0126 13.323 19.8132L12.1959 19.0944L13.3547 19.0196L13.8959 19.4956C14.1335 19.7047 14.233 20.0298 14.1531 20.336L13.4112 23.1772C13.2171 23.9204 12.3056 24.1951 11.7333 23.6828L10.9528 22.9843C10.6523 22.7153 10.2839 22.5339 9.8875 22.4595L3.50225 21.2626C3.2821 21.2213 3.13225 21.0156 3.16044 20.7934L3.20829 20.4163L3.70512 20.0628Z" fill="#D5B133"/>
<path d="M14.0942 11.093C14.0746 9.6969 13.0064 8.53975 11.6164 8.40864L6.57263 7.93292C6.07433 7.88592 5.57268 7.97657 5.12234 8.19498L4.30217 8.59277C3.49788 8.98284 2.94667 9.73431 2.80005 10.5931C2.76857 10.7775 2.75537 10.9667 2.76273 11.1585L3.01056 17.6102C3.05939 18.8812 3.97798 19.9508 5.22703 20.191L9.99412 21.1077C10.2694 21.1606 10.5481 21.1787 10.8243 21.1634C11.318 21.1361 11.8033 21.0013 12.2448 20.7642L12.7514 20.4921C13.6508 20.009 14.2063 19.0651 14.192 18.0442L14.0942 11.093Z" fill="#82513A"/>
<path d="M11.6159 8.40859L6.57215 7.93288C6.07385 7.88588 5.57221 7.97652 5.12186 8.19494L4.30169 8.59272C3.49741 8.9828 2.94619 9.73427 2.79958 10.5931L11.4244 11.3311L7.92604 12.4214C7.21504 12.643 6.73979 13.3124 6.76502 14.0567L6.91224 18.4C6.93367 19.0321 7.31368 19.5967 7.89126 19.8545L10.8238 21.1634C11.3175 21.136 11.8028 21.0013 12.2443 20.7641L12.7509 20.4921C13.6504 20.009 14.2059 19.0651 14.1915 18.0442L14.0937 11.093C14.0741 9.69686 13.0059 8.5397 11.6159 8.40859Z" fill="#6B4330"/>
<path d="M6.91272 18.4L6.7655 14.0567C6.74027 13.3124 7.21552 12.6431 7.92651 12.4214L11.4248 11.3311L2.80005 10.5931C2.76857 10.7775 2.75537 10.9667 2.76273 11.1585L3.01056 17.6102C3.05938 18.8812 3.97798 19.9508 5.22703 20.191L9.99412 21.1076C10.2694 21.1605 10.5481 21.1787 10.8243 21.1634L7.89174 19.8545C7.31416 19.5967 6.93414 19.0321 6.91272 18.4Z" fill="#82513A"/>
<path d="M15.6989 12.946C15.6848 12.7235 15.6401 12.5116 15.5698 12.3169L15.5692 12.3139L15.5686 12.3136L14.111 11.4891L14.1425 11.9773L14.923 12.4644L12.5753 13.0111L12.1115 13.1191L8.30858 14.0047L8.22666 13.9839L2.65251 12.5648L8.26681 14.4254C8.26681 14.4254 8.26701 14.4253 8.26704 14.4253C8.45015 15.3261 9.22672 16.021 10.1857 16.0613C11.3146 16.1087 12.2683 15.2313 12.3158 14.1014C12.3229 13.9307 12.3087 13.7641 12.276 13.604C12.3837 13.5822 12.4911 13.5605 12.5978 13.5389C12.7306 14.3932 13.3204 15.0475 14.0552 15.0784C14.9196 15.1147 15.657 14.2746 15.7021 13.202C15.7056 13.117 15.7043 13.0333 15.6992 12.9509C15.6993 12.9503 15.6995 12.95 15.6995 12.9491L15.6989 12.946Z" fill="black"/>
<path d="M13.7062 17.192C13.4878 17.4208 12.9323 17.9409 12.0383 18.165C11.0338 18.4169 10.2154 18.1413 9.92787 18.0293L10.0844 18.5384C10.2074 18.8038 10.3528 19.0437 10.5117 19.2532L10.5986 19.0859L10.8726 19.2593L11.0024 19.7697C11.1473 19.8887 11.2957 19.9837 11.443 20.0522L11.402 19.4162L12.0519 19.1037L12.1741 19.887L12.3282 19.2095L12.8897 19.0991L12.8658 18.7273L13.1582 18.6614L13.2294 18.8907C13.3732 18.5307 13.4771 18.1645 13.5537 17.8941C13.6353 17.6063 13.6804 17.3614 13.7062 17.192ZM11.5689 18.9371L11.36 19.1483L10.8576 19.0268L10.8167 18.3922L11.1336 18.3223L11.5355 18.4205L11.5689 18.9371ZM12.8516 18.5081L12.6523 18.8671L12.2861 18.9402L12.2833 18.2481L12.8214 18.0403L12.8516 18.5081ZM13.4171 18.076L13.2078 18.2807L13.178 17.8195L13.4576 17.5542L13.4171 18.076Z" fill="black"/>
<path d="M10.8167 18.3922L10.8576 19.0268L11.36 19.1484L11.5689 18.9371L11.5355 18.4205L11.1336 18.3223L10.8167 18.3922Z" fill="white"/>
<path d="M12.286 18.9402L12.6521 18.8672L12.8515 18.5081L12.8213 18.0403L12.2832 18.2481L12.286 18.9402Z" fill="white"/>
<path d="M13.2076 18.2807L13.417 18.076L13.4574 17.5542L13.1779 17.8195L13.2076 18.2807Z" fill="white"/>
<path d="M12.8653 18.7273L12.8893 19.0991L12.3277 19.2095L12.1736 19.887L12.0514 19.1037L11.4015 19.4162L11.4426 20.0522C11.6858 20.1653 11.926 20.2062 12.1419 20.161C12.6496 20.0547 12.9931 19.4811 13.229 18.8907L13.1577 18.6614L12.8653 18.7273Z" fill="white"/>
<path d="M10.5987 19.086L10.5119 19.2532C10.6653 19.4555 10.8314 19.6292 11.0025 19.7698L10.8727 19.2593L10.5987 19.086Z" fill="white"/>
<path d="M16.2351 25.7319L15.3971 26.9234L14.2089 26.9012L11.2261 28.8129L9.64594 31.6709L8.28613 31.2889L9.68408 32.2618L11.5218 29.3228L12.542 28.6558L12.8937 29.508L13.3646 27.9941L14.3424 27.4365L15.5028 27.411L16.2351 25.7319Z" fill="#4A2E21"/>
<path d="M12.4863 33.1496L13.761 31.9987L13.2413 32.9718L12.4863 33.1496Z" fill="#4A2E21"/>
<path d="M14.6905 31.7657L16.041 31.6785L16.5117 30.008L16.1429 32.3395L14.6905 31.7657Z" fill="#4A2E21"/>
<path d="M7.47586 26.088L6.94469 22.9852C6.74943 21.8446 5.79351 20.9893 4.63831 20.9215L-1.02505 20.589C-2.18968 20.5207 -3.24539 21.2708 -3.56405 22.393L-4.40735 25.3629C-4.41272 25.3818 -4.41767 25.4008 -4.42259 25.4199C-4.44304 25.499 -4.45977 25.579 -4.47235 25.6597L-5.90866 34.8859C-6.11719 36.2254 -5.21492 37.4852 -3.87963 37.7191L2.1589 38.7767C3.44598 39.0021 4.68812 38.1934 5.00273 36.9252L7.43835 27.1068C7.47996 26.939 7.50383 26.7678 7.50993 26.596C7.51595 26.4264 7.50465 26.2562 7.47586 26.088Z" fill="#6B4330"/>
<path d="M-4.47247 25.6597L-5.90879 34.8859C-6.11732 36.2254 -5.21505 37.4853 -3.87975 37.7191L2.15877 38.7767C3.44585 39.0021 4.68799 38.1934 5.0026 36.9252L7.43822 27.1068C7.47984 26.939 7.50371 26.7678 7.5098 26.596L-4.42272 25.4199C-4.44317 25.499 -4.4599 25.579 -4.47247 25.6597Z" fill="#6B4330"/>
<path d="M7.47547 26.088L6.9443 22.9852C6.74904 21.8446 5.79312 20.9893 4.63792 20.9215L-1.02544 20.589C-2.19007 20.5207 -3.24577 21.2708 -3.56444 22.393L-4.40773 25.3629C-4.41311 25.3818 -4.41806 25.4008 -4.42298 25.4199L7.50954 26.596C7.51556 26.4264 7.50426 26.2562 7.47547 26.088Z" fill="#8F624D"/>
<path d="M25.7499 22.861L25.3833 18.9473C25.3759 18.8681 25.3636 18.7899 25.3475 18.7127C25.3465 18.7081 25.3455 18.7035 25.3445 18.6988C25.2482 18.2519 25.0096 17.8454 24.6604 17.5433L21.7168 14.997C21.1252 14.4853 20.2997 14.3414 19.5699 14.6227L15.1655 16.3204C14.6313 16.5263 14.2212 16.9306 13.9979 17.4244C13.836 17.7824 13.7721 18.1873 13.8313 18.5981L14.0792 20.3193C14.1403 20.7428 14.3282 21.138 14.6182 21.4526L16.5112 23.506C16.8226 23.8439 17.0157 24.2739 17.0613 24.7312L17.3793 27.9212L17.9986 28.2601C18.5161 28.5433 19.0971 28.6442 19.6568 28.5714C20.1564 28.5064 20.639 28.303 21.0441 27.9667L24.9941 24.6877C25.5323 24.241 25.8151 23.5573 25.7499 22.861Z" fill="#8F624D"/>
<path d="M17.1361 21.6761L13.9979 17.4244C13.836 17.7824 13.7721 18.1873 13.8313 18.5981L14.0792 20.3193C14.1403 20.7428 14.3282 21.1379 14.6182 21.4526L16.5112 23.506C16.8226 23.8439 17.0157 24.2739 17.0613 24.7312L17.3793 27.9212L17.9986 28.2601C18.5161 28.5433 19.0971 28.6442 19.6568 28.5714C19.048 26.8895 17.4813 22.5106 17.1774 21.6612L17.1361 21.6761Z" fill="#82513A"/>
<path d="M24.9935 24.6877C25.5316 24.241 25.8145 23.5573 25.7492 22.861L25.3827 18.9473C25.3753 18.868 25.3629 18.7898 25.3468 18.7126L17.1768 21.6611C17.4806 22.5106 19.0474 26.8894 19.6562 28.5714C20.1558 28.5064 20.6384 28.303 21.0435 27.9667L24.9935 24.6877Z" fill="#6B4330"/>
<path d="M25.3446 18.6988C25.2483 18.2519 25.0098 17.8454 24.6605 17.5433L21.7169 14.997C21.1254 14.4853 20.2999 14.3414 19.5701 14.6227L15.1657 16.3204C14.6315 16.5263 14.2214 16.9306 13.998 17.4244L17.1362 21.6761L17.1775 21.6612L25.3476 18.7127C25.3467 18.7081 25.3456 18.7035 25.3446 18.6988Z" fill="#8F624D"/>
<path d="M11.3545 14.6487C11.7421 14.6237 12.0424 14.3885 12.0253 14.1233C12.0082 13.8581 11.6801 13.6635 11.2926 13.6885C10.905 13.7135 10.6047 13.9487 10.6218 14.2139C10.6389 14.4791 10.967 14.6738 11.3545 14.6487Z" fill="#4D4D4D"/>
<path d="M14.7872 13.8337C15.1747 13.8087 15.475 13.5735 15.4579 13.3083C15.4408 13.0431 15.1127 12.8485 14.7252 12.8735C14.3376 12.8985 14.0373 13.1337 14.0544 13.3989C14.0715 13.6641 14.3996 13.8588 14.7872 13.8337Z" fill="#4D4D4D"/>
<path d="M14.7164 8.89273C14.2757 8.04272 13.3407 6.60738 11.6321 5.72985C10.4776 5.13694 9.19986 4.91686 7.96637 5.02766C6.57543 5.15261 5.24075 5.69831 4.20252 6.60498C2.45303 8.13279 1.95092 10.3311 1.9122 10.511C1.85461 10.7786 1.82064 11.0146 1.79979 11.2021C1.78561 11.2522 1.78019 11.302 1.78479 11.3515C1.86231 12.1852 4.63943 12.6044 8.04124 12.3112C8.12697 12.3038 8.21298 12.2961 8.29947 12.2878C11.8179 11.9502 14.6058 10.9837 14.5263 10.129L14.7244 9.72898C14.8542 9.46695 14.8516 9.15348 14.7164 8.89273Z" fill="#524413"/>
<path d="M14.717 8.89273C14.2763 8.04272 13.3413 6.60738 11.6327 5.72985C10.4782 5.13694 9.20044 4.91686 7.96695 5.02766C7.50673 5.30623 7.04819 5.69763 6.67121 6.24788C5.80479 7.51254 5.55214 9.34884 6.47435 10.8594C6.90311 11.5618 7.47777 12.0165 8.04183 12.3112C8.12756 12.3038 8.21357 12.2961 8.30005 12.2878C11.8185 11.9502 14.6064 10.9837 14.5269 10.129L14.725 9.72898C14.8547 9.46695 14.8521 9.15348 14.717 8.89273Z" fill="#42370F"/>
<path d="M6.47375 10.8594C5.55153 9.34884 5.80418 7.51254 6.67061 6.24788C7.04759 5.69763 7.50613 5.30623 7.96635 5.02766C6.57541 5.15261 5.24073 5.69831 4.2025 6.60498C2.45301 8.13279 1.95091 10.3311 1.91218 10.511C1.8546 10.7786 1.82062 11.0146 1.79978 11.2021C1.78559 11.2522 1.78017 11.302 1.78477 11.3515C1.8623 12.1852 4.63941 12.6044 8.04122 12.3112C7.47717 12.0165 6.90251 11.5618 6.47375 10.8594Z" fill="#524413"/>
<path d="M24.7764 0.505198L24.1683 -2.23996C24.1284 -2.42014 23.8716 -2.42014 23.8317 -2.23995L23.2236 0.505198C22.6812 5.07668 19.077 8.68095 14.5055 9.22337L11.7601 9.8314C11.5799 9.8713 11.5799 10.1282 11.7601 10.1681L14.5055 10.7761C19.077 11.3185 22.6812 14.9228 23.2236 19.4942L23.8317 22.2398C23.8716 22.42 24.1284 22.42 24.1683 22.2398L24.7764 19.4942C25.3188 14.9228 28.9231 11.3185 33.4945 10.7761L36.2399 10.1683C36.4201 10.1284 36.4201 9.87152 36.2399 9.8316L33.4945 9.22337C28.9231 8.68095 25.3188 5.07668 24.7764 0.505198Z" fill="#ABA38F"/>
</g>
<defs>
<clipPath id="clip0_3644_50261">
<rect width="32" height="32" rx="7" fill="white"/>
</clipPath>
</defs>
</svg>
