<svg width="32" height="32" viewBox="0 0 32 32" fill="none" xmlns="http://www.w3.org/2000/svg">
<g clip-path="url(#clip0_1537_394185)">
<rect width="32" height="32" rx="7" fill="#44AAF6"/>
<path d="M24.7764 0.505198L24.1683 -2.23996C24.1284 -2.42014 23.8716 -2.42014 23.8317 -2.23995L23.2236 0.505198C22.6812 5.07668 19.077 8.68095 14.5055 9.22337L11.7601 9.8314C11.5799 9.8713 11.5799 10.1282 11.7601 10.1681L14.5055 10.7761C19.077 11.3185 22.6812 14.9228 23.2236 19.4942L23.8317 22.2398C23.8716 22.42 24.1284 22.42 24.1683 22.2398L24.7764 19.4942C25.3188 14.9228 28.9231 11.3185 33.4945 10.7761L36.2399 10.1683C36.4201 10.1284 36.4201 9.87152 36.2399 9.8316L33.4945 9.22337C28.9231 8.68095 25.3188 5.07668 24.7764 0.505198Z" fill="#6BC0FF"/>
<g clip-path="url(#clip1_1537_394185)">
<path d="M-1.38718 14.9076C-1.93125 15.6365 -2.18018 16.5743 -2.02098 17.5234L0.0958849 30.1437C0.288467 31.2918 1.05119 32.2634 2.12074 32.7231L4.81876 33.8828C5.23159 34.0602 5.67282 34.1535 6.11706 34.1605L2.75235 14.9486L-1.38718 14.9076Z" fill="url(#paint0_radial_1537_394185)"/>
<path d="M19.9518 10.5171L18.3564 4.74244L16.3769 5.21604C16.3768 5.21606 16.3768 5.21608 16.3767 5.2161L16.3764 5.21616C16.07 5.29216 15.7928 5.52629 15.6504 5.91764C14.7721 7.51738 13.8472 9.36868 13.5031 11.2914L6.87942 12.2344L4.10932 6.09756L2.43973 6.66279C3.59626 6.27126 2.92153 6.49968 2.28711 6.71446L2.216 6.73853C1.86925 6.87443 1.6173 7.18711 1.51772 7.74152C1.20373 9.48959 0.69726 11.5085 0.85963 13.3348L0.872007 13.474L0.124642 13.7617C-0.495778 14.0006 -1.01243 14.4044 -1.38828 14.9079L1.0016 14.9316L2.75126 14.9489L3.30894 14.8561L16.839 12.6038L20.3667 12.0166L22.0911 11.7295C21.5577 11.0816 20.7962 10.6431 19.9518 10.5171Z" fill="url(#paint1_radial_1537_394185)"/>
<path d="M25.3401 26.6227L22.8103 13.2668C22.7721 13.0648 22.7163 12.8704 22.6456 12.6844L22.646 12.6844L22.3464 11.6385C21.7066 9.40416 20.7098 7.3083 19.4036 5.4513C18.9753 4.496 17.7399 4.5124 17.3637 5.47837C16.2927 7.312 15.1556 9.47442 14.9436 11.6921L14.8823 12.9295L10.6163 13.6397L10.6163 13.6397L8.95199 10.9941C7.89254 9.23737 6.59856 7.72746 5.13353 6.53842C4.44441 5.66677 3.30477 6.01998 3.06878 7.17836C2.71187 8.93025 2.38655 10.843 2.54892 12.6693L2.76109 15.0557L2.77002 15.0541L6.1163 34.1608C6.38019 34.1649 6.64514 34.1387 6.90584 34.0813L22.7114 30.6042C24.5202 30.2063 25.6847 28.4424 25.3401 26.6227Z" fill="url(#paint2_radial_1537_394185)"/>
<path d="M20.4296 25.8703C22.4639 25.6894 23.9584 23.8046 23.7678 21.6604C23.5772 19.5161 21.7735 17.9245 19.7393 18.1054C17.705 18.2862 16.2105 20.1711 16.4011 22.3153C16.5917 24.4595 18.3954 26.0512 20.4296 25.8703Z" fill="#8F97A1"/>
<path d="M20.6311 25.3227C22.5277 25.154 23.9211 23.3968 23.7433 21.3977C23.5656 19.3986 21.884 17.9147 19.9875 18.0834C18.0909 18.252 16.6975 20.0092 16.8753 22.0083C17.053 24.0074 18.7346 25.4913 20.6311 25.3227Z" fill="#A3ACB8"/>
<path d="M9.08539 27.8069C11.1196 27.6261 12.6142 25.7412 12.4236 23.597C12.2329 21.4528 10.4293 19.8612 8.39503 20.042C6.36077 20.2229 4.86621 22.1077 5.05685 24.252C5.24749 26.3962 7.05112 27.9878 9.08539 27.8069Z" fill="#8F97A1"/>
<path d="M9.19508 27.3992C11.0916 27.2306 12.485 25.4733 12.3073 23.4742C12.1296 21.4752 10.448 19.9913 8.55145 20.1599C6.6549 20.3285 5.26151 22.0858 5.43924 24.0849C5.61698 26.0839 7.29852 27.5678 9.19508 27.3992Z" fill="#A3ACB8"/>
<path d="M9.93769 26.6476C10.4377 26.54 10.5757 25.2098 10.2459 23.6765C9.91607 22.1431 9.24333 20.9872 8.74329 21.0948C8.24325 21.2024 8.10527 22.5326 8.43509 24.066C8.76492 25.5993 9.43766 26.7552 9.93769 26.6476Z" fill="#22232E"/>
<path d="M13.9107 25.5335L15.0012 25.3446C15.2579 25.3001 15.4524 25.572 15.3273 25.8006L14.9234 26.5391C14.8305 26.7089 14.6069 26.7537 14.4558 26.6327L13.7693 26.0831C13.5599 25.9155 13.6464 25.5792 13.9107 25.5335Z" fill="#22232E"/>
<path d="M14.6835 26.6128C14.8769 27.0135 15.1235 27.3881 15.4504 27.6901C15.7648 27.9769 16.137 28.2061 16.5347 28.356C17.2515 28.6325 18.0258 28.5217 18.673 28.1139C18.7686 28.0548 18.8628 27.9908 18.9565 27.9226C18.7091 28.3133 18.3127 28.6262 17.8462 28.7765C17.1408 29.0141 16.3477 28.8168 15.7549 28.3904C15.1657 27.9919 14.7363 27.3143 14.6835 26.6128Z" fill="#22232E"/>
<path d="M14.68 26.563C14.8865 27.2355 14.7337 28.0229 14.3302 28.6088C13.9336 29.2218 13.2667 29.6948 12.5234 29.7305C12.0342 29.7605 11.551 29.6136 11.1782 29.3399C11.2903 29.3693 11.4014 29.3945 11.5119 29.4148C12.2637 29.5586 13.0243 29.3798 13.5914 28.861C13.9072 28.5764 14.1702 28.2273 14.3585 27.8457C14.5528 27.4454 14.6459 27.0067 14.68 26.563Z" fill="#22232E"/>
<path d="M21.6931 26.9013C22.6004 26.1249 23.5846 25.4463 24.5825 24.7941C25.586 24.1506 26.6084 23.531 27.689 23.0225C26.7822 23.7996 25.7979 24.4782 24.7996 25.1297C23.7956 25.7726 22.7733 26.392 21.6931 26.9013Z" fill="#22232E"/>
<path d="M21.7626 27.6796C22.9116 27.443 24.0806 27.3296 25.249 27.2457C26.4191 27.1721 27.5945 27.1285 28.7662 27.2103C27.617 27.4475 26.4482 27.5612 25.2799 27.6442C24.1098 27.7171 22.9347 27.7602 21.7626 27.6796Z" fill="#22232E"/>
<path d="M9.17944 29.1562C7.98649 29.101 6.80461 28.9217 5.63073 28.7139C4.45869 28.4958 3.28935 28.2474 2.15356 27.8782C3.34659 27.9326 4.52853 28.1119 5.70228 28.3205C6.87417 28.5394 8.04342 28.7879 9.17944 29.1562Z" fill="#22232E"/>
<path d="M9.41635 29.9016C8.36513 30.4263 7.26359 30.8379 6.15534 31.22C5.04469 31.5921 3.922 31.9362 2.76976 32.1586C3.82015 31.6329 4.92216 31.2217 6.03078 30.8402C7.14181 30.4689 8.26458 30.1245 9.41635 29.9016Z" fill="#22232E"/>
<path d="M21.3066 24.5552C21.8066 24.4476 21.9446 23.1174 21.6148 21.584C21.285 20.0507 20.6122 18.8948 20.1122 19.0024C19.6121 19.11 19.4742 20.4402 19.804 21.9735C20.1338 23.5069 20.8066 24.6628 21.3066 24.5552Z" fill="#22232E"/>
<path d="M7.95704 23.1875C8.50094 23.1391 8.90265 22.659 8.85429 22.1151C8.80594 21.5712 8.32582 21.1695 7.78193 21.2179C7.23803 21.2662 6.83632 21.7463 6.88468 22.2902C6.93303 22.8341 7.41315 23.2358 7.95704 23.1875Z" fill="white"/>
<path d="M9.3395 23.8645C9.59187 23.8421 9.77828 23.6193 9.75584 23.3669C9.7334 23.1145 9.51062 22.9281 9.25824 22.9506C9.00586 22.973 8.81946 23.1958 8.8419 23.4482C8.86434 23.7006 9.08712 23.887 9.3395 23.8645Z" fill="white"/>
<path d="M18.8953 21.3778C19.4392 21.3294 19.8409 20.8493 19.7925 20.3054C19.7442 19.7615 19.2641 19.3598 18.7202 19.4082C18.1763 19.4565 17.7746 19.9366 17.8229 20.4805C17.8713 21.0244 18.3514 21.4261 18.8953 21.3778Z" fill="white"/>
<path d="M20.2743 22.0553C20.5267 22.0329 20.7131 21.8101 20.6907 21.5577C20.6682 21.3053 20.4454 21.1189 20.1931 21.1414C19.9407 21.1638 19.7543 21.3866 19.7767 21.639C19.7992 21.8914 20.0219 22.0778 20.2743 22.0553Z" fill="white"/>
</g>
</g>
<defs>
<radialGradient id="paint0_radial_1537_394185" cx="0" cy="0" r="1" gradientUnits="userSpaceOnUse" gradientTransform="translate(-4.10885 34.9986) rotate(-5.08065) scale(16.1954 16.1954)">
<stop stop-color="#141D25"/>
<stop offset="1" stop-color="#354D5E"/>
</radialGradient>
<radialGradient id="paint1_radial_1537_394185" cx="0" cy="0" r="1" gradientUnits="userSpaceOnUse" gradientTransform="translate(12.1738 5.14334) rotate(-5.08065) scale(25.3051 25.3051)">
<stop offset="0.0055866" stop-color="#748C99"/>
<stop offset="1" stop-color="#364752"/>
</radialGradient>
<radialGradient id="paint2_radial_1537_394185" cx="0" cy="0" r="1" gradientUnits="userSpaceOnUse" gradientTransform="translate(15.2604 8.65196) rotate(-5.08065) scale(27.9446)">
<stop stop-color="#647984"/>
<stop offset="1" stop-color="#253949"/>
</radialGradient>
<clipPath id="clip0_1537_394185">
<rect width="32" height="32" rx="7" fill="white"/>
</clipPath>
<clipPath id="clip1_1537_394185">
<rect width="29.8155" height="28.2378" fill="white" transform="translate(-3 6.64038) rotate(-5.08065)"/>
</clipPath>
</defs>
</svg>
