<svg width="32" height="32" viewBox="0 0 32 32" fill="none" xmlns="http://www.w3.org/2000/svg">
<g clip-path="url(#clip0_3375_122596)">
<rect width="32" height="32" rx="7" fill="#FFC847"/>
<path d="M24.7764 0.505198L24.1683 -2.23996C24.1284 -2.42014 23.8716 -2.42014 23.8317 -2.23995L23.2236 0.505198C22.6812 5.07668 19.077 8.68095 14.5055 9.22337L11.7601 9.8314C11.5799 9.8713 11.5799 10.1282 11.7601 10.1681L14.5055 10.7761C19.077 11.3185 22.6812 14.9228 23.2236 19.4942L23.8317 22.2398C23.8716 22.42 24.1284 22.42 24.1683 22.2398L24.7764 19.4942C25.3188 14.9228 28.9231 11.3185 33.4945 10.7761L36.2399 10.1683C36.4201 10.1284 36.4201 9.87152 36.2399 9.8316L33.4945 9.22337C28.9231 8.68095 25.3188 5.07668 24.7764 0.505198Z" fill="#FFECBF"/>
<path d="M12.4713 32.3332L11.1854 32.6755C10.434 32.8756 9.81162 32.0737 10.1918 31.3954L10.9607 30.0236C11.0337 29.8932 11.0724 29.7464 11.073 29.597L11.1195 17.9073C11.1206 17.6269 11.2466 17.3921 11.4346 17.2361C11.2122 16.9476 10.9194 16.7127 10.5755 16.5585L8.467 15.6129C8.11636 15.4556 7.73123 15.391 7.34848 15.4252L3.9282 15.7311C3.64197 15.7567 3.36331 15.837 3.10737 15.9677L-0.0787371 17.5944C-1.01943 18.0747 -1.49804 19.1459 -1.22825 20.1671L0.545173 26.8795L1.37273 26.786C1.671 26.7522 1.94754 26.9463 2.01722 27.2383L2.619 29.7598C2.65231 29.8994 2.73506 30.0222 2.85193 30.1055L4.04265 30.9545C4.48906 31.2727 4.30274 31.9743 3.75724 32.0291L2.9804 32.1072C2.71854 32.1335 2.50522 32.329 2.45621 32.5876L1.29605 38.7089C1.27664 38.8113 1.23488 38.8987 1.17826 38.9699L6.8872 39.1359L6.81532 36.0538L9.37925 35.262L13.2303 39.9572L18.2272 38.6152L13.3812 32.6297C13.1629 32.3601 12.8065 32.244 12.4713 32.3332Z" fill="#FD2B2D"/>
<path d="M13.7161 30.2307L13.0216 28.5986C12.9329 28.3903 12.8763 28.1698 12.8536 27.9446L11.8903 18.3819C11.8475 17.9576 11.6862 17.5626 11.4345 17.2362C11.2465 17.3923 11.1205 17.6271 11.1194 17.9075L11.0728 29.5972C11.0722 29.7466 11.0336 29.8934 10.9605 30.0237L10.1917 31.3956C9.8115 32.0739 10.4339 32.8757 11.1853 32.6757L12.4711 32.3334C12.8064 32.2441 13.1628 32.3603 13.3811 32.6299L18.2271 38.6153L18.7631 38.4714L13.7161 30.2307Z" fill="#F50406"/>
<path d="M2.45597 32.5877C2.50498 32.3292 2.7183 32.1337 2.98016 32.1073L3.757 32.0293C4.3025 31.9744 4.48882 31.2729 4.04241 30.9546L2.85169 30.1057C2.73482 30.0224 2.65207 29.8995 2.61875 29.7599L2.01698 27.2385C1.9473 26.9465 1.67075 26.7524 1.37249 26.7861L0.544931 26.8797L1.29193 29.7071C1.34747 29.9174 1.37217 30.1346 1.36525 30.3519L1.30805 32.1498L0.909579 38.9623L1.17802 38.9701C1.23463 38.8988 1.2764 38.8115 1.2958 38.7091L2.45597 32.5877Z" fill="#FD5658"/>
<path d="M13.0899 19.1812L29.9689 18.3796C29.9823 18.2547 29.938 18.1226 29.821 18.0291L27.4708 16.151C27.3943 16.0899 27.298 16.0591 27.2003 16.0645L18.4261 16.5503L10.2563 17.3168C9.99971 17.3409 9.7564 17.4422 9.55861 17.6075L9.28838 17.8334C9.116 17.9774 8.9076 18.0717 8.6856 18.1061L2.38363 19.0817L2.36295 19.3147L2.57921 19.7807C2.72978 20.1052 3.07619 20.2915 3.42988 20.2384L6.63927 19.7559C7.07374 19.6906 7.48351 19.9762 7.5726 20.4065C8.48883 20.8116 9.46071 21.0769 10.4557 21.1934L22.4631 22.5994C22.4642 22.5984 22.4654 22.5975 22.4666 22.5965L22.6639 22.4282C23.0331 22.1132 23.1499 21.5921 22.9504 21.1496L22.9325 21.11C22.758 20.7229 22.3748 20.4722 21.9503 20.4673L19.0913 20.4344C18.9686 20.433 18.8496 20.4111 18.738 20.3714L13.0899 19.1812Z" fill="#FD2B2D"/>
<path d="M7.57237 20.4064C7.48327 19.9762 7.07351 19.6906 6.63904 19.7559L3.42964 20.2383C3.07595 20.2914 2.72954 20.1051 2.57898 19.7807L2.36271 19.3147L2.26196 20.4497C2.23807 20.7189 2.48369 20.9331 2.74717 20.8729L6.73204 19.9617C6.50146 20.2349 6.40735 20.6172 6.5229 20.9897L6.67671 21.4856C6.75234 21.7294 6.91105 21.939 7.12524 22.0779L9.25771 23.4607C9.4549 23.5886 9.6881 23.6493 9.92262 23.634L21.8293 22.8552C22.0625 22.8399 22.2845 22.7502 22.4628 22.5993L10.4555 21.1933C9.46048 21.0768 8.4886 20.8115 7.57237 20.4064Z" fill="#F50406"/>
<path d="M9.28857 17.8334L9.5588 17.6076C9.7566 17.4423 9.9999 17.3409 10.2565 17.3168L18.4263 16.5503L9.53848 17.0423C9.40526 17.0497 9.2846 17.1233 9.21712 17.2384L8.93071 17.7269C8.86647 17.8364 8.7538 17.9088 8.62743 17.9216L2.75844 18.5156C2.56848 18.5348 2.41893 18.6862 2.40204 18.8764L2.38382 19.0817L8.6858 18.1061C8.90779 18.0717 9.11619 17.9774 9.28857 17.8334Z" fill="#FD5658"/>
<path d="M1.89137 18.973C1.98621 19.0726 2.12464 19.121 2.26299 19.1L2.14872 18.8537L1.89137 18.973Z" fill="#FD5658"/>
<path d="M18.0932 19.7551L17.8472 19.1513L29.5864 18.7378C29.8059 18.7301 29.9492 18.5626 29.9688 18.3795L13.0898 19.1811L18.7379 20.3713C18.4502 20.2689 18.2126 20.0481 18.0932 19.7551Z" fill="#F50406"/>
<path d="M-0.851715 26.4743L5.82391 27.2913C5.91937 27.303 6.01624 27.2917 6.10645 27.2584L10.8773 25.4966C11.0331 25.439 11.1583 25.3199 11.2235 25.1672L12.132 23.0388C12.113 22.4694 11.7289 21.9675 11.1694 21.8087L7.97573 20.9017C7.80246 20.8525 7.62098 20.8391 7.44237 20.8624L3.7234 21.3468C3.58099 21.3653 3.44255 21.4069 3.31348 21.4699L3.25304 21.4993C3.12614 21.5612 2.99486 21.6004 2.86331 21.6197L0.730326 23.113C0.11686 23.5425 -0.736891 23.2814 -1.00512 22.5822L-2.60608 18.4091C-2.69078 18.4713 -2.76824 18.5435 -2.83649 18.6247L-4.71636 20.8606C-5.03046 21.2342 -5.11387 21.7501 -4.93348 22.2037L-4.45614 23.4037L-1.1803 26.3256C-1.08848 26.4075 -0.973841 26.4594 -0.851715 26.4743Z" fill="#FD2B2D"/>
<path d="M2.86307 21.6197C2.234 21.712 1.59844 21.3381 1.40284 20.6918L0.786091 18.6542C0.570506 17.942 -0.188977 17.5467 -0.896042 17.7787L-2.23536 18.2182C-2.36896 18.262 -2.49402 18.3267 -2.60631 18.4091L-1.01381 22.5601C-0.741279 23.2705 0.126141 23.5358 0.749429 23.0995L2.86307 21.6197Z" fill="#F50406"/>
<path d="M-1.56972 28.503L6.01175 28.7404C6.2451 28.7477 6.47624 28.6932 6.6818 28.5825L11.2771 26.1078C11.671 25.8957 11.9313 25.4993 11.9694 25.0535L12.1281 23.1966C12.1327 23.1435 12.1337 23.0908 12.1319 23.0386L11.2234 25.167C11.1582 25.3198 11.033 25.4389 10.8772 25.4964L6.1064 27.2582C6.01619 27.2916 5.91932 27.3028 5.82386 27.2912L-0.851767 26.4742C-0.973893 26.4592 -1.08854 26.4074 -1.18036 26.3255L-4.45619 23.4036L-2.76003 27.6679C-2.56492 28.1584 -2.09736 28.4864 -1.56972 28.503Z" fill="#FD5658"/>
<path d="M2.05002 17.0849C2.35682 17.127 2.67511 17.124 2.99661 17.0697L8.21358 16.189C8.47319 16.1452 8.71979 16.0704 8.95046 15.9693L2.05002 17.0849Z" fill="#FD2B2D"/>
<path d="M8.81395 12.0045L8.82096 4.47548C8.12975 3.78438 7.12571 3.42694 6.0885 3.60204L4.34552 3.89628L0.463714 6.37397C-0.090738 6.72787 -0.410889 7.35348 -0.373522 8.01019C-0.258433 10.0328 -0.0106378 14.3774 0.0866706 16.0032C0.508311 16.5021 1.07967 16.8607 1.71834 17.0207L7.31976 14.3643C8.23148 13.932 8.81301 13.0136 8.81395 12.0045Z" fill="#FD2B2D"/>
<path d="M1.71835 17.0206L1.34171 17.1992L2.04954 17.0848C1.93745 17.0694 1.82695 17.0478 1.71835 17.0206Z" fill="#F50406"/>
<path d="M10.7756 12.5866L9.69139 6.16396C9.57913 5.49893 9.26455 4.91866 8.82137 4.47555L8.81436 12.0046C8.81342 13.0136 8.23189 13.9321 7.32017 14.3644L1.71874 17.0207C1.82744 17.0479 1.93802 17.0695 2.05021 17.0849L8.95064 15.9693C10.2324 15.4075 11.0192 14.0292 10.7756 12.5866Z" fill="#F50406"/>
<path d="M0.463947 6.37398L4.34575 3.89629L0.871756 4.48275C-0.830481 4.77011 -1.97746 6.383 -1.6901 8.08523L-0.605871 14.5079C-0.509234 15.0803 -0.262528 15.5898 0.086904 16.0032C-0.0104043 14.3774 -0.258205 10.0328 -0.373293 8.0102C-0.410661 7.35349 -0.0905044 6.72788 0.463947 6.37398Z" fill="#FD2B2D"/>
<path d="M1.89109 7.73589C1.79176 7.15407 1.23957 6.76293 0.657745 6.86226C0.0759168 6.96159 -0.315228 7.51378 -0.215896 8.09561L0.750848 13.7582C0.850179 14.3401 1.40237 14.7312 1.9842 14.6319C2.56603 14.5325 2.95717 13.9803 2.85784 13.3985L1.89109 7.73589Z" fill="#FD5658"/>
</g>
<defs>
<clipPath id="clip0_3375_122596">
<rect width="32" height="32" rx="7" fill="white"/>
</clipPath>
</defs>
</svg>
