<svg width="32" height="32" viewBox="0 0 32 32" fill="none" xmlns="http://www.w3.org/2000/svg">
<g clip-path="url(#clip0_3440_100018)">
<rect width="32" height="32" rx="7" fill="#A03FFA"/>
<path d="M24.7764 0.505198L24.1683 -2.23996C24.1284 -2.42014 23.8716 -2.42014 23.8317 -2.23995L23.2236 0.505198C22.6812 5.07668 19.077 8.68095 14.5055 9.22337L11.7601 9.8314C11.5799 9.8713 11.5799 10.1282 11.7601 10.1681L14.5055 10.7761C19.077 11.3185 22.6812 14.9228 23.2236 19.4942L23.8317 22.2398C23.8716 22.42 24.1284 22.42 24.1683 22.2398L24.7764 19.4942C25.3188 14.9228 28.9231 11.3185 33.4945 10.7761L36.2399 10.1683C36.4201 10.1284 36.4201 9.87152 36.2399 9.8316L33.4945 9.22337C28.9231 8.68095 25.3188 5.07668 24.7764 0.505198Z" fill="#C78EFC"/>
<path d="M-0.048648 9.26577C-6.27489 13.3922 -5.48846 22.1203 -5.02676 27.2443C-4.61998 31.7588 -4.01752 38.4451 0.880819 41.2125C6.99363 44.666 16.7203 40.2783 19.967 33.8895C21.9018 30.0821 21.3346 25.9588 20.6524 20.9989C20.0618 16.705 19.7298 14.2919 17.9391 12.0632C14.1658 7.36703 5.56614 5.54458 -0.048648 9.26577Z" fill="#050505"/>
<path d="M15.3376 19.9692C15.9339 18.5663 15.6959 18.4597 16.2089 17.5075C16.389 17.1733 17.5359 15.0443 18.6451 15.0957C18.7652 15.1012 18.89 15.1326 19.0175 15.1872L19.3315 9.96268L13.7346 3.39912L5.05968 2.59813L-1.35603 8.8353L-2.07877 14.1074C-1.67145 13.8358 -1.2808 13.701 -0.958845 13.7453C0.14117 13.8967 0.881489 16.1989 0.99771 16.5603C1.32882 17.5899 1.07541 17.6515 1.40646 19.1394C1.59528 19.9881 1.93924 20.9309 2.6161 22.7674C2.65438 22.7941 2.69219 22.821 2.73114 22.8475C5.48074 24.7179 8.20559 24.8067 8.76315 24.8158C10.5822 24.8453 11.9819 24.3929 13.1028 23.961C13.2069 23.7877 13.3263 23.5884 13.4632 23.3581C14.4795 21.6477 14.9947 20.776 15.3376 19.9692Z" fill="#FFC972"/>
<path d="M18.6959 20.5414L19.0177 15.1873C18.8902 15.1327 18.7653 15.1013 18.6452 15.0957C17.536 15.0444 16.3891 17.1734 16.2091 17.5076C15.6961 18.4598 15.9341 18.5664 15.3378 19.9693C14.9948 20.7761 14.4797 21.6478 13.4633 23.3582C13.3265 23.5885 13.207 23.7878 13.1029 23.9611C13.2854 23.8907 13.4608 23.8209 13.6291 23.7539C16.0192 22.8012 17.6968 21.4689 18.6959 20.5414Z" fill="#F0BB65"/>
<path d="M0.997711 16.5602C0.881491 16.1988 0.141172 13.8967 -0.958844 13.7453C-1.28079 13.701 -1.67144 13.8358 -2.07876 14.1073L-2.53899 17.4645L-1.10904 18.421C-0.63779 19.3748 0.454548 21.2574 2.61611 22.7673C1.93924 20.9308 1.59528 19.9881 1.40646 19.1394C1.07541 17.6514 1.32882 17.5899 0.997711 16.5602Z" fill="#F0BB65"/>
<path opacity="0.22" d="M10.7361 14.9352C10.5256 14.8202 10.667 13.6825 11.3572 12.9138C12.2328 11.9387 13.6216 11.9691 14.115 11.9799C15.4854 12.0098 17.1883 12.6411 17.215 13.392C17.2349 13.9511 16.3196 14.4075 15.8889 14.6222C15.5843 14.7741 14.5129 15.3083 13.3348 14.9867C12.5162 14.7632 12.2209 14.2834 11.6102 14.4281C11.081 14.5535 10.8804 15.014 10.7361 14.9352Z" fill="#1F1F1F"/>
<path d="M15.4562 14.3902C15.5679 14.3902 15.7523 14.3756 15.9381 14.2764C16.6304 13.9069 16.6671 12.7233 16.6852 12.7272C16.6956 12.7295 16.6469 13.0822 16.4633 13.5044C16.2199 14.0638 15.5155 14.1078 15.3462 14.1298L15.4562 14.3902Z" fill="#1F1F1F"/>
<path d="M15.1112 14.0673C15.2069 14.0618 15.377 14.0408 15.5513 13.944C16.0239 13.6815 16.1875 13.0505 16.1728 13.0432C16.1658 13.0397 16.1225 13.1805 15.9973 13.334C15.8766 13.482 15.595 13.7459 14.9576 13.819L15.1112 14.0673Z" fill="#1F1F1F"/>
<path d="M14.7151 13.8595C14.8167 13.816 14.963 13.7396 15.1087 13.6069C15.3711 13.3678 15.4947 13.0706 15.478 13.0596C15.4663 13.0518 15.3949 13.189 15.258 13.308C15.0217 13.5134 14.715 13.5562 14.4646 13.5526L14.7151 13.8595Z" fill="#1F1F1F"/>
<path d="M14.2409 13.6275C14.3137 13.6089 14.41 13.575 14.5073 13.5083C14.7966 13.31 14.8854 12.9654 14.8766 12.9609C14.8705 12.9578 14.8282 13.1308 14.6748 13.2437C14.4926 13.3778 14.2497 13.3561 14.0772 13.3186L14.2409 13.6275Z" fill="#1F1F1F"/>
<path d="M13.9826 14.8411C14.1159 14.8899 14.1174 15.1675 14.1059 15.2812C14.1017 15.3232 14.094 15.3585 14.0868 15.3854C14.0434 15.5476 13.9458 15.666 13.9324 15.6588C13.9194 15.6518 14.022 15.5431 14.0131 15.3963C13.9988 15.1621 13.715 15.0702 13.7504 14.9421C13.7721 14.8636 13.9026 14.8118 13.9826 14.8411Z" fill="#1F1F1F"/>
<path d="M14.8799 14.4438C15.0218 14.4405 15.1249 14.6982 15.1558 14.8082C15.1672 14.8489 15.1731 14.8846 15.1762 14.9122C15.1952 15.0791 15.1476 15.2249 15.1326 15.2232C15.1179 15.2214 15.1736 15.0827 15.1116 14.9494C15.0125 14.7366 14.7148 14.7551 14.7008 14.6229C14.6923 14.5418 14.7947 14.4458 14.8799 14.4438Z" fill="#1F1F1F"/>
<path opacity="0.22" d="M6.79797 14.8841C7.01726 14.7867 6.96927 13.6413 6.34415 12.8187C5.55123 11.7753 4.1646 11.6921 3.67191 11.6625C2.30369 11.5804 0.55485 12.0704 0.466902 12.8166C0.401424 13.3722 1.27633 13.9018 1.68803 14.1511C1.97924 14.3274 3.00333 14.9473 4.20379 14.723C5.03797 14.5672 5.37147 14.1131 5.96825 14.3072C6.48552 14.4755 6.64776 14.9509 6.79797 14.8841Z" fill="#1F1F1F"/>
<path d="M7.23936 10.8787C7.52678 11.1058 7.41704 11.6928 7.17151 11.8496C6.97313 11.9763 6.68581 11.8376 6.34383 11.6659C5.2884 11.1361 4.76068 10.8713 4.43383 10.6515C2.81332 9.56213 1.12514 9.71636 1.14789 9.5177C1.16476 9.37037 2.21889 9.29947 3.24217 9.4512C4.94077 9.70307 4.98979 9.85453 6.4895 10.5373C6.65578 10.613 6.93311 10.6366 7.23936 10.8787Z" fill="#1F1F1F"/>
<path d="M10.6153 10.9334C10.3103 11.1362 10.3717 11.7303 10.6036 11.9066C10.791 12.049 11.0887 11.9343 11.4435 11.7912C12.5387 11.3494 13.0863 11.1286 13.43 10.9363C15.1342 9.98294 16.8041 10.2746 16.7977 10.0748C16.7929 9.92653 15.7481 9.76973 14.7158 9.83733C13.0023 9.94954 12.9411 10.0965 11.3906 10.6544C11.2187 10.7163 10.9403 10.7172 10.6153 10.9334Z" fill="#1F1F1F"/>
<path d="M3.09282 13.2939C2.99847 13.2363 2.86457 13.1398 2.73935 12.9876C2.5138 12.7135 2.434 12.4016 2.45213 12.3931C2.46479 12.3871 2.51588 12.5331 2.63433 12.6704C2.8388 12.9075 3.13623 12.9938 3.38462 13.026L3.09282 13.2939Z" fill="#1F1F1F"/>
<path d="M3.59572 13.132C3.52632 13.1032 3.43581 13.0559 3.34903 12.9759C3.09113 12.7383 3.0525 12.3846 3.06181 12.3814C3.06838 12.3791 3.08541 12.5564 3.2211 12.6901C3.38231 12.8489 3.62575 12.8621 3.80188 12.8497L3.59572 13.132Z" fill="#1F1F1F"/>
<path d="M2.3054 13.632C2.19558 13.6116 2.01694 13.5637 1.8523 13.4324C1.23878 12.943 1.41812 11.7725 1.39965 11.7731C1.389 11.7734 1.37267 12.1291 1.4764 12.5776C1.61385 13.172 2.29854 13.3434 2.461 13.3959L2.3054 13.632Z" fill="#1F1F1F"/>
<path d="M2.70305 13.3773C2.60997 13.3544 2.44651 13.3028 2.29272 13.1759C1.87582 12.8318 1.82971 12.1815 1.84549 12.177C1.85302 12.1749 1.87003 12.3212 1.96518 12.4949C2.0569 12.6624 2.28583 12.9732 2.89922 13.1611L2.70305 13.3773Z" fill="#1F1F1F"/>
<path d="M2.07223 13.3185C2.13618 12.9431 3.02688 12.5954 4.01757 12.6368C4.18625 12.6439 4.35779 12.6621 4.52868 12.6935C4.79623 12.7427 5.0621 12.8238 5.31252 12.9439C5.49193 13.0299 5.65909 13.134 5.81329 13.2491C5.97806 13.3722 6.12794 13.5079 6.26177 13.6482C6.83977 14.2541 7.11878 14.9439 7.00867 15.0527C6.9462 15.1144 6.78051 14.9673 6.41543 14.8371C5.59293 14.5436 5.04093 14.7928 4.42014 14.7836C3.23341 14.766 1.989 13.807 2.07223 13.3185Z" fill="#1F1F1F"/>
<path d="M3.67772 14.3702C3.5388 14.3995 3.49757 14.674 3.4927 14.7881C3.4909 14.8304 3.4934 14.8664 3.49667 14.894C3.51642 15.0608 3.59619 15.1919 3.6104 15.1867C3.62433 15.1817 3.53827 15.0594 3.56811 14.9154C3.61574 14.6856 3.9098 14.6353 3.89304 14.5034C3.88277 14.4226 3.76104 14.3526 3.67772 14.3702Z" fill="#1F1F1F"/>
<path d="M15.7422 14.1243C15.7476 13.7436 14.9351 13.2396 13.9534 13.1C13.7862 13.0763 13.6142 13.063 13.4405 13.0628C13.1685 13.0624 12.8923 13.0938 12.6242 13.1663C12.4321 13.2183 12.2488 13.2902 12.0762 13.3753C11.8918 13.4663 11.7197 13.5725 11.5626 13.6861C10.884 14.1767 10.4841 14.8042 10.5726 14.9312C10.6228 15.0032 10.8125 14.8888 11.1952 14.8272C12.0573 14.6883 12.5548 15.0338 13.1669 15.1377C14.337 15.3364 15.7351 14.6198 15.7422 14.1243Z" fill="#1F1F1F"/>
<path d="M2.84666 13.8487C2.70666 13.8251 2.5678 14.0654 2.52147 14.1699C2.50433 14.2085 2.49346 14.243 2.48639 14.2699C2.44372 14.4323 2.46995 14.5835 2.48507 14.5839C2.49988 14.5843 2.46457 14.439 2.54507 14.3159C2.67351 14.1195 2.96558 14.1803 2.99826 14.0515C3.01829 13.9725 2.93063 13.8629 2.84666 13.8487Z" fill="#1F1F1F"/>
<path d="M6.10869 13.6519C5.99822 14.0496 5.66476 14.3664 5.23038 14.4341C4.63841 14.5263 4.08373 14.1212 3.99147 13.5292C3.95335 13.2846 4.00035 13.0465 4.11018 12.8446C3.24195 12.8426 2.47466 13.1776 2.43168 13.5083C2.37575 13.9386 3.49772 14.7346 4.53666 14.709C5.08014 14.6955 5.55448 14.4584 6.28428 14.6868C6.60821 14.7881 6.75827 14.911 6.81079 14.8549C6.90337 14.7559 6.63533 14.162 6.10869 13.6519Z" fill="#F2F2F2"/>
<path d="M3.99143 13.5292C4.08369 14.1212 4.63837 14.5263 5.23035 14.434C5.66472 14.3663 5.99818 14.0495 6.10866 13.6518C5.98675 13.5338 5.85087 13.4203 5.70249 13.3184C5.7054 13.6401 5.4722 13.9238 5.14489 13.9748C4.7852 14.0309 4.44818 13.7847 4.39213 13.4251C4.35991 13.2183 4.42767 13.0192 4.55931 12.8765C4.4087 12.8549 4.25798 12.8448 4.11015 12.8445C4.00031 13.0464 3.95331 13.2846 3.99143 13.5292Z" fill="#37A114"/>
<path d="M4.55943 12.8764C4.42779 13.0191 4.36003 13.2182 4.39225 13.425C4.44831 13.7847 4.78533 14.0308 5.14501 13.9747C5.47233 13.9237 5.70552 13.64 5.70262 13.3183C5.56367 13.2229 5.41392 13.1374 5.25391 13.0683C5.03065 12.9719 4.79522 12.9101 4.55943 12.8764ZM5.47237 13.3841C5.49339 13.519 5.40108 13.6454 5.2662 13.6664C5.13132 13.6874 5.00494 13.5951 4.98392 13.4603C4.9629 13.3254 5.0552 13.199 5.19008 13.178C5.32496 13.157 5.45135 13.2493 5.47237 13.3841Z" fill="#1F1F1F"/>
<path d="M15.3399 14.1662C15.3446 13.8328 14.6331 13.3915 13.7735 13.2692C13.8534 13.4848 13.8658 13.7272 13.7931 13.9639C13.6172 14.5366 13.0102 14.8582 12.4375 14.6822C12.0173 14.5531 11.7325 14.1918 11.6801 13.7824C11.0859 14.212 10.7357 14.7615 10.8132 14.8727C10.8572 14.9357 11.0232 14.8356 11.3583 14.7816C12.1133 14.66 12.5488 14.9625 13.0848 15.0535C14.1094 15.2274 15.3337 14.6 15.3399 14.1662Z" fill="#F2F2F2"/>
<path d="M12.4372 14.6823C13.0099 14.8582 13.6168 14.5366 13.7928 13.9639C13.8655 13.7273 13.853 13.4848 13.7732 13.2693C13.6268 13.2485 13.4762 13.2369 13.3241 13.2367C13.4339 13.3968 13.4725 13.6035 13.4111 13.8036C13.3042 14.1515 12.9354 14.3469 12.5874 14.24C12.2707 14.1427 12.0804 13.8284 12.1295 13.5104C11.968 13.59 11.8173 13.683 11.6797 13.7825C11.7322 14.1919 12.0169 14.5532 12.4372 14.6823Z" fill="#37A114"/>
<path d="M12.5874 14.2398C12.9354 14.3467 13.3041 14.1513 13.411 13.8033C13.4725 13.6033 13.4339 13.3965 13.324 13.2365C13.0858 13.2362 12.844 13.2636 12.6092 13.3271C12.4411 13.3726 12.2806 13.4356 12.1294 13.5101C12.0804 13.8282 12.2707 14.1425 12.5874 14.2398ZM13.0233 13.5693C13.1538 13.6094 13.227 13.7476 13.1869 13.8781C13.1469 14.0086 13.0086 14.0819 12.8781 14.0418C12.7476 14.0017 12.6743 13.8634 12.7144 13.7329C12.7545 13.6024 12.8928 13.5292 13.0233 13.5693Z" fill="#1F1F1F"/>
<path d="M12.8784 14.042C13.0089 14.0821 13.1472 14.0088 13.1873 13.8783C13.2274 13.7478 13.1541 13.6095 13.0236 13.5694C12.8931 13.5293 12.7549 13.6026 12.7148 13.7331C12.6747 13.8636 12.7479 14.0019 12.8784 14.042Z" fill="#F2F2F2"/>
<path d="M4.9837 13.4603C5.00472 13.5952 5.1311 13.6875 5.26598 13.6664C5.40086 13.6454 5.49316 13.519 5.47214 13.3842C5.45113 13.2493 5.32474 13.157 5.18986 13.178C5.05498 13.199 4.96268 13.3254 4.9837 13.4603Z" fill="#F2F2F2"/>
<path d="M6.10845 13.6519C5.99797 14.0496 5.66452 14.3664 5.23014 14.4341C4.63816 14.5263 4.08348 14.1212 3.99123 13.5292C3.9531 13.2846 4.0001 13.0465 4.10994 12.8446C3.2417 12.8426 2.47441 13.1776 2.43144 13.5083C2.37551 13.9386 3.49747 14.7346 4.53641 14.709C5.07989 14.6955 5.55424 14.4584 6.28404 14.6868C6.60797 14.7881 6.75802 14.911 6.81054 14.8549C6.90313 14.7559 6.63509 14.162 6.10845 13.6519Z" fill="#F2F2F2"/>
<path d="M3.99143 13.5292C4.08369 14.1212 4.63837 14.5263 5.23035 14.434C5.66472 14.3663 5.99818 14.0495 6.10866 13.6518C5.98675 13.5338 5.85087 13.4203 5.70249 13.3184C5.7054 13.6401 5.4722 13.9238 5.14489 13.9748C4.7852 14.0309 4.44818 13.7847 4.39213 13.4251C4.35991 13.2183 4.42767 13.0192 4.55931 12.8765C4.4087 12.8549 4.25798 12.8448 4.11015 12.8445C4.00031 13.0464 3.95331 13.2846 3.99143 13.5292Z" fill="#37A114"/>
<path d="M4.55918 12.8764C4.42755 13.0191 4.35979 13.2182 4.39201 13.425C4.44806 13.7847 4.78508 14.0308 5.14477 13.9747C5.47208 13.9237 5.70528 13.64 5.70237 13.3183C5.56343 13.2229 5.41367 13.1374 5.25366 13.0683C5.0304 12.9719 4.79498 12.9101 4.55918 12.8764ZM5.47212 13.3841C5.49314 13.519 5.40084 13.6454 5.26596 13.6664C5.13108 13.6874 5.0047 13.5951 4.98368 13.4603C4.96266 13.3254 5.05496 13.199 5.18984 13.178C5.32472 13.157 5.4511 13.2493 5.47212 13.3841Z" fill="#1F1F1F"/>
<path d="M4.98345 13.4604C5.00447 13.5953 5.13086 13.6876 5.26574 13.6666C5.40062 13.6455 5.49292 13.5192 5.4719 13.3843C5.45088 13.2494 5.3245 13.1571 5.18962 13.1781C5.05474 13.1991 4.96243 13.3255 4.98345 13.4604Z" fill="#F2F2F2"/>
<path d="M5.80135 20.4293C5.80859 20.3688 5.98731 20.3629 6.12033 20.3262C6.51937 20.2161 6.56515 19.8126 6.97404 19.3243C7.1484 19.1162 7.6178 18.5557 8.07824 18.6293C8.34439 18.6719 8.37056 18.8884 8.67603 18.9279C9.02987 18.9737 9.13849 18.7017 9.46139 18.7095C9.84821 18.7189 10.1439 19.1202 10.445 19.5289C10.815 20.0309 10.8762 20.3755 11.2592 20.5261C11.4248 20.5911 11.631 20.5315 11.6428 20.5865C11.6533 20.6352 11.5044 20.6963 11.3865 20.7663C11.0706 20.9538 10.9727 21.2075 10.8032 21.449C10.5095 21.8673 10.036 22.1984 9.58197 22.3379C9.23715 22.4439 8.92952 22.4315 8.52397 22.4151C8.15098 22.4 7.9645 22.3924 7.74857 22.3205C7.03223 22.0817 6.51689 21.3724 6.36291 21.0328C6.32486 20.9489 6.27163 20.8053 6.12855 20.6735C5.96468 20.5225 5.79418 20.4892 5.80135 20.4293Z" fill="#A1783C"/>
<path d="M5.96681 20.4515C6.29318 20.5907 6.65142 20.653 6.99887 20.5892C7.26572 20.5324 7.43335 20.3054 7.67278 20.1793C7.79258 20.117 7.93274 20.0946 8.06655 20.1144C8.223 20.1319 8.34703 20.2415 8.48992 20.2782C8.59027 20.3019 8.70691 20.3054 8.80794 20.2844C8.9231 20.261 9.01807 20.1928 9.1389 20.1606C9.33311 20.1068 9.55325 20.1523 9.71409 20.265C9.9157 20.4045 10.0608 20.5878 10.2831 20.6834C10.6077 20.8349 10.9744 20.7777 11.3055 20.6553C10.9932 20.8308 10.5908 20.9203 10.242 20.7833C10.1232 20.74 10.015 20.6715 9.91698 20.5978C9.73571 20.4611 9.56986 20.2912 9.33591 20.2952C9.15501 20.2828 9.01844 20.4082 8.84297 20.4445C8.64965 20.4855 8.43691 20.4584 8.26611 20.3605C8.1859 20.3164 8.1253 20.2841 8.0418 20.2704C7.95254 20.2563 7.85799 20.2611 7.77416 20.296C7.62453 20.3551 7.51559 20.4626 7.37124 20.5519C7.2665 20.6188 7.14675 20.6754 7.01936 20.6947C6.65618 20.7382 6.27381 20.6416 5.96681 20.4515Z" fill="#6E5229"/>
<path d="M11.2218 28.5018C11.8812 28.2084 12.1077 27.8241 12.399 27.4875C12.2007 27.3739 12.0277 27.2342 11.8553 27.0013C11.3902 26.3732 11.0925 25.2878 11.7064 23.278L5.45116 23.6258C5.38304 23.9966 5.21871 24.5853 4.76524 25.1102C4.5964 25.3056 4.41331 25.4621 4.22837 25.5889C4.93674 26.1888 5.25332 27.0244 6.79358 27.8595C7.34407 28.1579 9.44045 29.2945 11.2218 28.5018Z" fill="#FFC972"/>
<path d="M3.05149 26.1064C-0.312014 27.0735 -1.1429 27.1323 -2.04832 27.5561C-3.56665 28.2669 -4.32557 29.5506 -5.04751 30.7718C-7.20475 34.4209 -7.01554 40.2676 -4.624 44.6352C-0.427546 52.2991 10.13 54.6423 17.2949 52.0307C18.8042 51.4805 22.6296 50.0861 23.9842 46.5298C25.9828 41.2826 21.2922 34.7688 18.9799 34.3906C18.7698 34.3563 18.1411 34.3009 17.6288 33.8319C16.9243 33.1868 17.0161 32.2864 16.7637 31.4113C16.3364 29.9297 15.052 29.0985 14.2628 28.5168C13.3643 27.8546 12.8238 27.731 12.3991 27.4876C12.1079 27.8242 11.8813 28.2084 11.2219 28.5018C9.44056 29.2945 7.34418 28.158 6.79368 27.8595C5.25343 27.0244 4.93685 26.1889 4.22848 25.589C3.79243 25.8881 3.34605 26.0216 3.05149 26.1064Z" fill="#F2F2F2"/>
<path d="M24.5492 50.5821C25.4378 46.6101 22.8124 45.5532 23.0186 40.2285C23.2262 34.867 25.9305 34.84 25.6355 30.4022C25.3212 25.673 22.1261 23.8372 23.0668 19.4998C23.1234 19.2387 23.6271 16.9167 24.5925 16.3346C24.5736 15.6096 24.4725 14.791 24.2357 13.8255C23.7814 11.9732 23.4454 12.0979 22.3194 8.46742C21.0236 4.28968 21.5345 4.33713 20.7866 2.79623C18.9484 -0.991143 14.4311 -4.22668 11.7847 -3.53225C11.3378 -3.41501 10.0981 -2.96365 8.37247 -3.08667C7.7472 -3.13125 7.31722 -3.23277 7.1084 -3.27395C5.01771 -3.68623 2.40063 -2.5253 1.21912 -1.77944C-2.01011 0.259078 -0.637323 3.06139 -4.79945 9.6736C-6.12726 11.7831 -6.79311 12.3337 -7.12179 13.9592C-7.74324 17.0326 -5.9905 18.1683 -6.50518 20.9291C-7.00757 23.624 -8.83111 23.365 -10.636 26.9862C-11.119 27.9552 -12.8863 31.501 -11.9774 35.2794C-11.1854 38.5718 -9.20828 38.5203 -8.66959 41.4385C-7.98847 45.1283 -10.9267 46.4169 -10.7156 50.0611C-10.4155 55.2397 -4.0814 59.5569 -3.06352 58.8192C-2.80904 58.6348 -3.59305 57.7491 -4.1408 56.296C-4.53047 55.6701 -4.73444 54.9166 -4.87041 54.4141C-5.78319 51.0407 -3.46635 47.9729 -3.02972 47.3948C-1.70068 45.635 -0.89445 45.7749 -0.337355 44.4296C0.668549 42.0005 -0.975204 39.1664 -1.45436 38.3403C-4.23121 33.5525 -8.58392 33.9175 -9.47572 30.1295C-9.52898 29.9033 -9.99031 27.8148 -8.94029 25.9557C-7.65867 23.6866 -5.4411 24.0886 -4.67734 22.1802C-3.77123 19.9162 -6.16283 17.5275 -5.0411 16.3511C-4.47306 15.7553 -3.85227 16.36 -2.64467 15.5646C-1.76514 14.9853 -1.65225 14.3733 -0.408263 13.5224C-0.189164 13.3725 -0.0104522 13.2503 0.138648 13.1557C0.188737 12.9817 0.21942 12.8822 0.219439 12.8821C0.219488 12.8821 1.33399 12.3143 1.78797 11.9849C2.97906 11.1206 2.41127 9.87437 3.68205 7.22299C4.38688 5.75243 4.93662 5.35328 5.29251 5.16079C5.78781 4.8929 6.28967 4.8558 7.27316 4.79251C7.29113 4.79136 7.30865 4.79023 7.32643 4.78909C7.41034 4.38144 7.54004 3.82172 7.71064 3.08817C7.97411 1.95524 8.01719 1.85886 8.09576 1.74124C8.74975 0.762165 10.4283 0.459187 11.7319 0.847319C13.2607 1.30251 14.5761 2.79827 14.4025 3.93758C14.3173 4.49624 13.9166 4.69087 13.6299 5.79753C13.583 5.97861 13.5538 6.12743 13.5348 6.25264C13.5383 6.25511 13.5417 6.25747 13.5452 6.25995C13.5379 6.28453 13.5305 6.30996 13.5231 6.33599C13.4753 6.70821 13.5166 6.85011 13.3901 7.04547C13.3856 7.05245 13.3808 7.05929 13.376 7.06614C13.3373 7.39341 13.3303 7.76567 13.3905 8.1661C13.7275 10.4067 15.7357 10.671 16.8937 13.0349C17.6956 14.6719 17.6197 16.356 17.5198 18.5712C17.4168 20.8554 16.9629 21.2533 17.2771 22.6338C17.7495 24.7092 19.0591 25.0555 19.5765 26.5581C20.4846 29.1952 17.4014 30.8885 16.3974 34.2867C14.4375 40.9205 22.9155 45.5405 20.8022 51.9304C19.6542 55.4014 16.3082 56.5914 16.8166 57.5149C17.0683 57.9723 18.1272 58.1128 19.5608 57.8993C20.4235 56.6549 23.6754 54.4878 24.5492 50.5821Z" fill="#1F1F1F"/>
<path d="M13.5348 6.2525C13.5538 6.12729 13.583 5.97847 13.6299 5.7974C13.9166 4.69073 14.3173 4.4961 14.4025 3.93744C14.5761 2.79813 13.2607 1.30237 11.7319 0.847181C10.4283 0.459049 8.74977 0.762027 8.09578 1.7411C8.01721 1.85872 7.97414 1.9551 7.71066 3.08803C7.54006 3.82158 7.41036 4.3813 7.32646 4.78895C8.62042 4.70575 9.43901 4.65728 10.516 4.8981C11.1986 5.05074 12.3248 5.39566 13.5348 6.2525Z" fill="#141414"/>
<path d="M13.5232 6.33594C13.4655 6.53924 13.4092 6.78617 13.3761 7.06609C13.3809 7.05924 13.3857 7.0524 13.3902 7.04542C13.5167 6.85006 13.4754 6.70816 13.5232 6.33594Z" fill="#141414"/>
<path d="M27.1492 54.3689C31.4718 50.6181 33.7867 43.7182 31.5674 39.8958C30.7446 38.4786 29.7342 38.2349 28.6603 35.9859C27.6599 33.891 27.9216 32.8147 27.2587 30.355C26.2746 26.703 25.1609 27.0831 24.3406 24.1432C23.3771 20.6904 24.6695 19.2923 24.5924 16.3344C23.6269 16.9165 23.1233 19.2386 23.0667 19.4997C22.1259 23.837 25.321 25.6729 25.6354 30.4021C25.9303 34.8399 23.2261 34.8669 23.0184 40.2284C22.8122 45.5531 25.4376 46.61 24.549 50.582C23.6753 54.4877 20.4234 56.6548 19.5607 57.8992C21.7308 57.5761 24.7599 56.4421 27.1492 54.3689Z" fill="#141414"/>
<path d="M-2.64457 15.5645C-3.85216 16.3598 -4.47295 15.7552 -5.04099 16.3509C-6.16273 17.5273 -3.77112 19.916 -4.67724 22.18C-5.441 24.0884 -7.65856 23.6864 -8.94018 25.9556C-9.99021 27.8146 -9.52888 29.9031 -9.47561 30.1294C-8.58382 33.9173 -4.23111 33.5523 -1.45426 38.3401C-0.975101 39.1662 0.668651 42.0004 -0.337253 44.4294C-0.894348 45.7747 -1.70057 45.6348 -3.02962 47.3946C-3.46625 47.9728 -5.78309 51.0405 -4.87031 54.4139C-4.73434 54.9164 -4.53037 55.6699 -4.14069 56.2958C-4.43226 55.5223 -4.65693 54.5882 -4.62231 53.5133C-4.60601 53.0072 -4.49597 51.5135 -3.14195 49.2563C-0.209863 44.3684 3.28715 44.696 3.65981 42.2673C4.11989 39.2689 -1.07001 37.856 -3.07432 31.5503C-3.66478 29.6927 -3.75141 28.1257 -3.10852 26.7992C-2.49825 25.5401 -1.8248 25.7236 -1.08624 24.5188C0.124421 22.5439 -0.951709 20.8542 -0.677256 17.2032C-0.565051 15.7106 -0.0600397 13.8459 0.138752 13.1555C-0.0103489 13.2501 -0.189061 13.3723 -0.40816 13.5222C-1.65214 14.3732 -1.76503 14.9852 -2.64457 15.5645Z" fill="#141414"/>
<path d="M10.0106 21.3636C10.0372 21.4866 9.69434 21.6752 9.42921 21.7596C8.98348 21.9015 8.44215 21.8492 8.41153 21.7055C8.38319 21.5724 8.79023 21.3503 9.14835 21.2711C9.52206 21.1883 9.98174 21.2303 10.0106 21.3636Z" fill="#D49E4F"/>
<path d="M10.2082 20.16C10.2379 20.146 10.1563 19.8811 10.004 19.6088C9.89908 19.4211 9.77279 19.1952 9.63841 19.2092C9.5381 19.2196 9.53327 19.3532 9.37398 19.4152C9.22063 19.4749 9.09489 19.4017 9.0792 19.4396C9.06129 19.4828 9.20656 19.6227 9.38821 19.6495C9.51727 19.6685 9.55843 19.6147 9.65675 19.617C9.9689 19.6244 10.1647 20.1804 10.2082 20.16Z" fill="#D49E4F"/>
<path d="M18.2181 2.17922C17.9949 2.1144 16.87 3.71435 16.8747 5.61636C16.8819 8.56714 19.6005 9.26772 20.415 12.4215C21.3607 16.0836 18.7925 19.3881 19.071 19.5073C19.3249 19.616 21.7333 16.9872 21.407 13.9617C21.0859 10.9843 18.4259 10.4947 17.8202 7.02738C17.3603 4.39455 18.4704 2.25253 18.2181 2.17922Z" fill="#363636"/>
<path d="M8.1662 1.04449C8.03623 1.14331 7.48411 -0.00433884 6.47564 -0.279399C4.92721 -0.701734 2.65429 1.02893 1.57852 3.12888C0.208453 5.80332 1.74683 7.18977 0.318899 9.00513C-0.986025 10.6641 -2.737 10.099 -4.05537 12.1144C-4.96696 13.5079 -4.91176 14.9735 -4.98708 14.9597C-5.07734 14.9432 -5.32229 12.8087 -4.13853 11.1694C-2.82033 9.344 -1.09811 10.0267 0.0440537 8.40353C1.21747 6.73593 -0.267989 5.54311 0.835395 2.92928C1.57659 1.17345 3.09472 -0.296741 4.8238 -0.700742C5.23159 -0.796023 6.30675 -1.04724 7.19236 -0.46141C7.94873 0.0389174 8.27854 0.959079 8.1662 1.04449Z" fill="#363636"/>
</g>
<defs>
<clipPath id="clip0_3440_100018">
<rect width="32" height="32" rx="7" fill="white"/>
</clipPath>
</defs>
</svg>
