<svg width="32" height="32" viewBox="0 0 32 32" fill="none" xmlns="http://www.w3.org/2000/svg">
<g clip-path="url(#clip0_3223_58189)">
<rect width="32" height="32" rx="7" fill="#45616E"/>
<path d="M14.6117 28.6025L12.4702 28.6195L7.34942 30.8484C5.98629 31.6291 4.59027 32.6512 3.12086 33.6371C1.46047 34.7513 0.0172689 36.0926 -1.41943 37.3646L0.0363216 38.6559C0.0363216 38.6559 -1.36677 43.6083 -0.962377 43.5785C-0.782376 43.5653 5.23888 43.0976 11.8657 42.5827L9.45546 39.7181L14.6117 28.6025Z" fill="url(#paint0_radial_3223_58189)"/>
<path d="M27.6184 35.0717C27.3647 34.1558 26.9999 33.4772 26.7315 33.0457C26.5816 32.8951 26.4233 32.7528 26.2568 32.6199L25.2778 31.8385L26.8557 29.7158L21.4404 28.9085L22.0339 28.5437L18.9053 28.5685L22.3842 40.1411C22.5174 40.584 22.4878 41.0598 22.301 41.4828L22.1688 41.782C24.3575 41.6118 26.2344 41.4659 27.5169 41.3663C27.6751 40.5086 27.8387 39.394 27.8913 37.9177C27.9237 37.0058 27.9081 36.1174 27.6184 35.0717Z" fill="url(#paint1_radial_3223_58189)"/>
<path d="M22.3843 40.1411L18.9053 28.5684L14.6116 28.6025L9.45536 39.718L11.8656 42.5826C15.3915 42.3087 19.0888 42.0213 22.1689 41.7819L22.3011 41.4827C22.4879 41.0597 22.5174 40.5839 22.3843 40.1411Z" fill="#34313B"/>
<path d="M3.05842 9.06557L0.595499 7.88428L-0.844795 4.59442C-1.15834 3.87823 -1.2787 3.09237 -1.19388 2.31517L-0.914253 -0.246983L-2.63233 1.10595L-2.63166 3.0272C-2.63139 3.8005 -2.52048 4.5698 -2.30231 5.31169L-1.57835 7.77347L-2.45193 7.18418L-3.35023 4.05088C-3.59412 3.20017 -3.69386 2.31463 -3.64531 1.43097L-3.57069 0.0726905L-5.41187 0.781898L-5.48373 2.67362C-5.52029 3.63606 -5.44578 4.5995 -5.26167 5.54488L-5.09004 6.42618L-6.87362 3.3988L-6.75384 5.3968L-5.35668 7.67111L-2.10062 10.4745L0.880073 12.631L3.05842 9.06557Z" fill="#3D322C"/>
<path d="M10.4226 7.19326L12.4044 5.31346L12.7662 1.7404C12.8449 0.962556 12.7184 0.177658 12.3993 -0.536063L11.3473 -2.88894L13.3975 -2.12821L13.9862 -0.29937C14.2231 0.436744 14.3535 1.20297 14.3734 1.97602L14.4395 4.5412L15.0902 3.71236L14.9841 0.454566C14.9553 -0.42995 14.7786 -1.3034 14.4614 -2.12957L13.9737 -3.39949L15.9437 -3.28922L16.5923 -1.51072C16.9223 -0.605892 17.1469 0.333966 17.2617 1.29024L17.3686 2.1817L18.1377 -1.24683L18.6365 0.691607L18.0043 3.28484L15.7651 6.95184L13.5895 9.91864L10.4226 7.19326Z" fill="#3D322C"/>
<path d="M-0.122592 12.9569L-5.46888 9.49375C-5.87942 9.22781 -6.36423 9.10008 -6.85252 9.1292L-8.38281 9.22047C-9.48777 9.28637 -10.5737 9.53847 -11.5946 9.9661L-12.6317 10.4005L-7.93384 16.3046C-7.83871 16.4242 -7.72279 16.5256 -7.59165 16.604L-4.0898 18.698C-3.87049 18.8291 -3.61673 18.8911 -3.36166 18.8758L-1.01183 18.7349L-0.122592 12.9569Z" fill="url(#paint2_radial_3223_58189)"/>
<path d="M15.2142 9.48893L18.1435 3.83243C18.3684 3.39806 18.7263 3.04697 19.1649 2.83043L20.5395 2.15179C21.5321 1.66177 22.6003 1.34294 23.699 1.20877L24.8151 1.07247L23.6582 8.52837C23.6348 8.67936 23.5843 8.82488 23.5092 8.95795L21.5041 12.5115C21.3786 12.734 21.1888 12.9135 20.9597 13.0266L18.8485 14.068L15.2142 9.48893Z" fill="url(#paint3_radial_3223_58189)"/>
<path d="M16.9321 10.4305C17.1852 9.62964 17.5866 8.50309 18.2089 7.20638C18.6604 6.26579 18.9282 5.7076 19.3608 5.15894C19.8251 4.57001 20.9329 3.4166 23.2796 2.86166L22.4067 8.62804C22.3833 8.78243 22.3262 8.92977 22.2395 9.0596L20.9855 10.9365C20.8409 11.153 20.6219 11.3089 20.37 11.3746L17.9185 12.0148L16.9321 10.4305Z" fill="#91565C"/>
<path d="M0.519372 29.8062C0.431997 29.2162 0.278451 28.3408 0.00122695 27.3021C-0.543759 25.2601 -1.05767 24.4944 -1.53381 23.1824C-1.89908 22.1759 -3.06295 18.9688 -2.03012 15.586C-1.47482 13.7673 -0.428663 12.3698 -0.139424 11.997C0.447738 11.2401 1.07435 10.6335 1.72431 10.0043C2.67615 9.08285 3.15207 8.62213 3.74407 8.22712C4.11772 7.9778 5.99619 6.77363 8.48838 6.87953C9.64689 6.92876 10.5227 7.24344 12.1435 7.82578C12.6658 8.01344 13.4073 8.27998 14.2405 8.70188C14.8987 9.03513 16.6631 9.94643 18.0703 11.5391C20.6649 14.4755 20.8784 18.4074 20.918 19.1376C20.9515 19.7541 20.957 20.7907 21.2104 22.3095C21.3976 23.4316 21.64 24.3369 21.8173 24.931L19.3237 24.2106L16.278 28.5955L7.08661 30.9009L2.56812 28.4603L0.519372 29.8062Z" fill="url(#paint4_radial_3223_58189)"/>
<path d="M6.79318 18.2574C7.21605 14.9079 5.82779 11.974 3.69243 11.7044C1.55707 11.4348 -0.516786 13.9316 -0.939653 17.2812C-1.36252 20.6307 0.0257312 23.5646 2.16109 23.8342C4.29646 24.1038 6.37031 21.607 6.79318 18.2574Z" fill="#F7F2EE"/>
<path d="M18.6952 37.2525L16.2373 29.0764C16.0882 29.257 15.9308 29.4281 15.7756 29.5852L18.0294 37.2103C18.1004 37.4505 18.0838 37.708 17.9827 37.9372L17.3889 39.2825C17.1142 39.9046 16.5681 40.3655 15.9087 40.5317L13.7883 41.066C13.1562 41.2253 12.4859 41.0971 11.9572 40.7157L10.2355 39.4736C10.0435 39.335 9.90351 39.1361 9.83798 38.9085L7.85627 32.0274C7.58842 31.9864 7.33183 31.9257 7.09864 31.8395L9.34863 39.4694C9.42332 39.7227 9.58199 39.943 9.79854 40.0942L11.8523 41.5279C12.4768 41.9638 13.2597 42.1073 13.9982 41.9212L16.0635 41.4008C16.8482 41.203 17.4979 40.6548 17.8248 39.9147L18.6453 38.0575C18.7574 37.8037 18.7751 37.5182 18.6952 37.2525Z" fill="#D5B4B0"/>
<path d="M10.79 31.971C10.1457 32.0461 8.91396 32.1894 7.85605 32.0274L9.83777 38.9085C9.9033 39.136 10.0433 39.335 10.2353 39.4735L11.957 40.7156C12.4857 41.097 13.156 41.2253 13.7881 41.066L15.9085 40.5316C16.5679 40.3655 17.114 39.9046 17.3886 39.2824L17.9825 37.9371C18.0836 37.708 18.1002 37.4504 18.0292 37.2103L15.7754 29.5852C15.3039 30.0628 14.8542 30.4118 14.73 30.5081C13.2374 31.6659 11.6877 31.8665 10.79 31.971Z" fill="#2B2B29"/>
<path d="M6.96964 28.9493L15.0872 27.2564L15.7755 29.5852C15.9307 29.428 16.0881 29.257 16.2372 29.0764L15.5986 26.9522L6.26005 28.9962L7.0985 31.8394C7.33169 31.9257 7.58828 31.9864 7.85613 32.0274L6.96964 28.9493Z" fill="#8C717C"/>
<path d="M6.96976 28.9493L7.85625 32.0274C8.91416 32.1894 10.1459 32.0461 10.7902 31.971C11.6879 31.8665 13.2376 31.6659 14.7302 30.5081C14.8544 30.4118 15.3041 30.0628 15.7756 29.5852L15.0873 27.2563L6.96976 28.9493Z" fill="#121114"/>
<path d="M12.8459 20.562C11.2695 19.3401 9.62666 18.9321 8.56599 18.7933C8.52462 18.805 8.48334 18.8172 8.44215 18.8302C5.84308 19.6467 4.36756 22.7246 4.52017 26.3744C4.60302 26.4643 4.69208 26.5619 4.78844 26.6675C5.13551 27.0479 5.52293 27.4785 5.8579 28.1368C6.01811 28.4516 6.16108 28.7328 6.26017 28.9961C6.26038 28.9963 6.26059 28.9965 6.2608 28.9967C6.02032 27.0085 7.84161 25.0833 10.3995 24.6586C12.8402 24.2534 15.0877 25.3576 15.6491 27.1617C15.6573 27.1418 15.6656 27.1218 15.6737 27.1018C15.6193 26.752 15.6471 26.3426 15.6799 25.8636C15.7054 25.4911 15.766 25.1671 15.8417 24.8747C15.4785 23.7503 14.6611 21.969 12.8459 20.562Z" fill="#D5B4B0"/>
<path d="M10.3995 24.6587C7.84158 25.0834 6.02029 27.0085 6.26077 28.9967C7.98406 30.5445 10.1419 31.2137 12.1358 30.5873C13.7478 30.0809 14.9632 28.8184 15.6491 27.1617C15.0877 25.3577 12.8401 24.2534 10.3995 24.6587Z" fill="#B08E9C"/>
<path d="M16.3408 23.3896C16.3162 23.3459 16.2915 23.3024 16.2666 23.2592C16.2722 23.3584 16.2763 23.4572 16.279 23.5557C16.3003 23.4973 16.3208 23.4421 16.3408 23.3896Z" fill="#8C717C"/>
<path d="M16.279 23.5557C16.2764 23.4572 16.2723 23.3584 16.2667 23.2592C14.3458 19.924 11.2685 18.0296 8.56598 18.7933C9.62665 18.9321 11.2695 19.34 12.8459 20.5619C14.661 21.9689 15.4785 23.7502 15.8417 24.8747C15.9158 24.5887 16.0042 24.3332 16.0885 24.0929C16.159 23.8918 16.2217 23.713 16.279 23.5557Z" fill="#E0BEB9"/>
<path d="M4.86706 18.0094C4.89573 15.9324 3.86407 14.234 2.56279 14.2161C1.26151 14.1981 0.183367 15.8673 0.154696 17.9443C0.126025 20.0213 1.15768 21.7196 2.45896 21.7376C3.76025 21.7556 4.83839 20.0864 4.86706 18.0094Z" fill="black"/>
<path d="M17.1706 20.2967C18.9825 19.1351 18.9744 15.8894 17.1523 13.0471C15.3303 10.2049 12.3843 8.84239 10.5723 10.004C8.76039 11.1655 8.76857 14.4113 10.5906 17.2535C12.4127 20.0958 15.3586 21.4583 17.1706 20.2967Z" fill="#F7F2EE"/>
<path d="M16 18.5319C17.1671 17.9562 17.3683 15.9793 16.4493 14.1164C15.5303 12.2535 13.8392 11.2101 12.6721 11.7859C11.505 12.3616 11.3038 14.3385 12.2228 16.2014C13.1418 18.0643 14.8329 19.1077 16 18.5319Z" fill="black"/>
<path d="M10.9721 30.0588C12.1253 29.9896 13.0042 28.9987 12.935 27.8455C12.8659 26.6922 11.8749 25.8134 10.7217 25.8825C9.56844 25.9516 8.68959 26.9426 8.75873 28.0958C8.82787 29.2491 9.81881 30.1279 10.9721 30.0588Z" fill="#2B2B29"/>
<path d="M11.4761 29.0881C11.8218 29.0701 12.042 28.5307 12.0742 28.1527C12.1176 27.6439 11.8577 26.994 11.4065 26.9046C11.176 26.859 10.8708 26.9547 10.7872 27.1462C10.6905 27.3674 10.9761 27.5182 11.0002 27.9717C11.0192 28.3286 10.8523 28.4227 10.9399 28.6705C11.0187 28.8932 11.2536 29.0997 11.4761 29.0881Z" fill="#615F5B"/>
<path d="M23.2986 29.1766L25.6701 29.927L23.0893 34.8934L26.8556 29.7157L23.2986 29.1766Z" fill="#34313B"/>
<path d="M24.7764 0.505198L24.1683 -2.23996C24.1284 -2.42014 23.8716 -2.42014 23.8317 -2.23995L23.2236 0.505198C22.6812 5.07668 19.077 8.68095 14.5055 9.22337L11.7601 9.8314C11.5799 9.8713 11.5799 10.1282 11.7601 10.1681L14.5055 10.7761C19.077 11.3185 22.6812 14.9228 23.2236 19.4942L23.8317 22.2398C23.8716 22.42 24.1284 22.42 24.1683 22.2398L24.7764 19.4942C25.3188 14.9228 28.9231 11.3185 33.4945 10.7761L36.2399 10.1683C36.4201 10.1284 36.4201 9.87152 36.2399 9.8316L33.4945 9.22337C28.9231 8.68095 25.3188 5.07668 24.7764 0.505198Z" fill="#527382"/>
</g>
<defs>
<radialGradient id="paint0_radial_3223_58189" cx="0" cy="0" r="1" gradientUnits="userSpaceOnUse" gradientTransform="translate(2.04947 36.7296) rotate(-3.43089) scale(17.0351 17.0351)">
<stop stop-color="#423E4A"/>
<stop offset="1" stop-color="#34313B"/>
</radialGradient>
<radialGradient id="paint1_radial_3223_58189" cx="0" cy="0" r="1" gradientUnits="userSpaceOnUse" gradientTransform="translate(20.6021 33.39) rotate(-3.43089) scale(12.7493 12.7493)">
<stop stop-color="#423E4A"/>
<stop offset="1" stop-color="#34313B"/>
</radialGradient>
<radialGradient id="paint2_radial_3223_58189" cx="0" cy="0" r="1" gradientUnits="userSpaceOnUse" gradientTransform="translate(-10.5561 12.4203) rotate(-3.43089) scale(9.83909 9.83909)">
<stop stop-color="#423E4A"/>
<stop offset="1" stop-color="#34313B"/>
</radialGradient>
<radialGradient id="paint3_radial_3223_58189" cx="0" cy="0" r="1" gradientUnits="userSpaceOnUse" gradientTransform="translate(16.4255 9.76239) rotate(-3.43089) scale(10.717 10.717)">
<stop stop-color="#423E4A"/>
<stop offset="1" stop-color="#34313B"/>
</radialGradient>
<radialGradient id="paint4_radial_3223_58189" cx="0" cy="0" r="1" gradientUnits="userSpaceOnUse" gradientTransform="translate(-0.473036 13.8225) rotate(-3.43089) scale(31.6417)">
<stop stop-color="#423E4A"/>
<stop offset="1" stop-color="#34313B"/>
</radialGradient>
<clipPath id="clip0_3223_58189">
<rect width="32" height="32" rx="7" fill="white"/>
</clipPath>
</defs>
</svg>
