<svg width="32" height="32" viewBox="0 0 32 32" fill="none" xmlns="http://www.w3.org/2000/svg">
<g clip-path="url(#clip0_3924_107118)">
<rect width="32" height="32" rx="7" fill="#08D0FF"/>
<path d="M24.7764 0.505198L24.1683 -2.23996C24.1284 -2.42014 23.8716 -2.42014 23.8317 -2.23995L23.2236 0.505198C22.6812 5.07668 19.077 8.68095 14.5055 9.22337L11.7601 9.8314C11.5799 9.8713 11.5799 10.1282 11.7601 10.1681L14.5055 10.7761C19.077 11.3185 22.6812 14.9228 23.2236 19.4942L23.8317 22.2398C23.8716 22.42 24.1284 22.42 24.1683 22.2398L24.7764 19.4942C25.3188 14.9228 28.9231 11.3185 33.4945 10.7761L36.2399 10.1683C36.4201 10.1284 36.4201 9.87152 36.2399 9.8316L33.4945 9.22337C28.9231 8.68095 25.3188 5.07668 24.7764 0.505198Z" fill="#6DE3FF"/>
<path d="M30.6629 26.1539C27.7609 24.6302 25.7888 22.9381 24.4646 21.5733C23.2693 20.3413 22.499 19.2701 21.8411 18.3314C21.1222 17.6931 19.9705 16.1646 18.0318 15.1168C15.6207 13.8137 12.7193 14.0037 6.91636 14.3837C3.53468 14.6051 1.35988 14.9794 -1.40839 13.8397C-2.38375 13.4382 -3.51611 12.9719 -3.90689 12.2291C-4.47563 11.9889 -5.0621 11.7152 -5.66537 11.4038L-9 13.2958C-8.96116 17.1516 -8.06822 19.2737 -7.22626 20.509C-6.91895 20.9599 -6.63662 21.266 -6.35121 21.928C-5.5685 23.7436 -6.18225 24.9434 -5.21602 26.5397C-4.96029 26.9622 -4.96463 26.8 -4.53017 27.4148C-3.3181 29.13 -3.3231 30.3379 -2.80373 31.4116C-2.19182 32.6766 -0.968916 33.2719 1.47689 34.4624C3.27002 35.3353 4.75424 35.7184 7.64951 36.449C10.4055 37.1445 11.7836 37.4922 13.3255 37.6552C16.0118 37.939 18.6384 38.2165 20.9171 36.9693C21.538 36.6294 21.9687 36.2664 23.2111 35.6449C24.5671 34.9667 25.1133 34.8694 25.8363 34.2259C26.5229 33.6148 26.4008 33.3727 27.1607 32.3812C28.2665 30.9384 29.0552 30.9111 30.4007 29.425C30.6662 29.1318 30.9158 28.8409 31.1505 28.5541C31.7834 27.7806 31.5479 26.6185 30.6629 26.1539Z" fill="#1559D9"/>
<path d="M-1.40824 13.8397C1.36004 14.9794 3.53483 14.6051 6.91652 14.3836C12.7194 14.0037 15.6209 13.8137 18.032 15.1168C19.9706 16.1646 21.1223 17.693 21.8413 18.3313C20.7384 16.7577 19.9515 15.5568 18.0083 14.5965C15.8292 13.5196 13.6762 13.4769 10.5113 13.414C7.05188 13.3453 6.15895 13.8852 3.60554 13.8633C1.71679 13.8472 -0.83651 13.5257 -3.90674 12.229C-3.51595 12.9718 -2.38359 13.4381 -1.40824 13.8397Z" fill="#1868FC"/>
<path d="M23.4687 22.7305C24.9979 22.1168 25.9312 20.8556 25.5531 19.9136C25.1751 18.9715 23.6289 18.7053 22.0997 19.319C20.5705 19.9327 19.6373 21.1939 20.0153 22.1359C20.3934 23.078 21.9395 23.3442 23.4687 22.7305Z" fill="#1559D9"/>
<path d="M11.1745 14.8881C11.408 14.9854 11.2297 15.3956 11.5129 15.7905C11.8117 16.2073 12.2126 16.0323 12.5844 16.4391C12.8725 16.7542 13.0091 17.2718 12.8664 17.6798C12.6283 18.3606 11.6835 18.5331 11.5693 18.554C9.58695 18.916 7.41048 15.0356 7.28296 14.8035C7.45703 14.9575 7.71882 15.1851 8.04434 15.4521C8.39631 15.7407 9.68753 16.7996 9.8209 16.6646C9.88153 16.6033 9.62011 16.379 9.48251 15.8751C9.32368 15.2934 9.44228 14.7511 9.51071 14.7471C9.56696 14.7438 9.53968 15.1072 9.7927 15.4803C10.0484 15.8573 10.4768 16.0766 10.5823 15.9879C10.6832 15.903 10.4039 15.6077 10.5259 15.2829C10.6273 15.0126 10.9752 14.805 11.1745 14.8881Z" fill="#15C2D9"/>
<path d="M11.0906 15.3414C11.2865 15.4231 11.1369 15.767 11.3744 16.0982C11.625 16.4478 11.9612 16.3011 12.2731 16.6422C12.5147 16.9064 12.6293 17.3406 12.5096 17.6827C12.3099 18.2537 11.5175 18.3984 11.4217 18.4159C9.75918 18.7195 7.93386 15.4651 7.8269 15.2705C7.97289 15.3997 8.19244 15.5905 8.46545 15.8144C8.76063 16.0565 9.84354 16.9446 9.95539 16.8314C10.0062 16.7799 9.787 16.5918 9.67159 16.1692C9.53839 15.6813 9.63785 15.2265 9.69524 15.2232C9.74242 15.2204 9.71954 15.5252 9.93174 15.8381C10.1462 16.1542 10.5054 16.3382 10.5939 16.2638C10.6786 16.1926 10.4444 15.945 10.5466 15.6725C10.6317 15.4459 10.9235 15.2718 11.0906 15.3414Z" fill="white"/>
<path d="M22.2724 19.5093C22.0316 19.5247 22.0652 19.9497 21.6875 20.2179C21.2888 20.5009 20.9817 20.2189 20.5204 20.4702C20.1629 20.665 19.8792 21.0893 19.8814 21.5013C19.8849 22.1889 20.6831 22.6374 20.7796 22.6917C22.4544 23.6328 25.6198 20.8096 25.8068 20.6399C25.6021 20.7248 25.2955 20.8488 24.9192 20.9885C24.5124 21.1395 23.02 21.6937 22.9417 21.5306C22.906 21.4565 23.2113 21.3354 23.4916 20.9238C23.8152 20.4487 23.8764 19.923 23.816 19.8982C23.7663 19.8778 23.6782 20.2139 23.3344 20.4717C22.987 20.7322 22.5328 20.7971 22.4652 20.6844C22.4005 20.5766 22.7438 20.397 22.7347 20.0664C22.727 19.7913 22.4778 19.4963 22.2724 19.5093Z" fill="#15C2D9"/>
<path d="M-1.27148 17.2808L2.20152 18.0789L6.40253 19.1185L7.60623 19.9532L9.57827 18.4359L13.2018 19.9532L16.6177 20.0714L19.0295 22.3609L21.6902 23.2524L21.8879 24.8724L24.1523 25.9202L25.0916 26.7507L15.1537 27.0508L-1.27148 17.2808Z" fill="#1148B0"/>
<path d="M22.1718 19.7181C21.96 19.7316 21.9896 20.1055 21.6573 20.3415C21.3065 20.5905 21.0363 20.3424 20.6305 20.5635C20.3161 20.7348 20.0665 21.1081 20.0684 21.4705C20.0715 22.0754 20.7737 22.47 20.8586 22.5177C22.3319 23.3456 25.1166 20.862 25.2811 20.7127C25.101 20.7874 24.8313 20.8965 24.5003 21.0194C24.1424 21.1523 22.8295 21.6398 22.7606 21.4963C22.7293 21.4311 22.9978 21.3246 23.2444 20.9625C23.529 20.5445 23.5829 20.0821 23.5297 20.0602C23.486 20.0423 23.4085 20.3379 23.1061 20.5647C22.8004 20.794 22.4009 20.851 22.3414 20.7519C22.2845 20.6571 22.5866 20.4991 22.5785 20.2082C22.5718 19.9662 22.3525 19.7066 22.1718 19.7181Z" fill="white"/>
<path d="M15.6494 17.7276C15.6837 17.5948 15.6342 17.4672 15.5389 17.4426C15.4436 17.418 15.3386 17.5057 15.3043 17.6385C15.27 17.7713 15.3195 17.8989 15.4148 17.9235C15.5101 17.9481 15.6151 17.8604 15.6494 17.7276Z" fill="white" stroke="black" stroke-width="0.0236499" stroke-miterlimit="10"/>
<path d="M19.2017 19.163C19.236 19.0302 19.1865 18.9026 19.0912 18.878C18.9959 18.8534 18.8908 18.9411 18.8565 19.0739C18.8222 19.2067 18.8717 19.3343 18.967 19.3589C19.0623 19.3835 19.1674 19.2958 19.2017 19.163Z" fill="white" stroke="black" stroke-width="0.0236499" stroke-miterlimit="10"/>
<path d="M29.3012 28.7746L27.7403 27.9232L26.8179 27.7577L25.2813 26.8382L23.2232 25.8893L22.1116 25.6765L21.7096 25.7947L20.8109 24.8724L20.6926 24.4703L20.0686 24.2407L19.582 24.3803L18.2242 23.5244L15.4772 22.2017L12.5576 21.4755L11.0738 21.2021L9.95558 20.4499L7.99264 20.6864L6.68863 19.7179L5.10736 19.4093L3.66472 18.6998L2.5269 18.4359L-0.349996 17.683L-2.30517 16.8296L-3.80864 16.2638L-5.44048 15.8381L-5.84253 18.3214L-5.10938 20.3316L-5.03843 22.9804L-3.73769 26.1495L-2.20045 27.4266L-0.497659 29.4605L2.17478 30.8322L2.63863 31.7243L6.14795 33.5046L7.94534 34.8763L11.2541 35.441L14.8166 36.3183L17.5472 35.9169L20.0686 36.0276L22.3481 35.4202L24.0982 34.5215L25.5172 34.1668L26.1557 32.6768L27.3017 31.7243L27.9531 30.2409L29.3012 28.7746Z" fill="#741130"/>
<path d="M26.9382 28.2177L27.1013 29.4841L27.8818 28.68L27.6365 28.2177H26.9382Z" fill="white" stroke="black" stroke-width="0.0236499" stroke-miterlimit="10"/>
<path d="M-4.91154 17.1152H-3.45416L-2.91021 17.2808L-1.51487 17.8011H-0.752401L-0.119524 18.1795H1.00918L1.66096 18.436L2.67116 18.6288L3.49891 19.3147H4.1611L5.1544 20.3553L6.10039 20.0715L6.98093 21.0248H8.17881L8.65458 22.0344L8.89108 21.3249L10.0499 21.4195L10.5013 22.055L10.5939 21.6324H11.79L12.1519 22.055L12.2021 21.7979L13.4555 21.9162L13.5501 22.1763H14.5347L15.6313 22.7912L16.7901 23.0277L18.168 24.1289H18.9576L19.4527 24.8551L19.2497 25.2508L20.5978 25.6055L20.4304 26.0782H21.3741V27.0037L21.5526 26.5031L22.6747 26.3914L22.679 27.261L23.8378 26.6461L23.7905 27.0955L24.5473 26.8353L25.2811 26.8383L25.0912 27.332L26.1097 27.3341L26.9384 28.2177H27.6367L27.8819 28.68L27.4101 30.1227L26.7467 31.8491L25.4933 32.5586L25.0912 33.0965L24.88 32.6381L24.6318 32.7935L24.1689 33.5519L23.6722 33.0361L23.1874 33.3886L23.0181 34.19L22.3726 33.9196L22.2236 34.4686H21.5526L21.6857 34.6634L21.3741 35.5431L20.4304 35.3941L19.694 35.8161L19.0291 35.5431L18.8104 35.8161L17.9287 35.5431L17.7834 35.1837L17.6234 35.0182L17.0787 35.8161L16.0667 35.0182L15.4769 35.1707L14.8981 36.0824L13.9316 35.0182L13.4792 34.6398L13.1481 35.3966L12.5573 35.5431L11.9656 34.4979L11.398 34.5452L10.381 35.0182L9.88437 34.1776L9.05663 33.8593L7.73848 34.3514L7.40113 33.1735L6.82239 32.7714H5.53279L5.3436 31.8964L5.26725 31.7244L4.61045 32.0383L3.7354 31.6126L3.94825 31.0687L3.30971 31.2342L2.17451 30.8322L1.93801 30.3592L1.72851 30.0044L0.77917 29.8152L0.450942 29.1007L1.0716 28.479L0.92107 28.3726L0.1282 28.2177L-0.219368 27.5895L0.227505 27.4L-0.119524 27.0508L-0.293847 26.8353L-1.18377 27.1901L-0.817196 25.9601L-1.78343 25.2508L-2.50339 25.0853L-2.60269 24.6504L-3.12405 23.7608H-3.92715L-4.09227 23.4416L-4.4238 20.4972L-5.28394 18.436L-4.91154 17.1152Z" fill="#35111D"/>
<path d="M25.0913 27.3319L25.7062 30.0043L26.0373 29.2239L26.9384 28.2176L26.4394 27.734L26.1098 27.334L25.0913 27.3319Z" fill="white" stroke="black" stroke-width="0.0236499" stroke-miterlimit="10"/>
<path d="M23.7906 27.0955L24.0271 28.961L23.6724 30.1227L24.5085 28.8509L25.2812 26.8382L24.5474 26.8353L23.7906 27.0955Z" fill="white" stroke="black" stroke-width="0.0236499" stroke-miterlimit="10"/>
<path d="M23.8379 26.6461L23.6723 28.2176L22.5371 29.6497L22.679 27.261L23.8379 26.6461Z" fill="white" stroke="black" stroke-width="0.0236499" stroke-miterlimit="10"/>
<path d="M22.6747 26.3914V27.4807L20.4304 29.6497L21.5526 26.5031L22.6747 26.3914Z" fill="white" stroke="black" stroke-width="0.0236499" stroke-miterlimit="10"/>
<path d="M20.4305 26.0781L19.5818 29.1006L21.3741 27.0036V26.0781H20.4305Z" fill="white" stroke="black" stroke-width="0.0236499" stroke-miterlimit="10"/>
<path d="M20.5979 25.6055L20.3814 26.2535L18.3079 28.8508L19.2499 25.2507L20.5979 25.6055Z" fill="white" stroke="black" stroke-width="0.0236499" stroke-miterlimit="10"/>
<path d="M19.4529 24.8551L18.1682 28.0205V24.1289H18.9578L19.4529 24.8551Z" fill="white" stroke="black" stroke-width="0.0236499" stroke-miterlimit="10"/>
<path d="M17.2741 23.5244L17.0786 26.6462L18.1679 24.129L17.2741 23.5244Z" fill="white" stroke="black" stroke-width="0.0236499" stroke-miterlimit="10"/>
<path d="M15.6313 22.7913L15.8442 25.4637L15.6313 27.332L17.2364 24.129L17.2743 23.5244L16.7902 23.0278L15.6313 22.7913Z" fill="white" stroke="black" stroke-width="0.0236499" stroke-miterlimit="10"/>
<path d="M15.6314 22.7912L14.0941 24.423L12.9353 26.244L13.5502 22.1763H14.5348L15.6314 22.7912Z" fill="white" stroke="black" stroke-width="0.0236499" stroke-miterlimit="10"/>
<path d="M13.7393 22.4838L11.561 25.0853L12.2021 21.798L13.4555 21.9162L13.7393 22.4838Z" fill="white" stroke="black" stroke-width="0.0236499" stroke-miterlimit="10"/>
<path d="M12.2832 22.1764L9.88428 24.8725L10.5938 21.6324H11.79L12.2832 22.1764Z" fill="white" stroke="black" stroke-width="0.0236499" stroke-miterlimit="10"/>
<path d="M8.89128 21.325L8.65479 22.0344L8.77303 25.6492L10.5015 22.055L10.0501 21.4196L8.89128 21.325Z" fill="white" stroke="black" stroke-width="0.0236499" stroke-miterlimit="10"/>
<path d="M6.98081 21.0248L6.82227 21.7979L7.72067 25.2508L8.65445 22.0344L8.17868 21.0248H6.98081Z" fill="white" stroke="black" stroke-width="0.0236499" stroke-miterlimit="10"/>
<path d="M5.1546 20.3552L4.95532 21.202L5.69518 24.6504L6.8226 21.7979L6.98114 21.0248L6.1006 20.0714L5.1546 20.3552Z" fill="white" stroke="black" stroke-width="0.0236499" stroke-miterlimit="10"/>
<path d="M3.49882 19.3147L3.16772 20.1661L3.581 23.4871L4.95504 21.2021L5.15431 20.3553L4.16102 19.3147H3.49882Z" fill="white" stroke="black" stroke-width="0.0236499" stroke-miterlimit="10"/>
<path d="M1.66113 18.4359L1.76683 22.7912L3.16798 20.166L3.49908 19.3146L2.67133 18.6288L1.66113 18.4359Z" fill="white" stroke="black" stroke-width="0.0236499" stroke-miterlimit="10"/>
<path d="M-0.119468 18.1794L-0.545166 19.8586V21.0248L0.0224309 19.9059L1.66102 18.4359L1.00923 18.1794H-0.119468Z" fill="white" stroke="black" stroke-width="0.0236499" stroke-miterlimit="10"/>
<path d="M1.19566 24.6504L-0.817265 25.9601L-1.18384 27.19L-0.293916 26.8353L-0.119594 27.0508L1.19566 24.6504Z" fill="white" stroke="black" stroke-width="0.0236499" stroke-miterlimit="10"/>
<path d="M3.05783 26.0747L-0.219238 27.5894L0.12833 28.2176L0.9212 28.3726L3.05783 26.0747Z" fill="white" stroke="black" stroke-width="0.0236499" stroke-miterlimit="10"/>
<path d="M3.95168 27.3319L1.19596 28.4789L0.451172 29.1006L0.7794 29.8151L1.66119 30.1226L2.38762 28.8508L3.95168 27.3319Z" fill="white" stroke="black" stroke-width="0.0236499" stroke-miterlimit="10"/>
<path d="M1.93823 30.3591L2.48692 29.6496L4.95534 27.8717L3.65375 30.1226L3.30992 31.2342L2.17473 30.8321L1.93823 30.3591Z" fill="white" stroke="black" stroke-width="0.0236499" stroke-miterlimit="10"/>
<path d="M3.73535 31.6125L3.9482 31.0686C3.9482 31.0686 5.88291 28.9193 5.96797 28.9888C6.05304 29.0583 5.26719 31.7243 5.26719 31.7243L4.6104 32.0382L3.73535 31.6125Z" fill="white" stroke="black" stroke-width="0.0236499" stroke-miterlimit="10"/>
<path d="M5.5327 32.7715L5.34351 31.8965L7.82674 29.3365L6.8223 32.7715H5.5327Z" fill="white" stroke="black" stroke-width="0.0236499" stroke-miterlimit="10"/>
<path d="M7.73872 34.3513L7.40137 33.1734L9.29336 30.2408L9.05686 33.8593L7.73872 34.3513Z" fill="white" stroke="black" stroke-width="0.0236499" stroke-miterlimit="10"/>
<path d="M10.3809 35.0182L9.88428 34.1776L11.5609 31.054L11.3979 34.5452L10.3809 35.0182Z" fill="white" stroke="black" stroke-width="0.0236499" stroke-miterlimit="10"/>
<path d="M11.9656 34.4979L12.5573 33.557L13.2117 31.2343L13.4792 34.6398L13.1481 35.3966L12.5573 35.5431L11.9656 34.4979Z" fill="white" stroke="black" stroke-width="0.0236499" stroke-miterlimit="10"/>
<path d="M13.9316 35.0182L14.6617 33.883L15.2474 32.0383L15.4769 35.1707L14.8982 36.0825L13.9316 35.0182Z" fill="white" stroke="black" stroke-width="0.0236499" stroke-miterlimit="10"/>
<path d="M16.0667 35.0182L16.7866 32.0383L17.6233 35.0182L17.0787 35.8162L16.0667 35.0182Z" fill="white" stroke="black" stroke-width="0.0236499" stroke-miterlimit="10"/>
<path d="M21.0071 31.7244L21.1826 33.9272L21.5525 34.4687H22.2236L22.3725 33.9196L21.0071 31.7244Z" fill="white" stroke="black" stroke-width="0.0236499" stroke-miterlimit="10"/>
<path d="M22.6749 31.397L22.0425 33.3885L22.3727 33.9195L23.0182 34.1899L23.1876 33.3885L22.6749 31.397Z" fill="white" stroke="black" stroke-width="0.0236499" stroke-miterlimit="10"/>
<path d="M24.2595 31.7244L23.6724 33.0361L24.169 33.5519L24.6319 32.7935L24.2595 31.7244Z" fill="white" stroke="black" stroke-width="0.0236499" stroke-miterlimit="10"/>
<path d="M25.2812 31.397L24.8801 32.638L25.0913 33.0964L25.4934 32.5585L25.2812 31.397Z" fill="white" stroke="black" stroke-width="0.0236499" stroke-miterlimit="10"/>
<path d="M-3.59611 32.5639L-4.07184 30.9733L-6.46729 28.7273L-3.25319 31.0539L-1.51492 32.0383L-0.817253 33.036C-0.817253 33.036 -0.734479 32.6467 -0.54528 32.6381C-0.356081 32.6295 0.186728 33.3886 0.186728 33.3886L0.947186 33.036L2.20114 34.3514L3.16775 34.2938L4.63541 35.543V34.4686L6.58516 35.543L8.34707 35.1558V36.0824L11.9655 34.0603L9.88431 36.3183L11.2989 36.6768L10.7226 36.9429L12.7223 37.5808L15.1346 37.2412L15.6312 37.5808L18.168 36.9049L18.8103 37.5808H21.6898L22.0423 39.6425H-2.50345L-3.59611 32.5639Z" fill="#57B1C2"/>
<path d="M13.8577 26.4059C17.4606 26.6864 20.533 23.9001 22.384 21.0936C23.4135 19.5326 24.1946 17.7763 24.6174 15.9529C25.0202 14.2155 25.0997 12.393 24.6246 10.6616C24.2508 9.29957 23.5454 8.07791 22.9431 6.81111C22.874 6.66579 22.8066 6.51967 22.7417 6.37243C22.7254 6.33547 22.7095 6.29834 22.6933 6.26135C22.6387 6.13673 22.7319 6.35696 22.6803 6.2308C22.6444 6.1429 22.6085 6.05499 22.5743 5.96638C22.4494 5.64266 22.3406 5.31265 22.2534 4.97672C22.2099 4.80891 22.1717 4.6397 22.1392 4.4694C22.1226 4.38193 22.1074 4.29418 22.0938 4.20619C22.0917 4.19311 22.0705 4.04482 22.0858 4.15889C22.0777 4.09815 22.0706 4.03724 22.0641 3.9763C22.0205 3.57015 22.0092 3.16084 22.0263 2.75277C22.0347 2.54945 22.0501 2.34643 22.0724 2.14415C22.0776 2.09638 22.0837 2.04871 22.0893 2.00097C22.1038 1.87667 22.0711 2.12514 22.0945 1.96393C22.1101 1.85704 22.1276 1.75044 22.1469 1.64418C22.227 1.20445 22.3394 0.770792 22.4803 0.346662C22.5575 0.114334 22.6443 -0.114286 22.7364 -0.341044C22.7479 -0.369214 22.7921 -0.469453 22.7335 -0.33477C22.7457 -0.362959 22.7577 -0.391281 22.77 -0.41946C22.7948 -0.476488 22.8202 -0.533304 22.846 -0.589907C22.9033 -0.715682 22.963 -0.8404 23.0248 -0.964036C23.2842 -1.48299 23.5816 -1.98259 23.9071 -2.46274C23.9923 -2.5885 24.0795 -2.71294 24.1685 -2.83608C24.2142 -2.89928 24.2603 -2.96214 24.3069 -3.02467C24.3305 -3.05634 24.3542 -3.08793 24.3781 -3.11943C24.391 -3.13653 24.4966 -3.27378 24.4219 -3.17756C24.6355 -3.45268 24.8573 -3.72132 25.0863 -3.9837C25.5992 -4.57118 26.1471 -5.12756 26.7186 -5.65795C28.1523 -6.98855 29.6853 -8.12185 31.3256 -9.19188C31.7973 -9.49961 32.2747 -9.7986 32.7562 -10.0908C32.9853 -10.2299 33.0713 -10.5361 32.9343 -10.7704C32.8003 -10.9995 32.485 -11.0882 32.2548 -10.9485C30.4337 -9.84312 28.6697 -8.63399 27.038 -7.26191C25.8386 -6.25335 24.709 -5.14947 23.7443 -3.91176C22.4034 -2.19136 21.3844 -0.229933 21.1022 1.95289C20.9351 3.24545 21.0498 4.56693 21.4631 5.80472C21.9016 7.11782 22.6283 8.30139 23.1826 9.56399C23.1992 9.60185 23.2155 9.63986 23.232 9.67778C23.2873 9.80516 23.194 9.58321 23.2464 9.71228C23.2779 9.78984 23.3097 9.86726 23.34 9.94527C23.4018 10.1037 23.46 10.2636 23.514 10.4248C23.6317 10.7759 23.7293 11.1338 23.8034 11.4966C23.822 11.5879 23.8392 11.6796 23.8548 11.7714C23.8628 11.8181 23.8704 11.8649 23.8776 11.9117C23.8789 11.9198 23.9014 12.0759 23.887 11.9698C23.916 12.1835 23.9352 12.3988 23.9477 12.6141C23.9742 13.0692 23.9664 13.526 23.9306 13.9804C23.8642 14.8235 23.6831 15.7159 23.4189 16.5893C23.1462 17.4908 22.8256 18.2726 22.3997 19.0992C21.5709 20.7074 20.536 22.1184 19.1831 23.3177C18.8418 23.6203 18.5964 23.8156 18.2393 24.0633C17.9021 24.2971 17.5509 24.511 17.186 24.6988C17.0158 24.7864 16.8427 24.8686 16.6667 24.9438C16.7599 24.9039 16.6165 24.9638 16.6106 24.9662C16.5669 24.9836 16.5231 25.0007 16.4791 25.0174C16.3771 25.056 16.2742 25.0924 16.1706 25.1264C15.807 25.2458 15.4341 25.3346 15.0553 25.3899C15.1696 25.3732 15.0207 25.3936 15.0074 25.3951C14.9624 25.4002 14.9174 25.4047 14.8723 25.4088C14.7447 25.4202 14.6168 25.4274 14.4887 25.4306C14.2781 25.4357 14.0677 25.429 13.8577 25.4126C13.59 25.3918 13.3611 25.6558 13.3611 25.9093C13.3611 26.1954 13.5892 26.385 13.8577 26.4059Z" fill="black"/>
</g>
<defs>
<clipPath id="clip0_3924_107118">
<rect width="32" height="32" rx="7" fill="white"/>
</clipPath>
</defs>
</svg>
