<svg width="32" height="32" viewBox="0 0 32 32" fill="none" xmlns="http://www.w3.org/2000/svg">
<g clip-path="url(#clip0_3232_67135)">
<rect width="32" height="32" rx="7" fill="#43AAF6"/>
<path d="M24.7764 0.505198L24.1683 -2.23996C24.1284 -2.42014 23.8716 -2.42014 23.8317 -2.23995L23.2236 0.505198C22.6812 5.07668 19.077 8.68095 14.5055 9.22337L11.7601 9.8314C11.5799 9.8713 11.5799 10.1282 11.7601 10.1681L14.5055 10.7761C19.077 11.3185 22.6812 14.9228 23.2236 19.4942L23.8317 22.2398C23.8716 22.42 24.1284 22.42 24.1683 22.2398L24.7764 19.4942C25.3188 14.9228 28.9231 11.3185 33.4945 10.7761L36.2399 10.1683C36.4201 10.1284 36.4201 9.87152 36.2399 9.8316L33.4945 9.22337C28.9231 8.68095 25.3188 5.07668 24.7764 0.505198Z" fill="#6BC0FF"/>
<path d="M20.9964 13.9062L14.9793 21.6454L9.72986 26.0027C9.72986 26.0027 7.24001 24.737 7.42675 24.156C7.61349 23.5751 12.8422 14.9021 12.9459 14.8191C13.0497 14.7361 19.1083 12.516 19.1083 12.516L20.9964 13.9062Z" fill="#321926"/>
<path d="M14.5852 23.4091C14.3718 22.7899 13.9452 21.2678 14.5229 19.5913C15.3872 17.0834 17.8458 16.1256 18.5897 15.8358C21.0096 14.893 22.048 15.8262 24.503 15.5453C28.8264 15.0506 33.5035 11.2529 34.0682 7.22505C34.474 4.33099 32.5079 3.09192 33.2797 0.647712C34.0852 -1.90297 37.0785 -3.2526 39.5459 -4" stroke="#333333" stroke-width="2" stroke-miterlimit="10"/>
<path d="M4.21074 36.7713L6.45161 34.4059L7.75877 32.2066L5.91214 29.3432L6.99042 28.6574L7.10197 26.9077L5.8084 26.6874L6.14037 24.8823L7.50979 23.9071L8.48498 21.5625L7.3853 20.5458L8.44348 17.1015L9.87514 16.728L11.0897 14.4457L14.0156 13.5088L15.7818 11.9838L15.664 14.4457L18.3821 12.8688L20.9965 13.9062L17.3239 3.15836L15.498 1.78894L9.68889 9.84558C9.34351 10.3246 8.95407 10.7702 8.52567 11.1766L6.33894 13.2512C5.53501 14.0139 4.60343 14.6295 3.5866 15.0701L-1.24617 17.1637L-7 21.9671C-7 21.9671 -3.21729 36.3978 -2.76082 36.4808C-2.57261 36.515 -0.341849 37.0996 2.21498 37.7748L2.72973 37.4285L4.21074 36.7713Z" fill="#1877A1"/>
<path d="M17.5733 30.5674L20.9968 22.5169L21.1134 20.674C21.1731 19.7308 21.006 18.787 20.6261 17.9216L20.4573 17.5372L19.0464 17.2882L12.8426 23.1186L9.58501 24.4465L11.3779 19.7788L15.6644 14.4456L15.7821 11.9838L14.0159 13.5088L11.09 14.4456L9.87549 16.728L8.44383 17.1015L7.38565 20.5458L8.48533 21.5625L7.51014 23.9071L6.14073 24.8822L5.80875 26.6874L7.10232 26.9077L6.99077 28.6574L5.91249 29.3432L7.75913 32.2065L6.45196 34.4059L4.2111 36.7713L2.73008 37.4285L2.21533 37.7747C5.85944 38.7371 10.166 39.8836 10.166 39.8836L17.5733 30.5674Z" fill="#E8E8E2"/>
<path d="M13.0672 6L17 9.85496L12 11L13.6418 8.8626L13.0672 6Z" fill="#0F4963"/>
<path d="M3.63492 22.9814C4.88304 22.9814 5.89484 21.9696 5.89484 20.7215C5.89484 19.4733 4.88304 18.4615 3.63492 18.4615C2.3868 18.4615 1.375 19.4733 1.375 20.7215C1.375 21.9696 2.3868 22.9814 3.63492 22.9814Z" fill="#9FF8F7"/>
<path d="M6.81909 18.0655L3.63541 19.1047L1.37549 21.5873H-3L3.63541 17L6.81909 18.0655Z" fill="#136082"/>
<path d="M9.96802 23.449L10.6469 23.9939L10.3074 22.5653L9.96802 23.449Z" fill="white"/>
<path d="M10.5371 21.967L11.3777 22.9955L10.9574 20.9987L10.5371 21.967Z" fill="white"/>
<path d="M11.0898 20.6442L12.2199 21.3243L11.5504 19.564L11.3778 19.7788L11.0898 20.6442Z" fill="white"/>
<path d="M11.8416 19.2016L13.1646 20.0996L12.4897 18.3953L11.8416 19.2016Z" fill="#AEC4CF"/>
<path d="M12.8394 17.9604L14.2068 18.8717L13.4837 17.1587L12.8394 17.9604Z" fill="white"/>
<path d="M13.8057 16.7582L14.9381 17.6618L14.3719 16.0537L13.8057 16.7582Z" fill="#AEC4CF"/>
<path d="M14.5698 15.8068L15.7255 16.4525L15.1477 15.0879L14.5698 15.8068Z" fill="white"/>
<path d="M15.3325 14.8584L16.5979 15.9396L16.3003 14.0767L15.6642 14.4457L15.3325 14.8584Z" fill="#AEC4CF"/>
<path d="M16.7449 13.8187C16.7449 13.8187 17.8874 15.1493 17.8962 15.088C17.905 15.0266 17.5624 13.3444 17.5624 13.3444L16.7449 13.8187Z" fill="white"/>
<path d="M17.8962 13.1505L19.1498 14.653L18.6486 12.9744L18.3821 12.8687L17.8962 13.1505Z" fill="white"/>
<path d="M20.042 14.3004C20.042 14.3004 20.8305 15.3171 20.8305 15.2963C20.8305 15.2756 20.9965 13.9062 20.9965 13.9062L19.9836 13.5043L20.042 14.3004Z" fill="white"/>
<path d="M11.0371 23.8449L10.6467 22.8369L11.6548 23.6028L11.0371 23.8449Z" fill="white"/>
<path d="M12.0408 23.453L11.4246 21.5209L12.745 23.1595L12.0408 23.453Z" fill="#AEC4CF"/>
<path d="M13.4312 22.5653L12.5032 20.8362L14.0678 21.967L13.4312 22.5653Z" fill="white"/>
<path d="M14.5701 21.5211L13.8057 20.0347L15.148 20.952L14.5701 21.5211Z" fill="white"/>
<path d="M15.8261 20.3426L15.021 19.031L16.3396 19.8437L15.8261 20.3426Z" fill="#AEC4CF"/>
<path d="M16.8092 19.3303L16.0378 18.2012L17.3208 18.9099L16.8092 19.3303Z" fill="white"/>
<path d="M17.8683 18.3954L17.1375 17.3297L18.3203 18.0151L17.8683 18.3954Z" fill="#AEC4CF"/>
<path d="M18.6487 17.6617L18.2473 16.7041L19.0461 17.2882L18.6487 17.6617Z" fill="white"/>
<path d="M15.782 11.9837L16.3757 11.6922C17.568 11.1066 18.9518 11.0506 20.1875 11.5379L20.9967 13.9061L18.3824 12.8687L15.6021 14.4871L15.782 11.9837Z" fill="#AEC4CF"/>
<path d="M6.81909 18.0655L3.63541 18.0114L-3 21.5873L3.63541 17L6.81909 18.0655Z" fill="#1E93C7"/>
<path d="M19.0459 17.2882L12.9792 23.994L8.27734 25.3595L11.5501 19.564L9.58451 24.4465L12.8421 23.1186L19.0459 17.2882Z" fill="#F5F5EE"/>
<path d="M-3.50464 22.4911L-0.83115 29.7788L2.94607 33.1196L5.37272 34.2398L2.68576 33.6602L-1.48732 29.9559L-3.50464 22.4911Z" fill="#2A445A"/>
<path d="M-4.84937 23.8657L-2.17588 31.1534L1.60135 34.4942L4.02799 35.6144L1.34103 35.0348L-2.83204 31.3306L-4.84937 23.8657Z" fill="#2A445A"/>
<path d="M-3.50464 22.4911L-0.83115 29.7788L2.94607 33.1196L6.2202 34.6501L6.45165 34.4058L7.75882 32.2064L5.91218 29.3431L3.31859 31.1897L-0.410686 29.2846L-3.50464 22.4911Z" fill="#136082"/>
<path d="M-4.83569 23.8656L-2.17592 31.1535L1.60131 34.4942L4.9561 35.9845L6.22016 34.6502L5.37267 34.24L2.69609 33.6797L-1.68189 30.6504L-4.83569 23.8656Z" fill="#136082"/>
</g>
<defs>
<clipPath id="clip0_3232_67135">
<rect width="32" height="32" rx="7" fill="white"/>
</clipPath>
</defs>
</svg>
