<svg width="32" height="32" viewBox="0 0 32 32" fill="none" xmlns="http://www.w3.org/2000/svg">
<g clip-path="url(#clip0_3375_122424)">
<rect width="32" height="32" rx="7" fill="#F64346"/>
<path d="M24.7764 0.505198L24.1683 -2.23996C24.1284 -2.42014 23.8716 -2.42014 23.8317 -2.23995L23.2236 0.505198C22.6812 5.07668 19.077 8.68095 14.5055 9.22337L11.7601 9.8314C11.5799 9.8713 11.5799 10.1282 11.7601 10.1681L14.5055 10.7761C19.077 11.3185 22.6812 14.9228 23.2236 19.4942L23.8317 22.2398C23.8716 22.42 24.1284 22.42 24.1683 22.2398L24.7764 19.4942C25.3188 14.9228 28.9231 11.3185 33.4945 10.7761L36.2399 10.1683C36.4201 10.1284 36.4201 9.87152 36.2399 9.8316L33.4945 9.22337C28.9231 8.68095 25.3188 5.07668 24.7764 0.505198Z" fill="#F97F74"/>
<path d="M6.62656 10.1799L10.2532 11.7728C10.4625 11.8647 10.6658 11.9696 10.8621 12.0868L17.3316 15.9511C18.2975 16.5281 19.0633 17.3872 19.5259 18.4128L23.5572 27.3503C23.7533 27.7851 23.8921 28.2436 23.97 28.7141L25.5686 38.3705L5.01491 39.2127C3.28339 39.2836 1.6196 38.5348 0.524558 37.1916L-2.76218 33.1602C-3.61597 32.1129 -4.05462 30.7882 -3.99456 29.4383L-3.38952 15.8414C-3.34813 14.9113 -3.07137 14.0069 -2.58529 13.2128C-1.72566 11.8085 -0.41654 9.69194 -0.346051 9.71045C-0.270951 9.73017 2.69388 9.72179 4.39272 9.71534C5.16163 9.71242 5.92255 9.87066 6.62656 10.1799Z" fill="black"/>
<path d="M9.5 25C10.3284 25 11 23.433 11 21.5C11 19.567 10.3284 18 9.5 18C8.67157 18 8 19.567 8 21.5C8 23.433 8.67157 25 9.5 25Z" fill="#FDFFFC"/>
<path d="M3.5 26C4.32843 26 5 24.433 5 22.5C5 20.567 4.32843 19 3.5 19C2.67157 19 2 20.567 2 22.5C2 24.433 2.67157 26 3.5 26Z" fill="#FDFFFC"/>
<path d="M18.0056 30.8811L22.9389 28.4547C23.5222 28.1678 24.1979 28.1338 24.8071 28.3606L26.2822 28.9098C26.7792 29.0948 27.1996 29.4416 27.4757 29.8943L29.0235 32.4321C29.4853 33.1892 29.4845 34.141 29.0215 34.8973L27.6013 37.2175C27.2106 37.8558 26.5407 38.2714 25.7953 38.3379L14.7385 39.3254L16.7798 32.3394C16.9658 31.7029 17.4106 31.1738 18.0056 30.8811Z" fill="black"/>
<path d="M14.2395 16.1022C14.3493 15.6369 14.6857 15.2582 15.1347 15.0938C15.7619 14.864 16.4255 14.4809 16.8502 13.8205C18.3466 11.4933 17.473 8.57556 16.4489 7.12249C16.0809 6.60031 18.5542 7.83697 19.5073 9.14295C21.3444 11.6603 20.6982 14.8134 20.4622 15.9655C20.3087 16.7144 20.0909 17.3857 19.85 17.9739C19.3884 19.1007 18.2304 19.7799 17.0209 19.6396L16.695 19.6018C14.9944 19.4046 13.8464 17.7684 14.2395 16.1022Z" fill="black"/>
</g>
<defs>
<clipPath id="clip0_3375_122424">
<rect width="32" height="32" rx="7" fill="white"/>
</clipPath>
</defs>
</svg>
