<svg width="32" height="32" viewBox="0 0 32 32" fill="none" xmlns="http://www.w3.org/2000/svg">
<g clip-path="url(#clip0_3375_105076)">
<rect width="32" height="32" rx="7" fill="#F67343"/>
<path d="M24.7764 0.505198L24.1683 -2.23996C24.1284 -2.42014 23.8716 -2.42014 23.8317 -2.23995L23.2236 0.505198C22.6812 5.07668 19.077 8.68095 14.5055 9.22337L11.7601 9.8314C11.5799 9.8713 11.5799 10.1282 11.7601 10.1681L14.5055 10.7761C19.077 11.3185 22.6812 14.9228 23.2236 19.4942L23.8317 22.2398C23.8716 22.42 24.1284 22.42 24.1683 22.2398L24.7764 19.4942C25.3188 14.9228 28.9231 11.3185 33.4945 10.7761L36.2399 10.1683C36.4201 10.1284 36.4201 9.87152 36.2399 9.8316L33.4945 9.22337C28.9231 8.68095 25.3188 5.07668 24.7764 0.505198Z" fill="#FFA787"/>
<path d="M25.2326 32.8827L23.7239 26.0341C23.7056 25.9514 23.6798 25.8705 23.6468 25.7925L20.7292 18.9071C20.6342 18.6829 20.4868 18.4971 20.3076 18.3574L18.5898 20.6304C18.2652 21.0598 18.2193 21.6385 18.4719 22.1138L20.8122 26.5162C20.8883 26.6593 20.9386 26.8146 20.9609 26.9751L22.0943 35.1318C22.1069 35.2225 22.11 35.3126 22.105 35.4012L24.4079 34.4572C25.029 34.2026 25.377 33.5382 25.2326 32.8827Z" fill="#33313D"/>
<path d="M22.0945 35.1318L20.9612 26.9751C20.9389 26.8146 20.8885 26.6593 20.8124 26.5162L18.4721 22.1138C18.2195 21.6385 18.2655 21.0598 18.59 20.6304L20.3078 18.3574C19.9209 18.056 19.3851 17.9702 18.9037 18.1814L12.9709 20.7831C12.2237 21.1107 11.9221 22.0113 12.3212 22.7228L19.3339 35.2268C19.6751 35.8351 20.4164 36.0935 21.0618 35.8289L22.1052 35.4012C22.1103 35.3126 22.1071 35.2225 22.0945 35.1318Z" fill="#2B2933"/>
<path d="M3.08853 28.4256L5.65654 26.5319L5.4266 24.0334C5.4266 24.0334 1.32571 25.2818 1.30383 25.4553C1.28195 25.6289 2.2574 27.6772 2.31148 27.7668C2.36557 27.8563 3.08853 28.4256 3.08853 28.4256Z" fill="#33313D"/>
<path d="M20.1566 35.1196L17.9389 23.0258C17.8909 22.7641 17.7827 22.5272 17.6308 22.3273L4.89446 25.2688C3.82783 25.5151 3.14391 26.5572 3.34231 27.6338L5.42659 38.9439L18.7683 37.0475C19.6946 36.9158 20.3254 36.0399 20.1566 35.1196Z" fill="#33313D"/>
<path d="M-1.62531 25.0138C-1.91743 25.3775 -2.05338 25.8614 -1.96018 26.3527L0.266494 38.0905C0.430524 38.9551 1.2453 39.5381 2.11663 39.4143L5.42667 38.9438L2.9877 25.7091L-1.62531 25.0138Z" fill="#2B2933"/>
<path d="M16.2247 21.6784L8.70175 22.1083C8.59819 22.1142 8.49543 22.1299 8.39482 22.1551L-0.74293 24.448C-1.10406 24.5387 -1.40799 24.743 -1.62549 25.0138L2.98753 25.7091L17.6307 22.3272C17.3083 21.9029 16.7884 21.6462 16.2247 21.6784Z" fill="#444252"/>
<path d="M5.90327 16.1566V19.7145C5.90327 21.1377 6.80523 22.4045 8.15007 22.8701L11.7383 24.1125C12.8858 23.508 13.6958 22.3329 13.7705 20.9436L14.0174 16.3538C14.1305 14.2522 12.5184 12.4569 10.4168 12.3438L6.42143 12.1289C4.31984 12.0158 2.52452 13.6279 2.41146 15.7295L2.30908 17.6328L4.35517 15.38L5.90327 16.1566Z" fill="#FDF5C8"/>
<path d="M5.76485 24.3293L9.76028 24.5442C10.4726 24.5825 11.1496 24.4225 11.738 24.1125L8.1498 22.8701C6.80496 22.4045 5.90299 21.1377 5.90299 19.7145V16.1566L4.3549 15.38L2.30881 17.6328L2.16429 20.3193C2.05124 22.4209 3.66326 24.2162 5.76485 24.3293Z" fill="#FFE1A8"/>
<path d="M16.5529 9.59534L15.7045 10.3488L16.292 8.41139L15.69 9.0736L15.4492 7.95384V6.62544L14.8903 7.36379L14.7268 4.83948L13.7636 2.65218L13.9104 3.33571L13.7952 4.16505L12.9007 1.80937L12.4993 3.05352L12.1181 0.625422L11.0947 -1L11.3355 0.284284L11.0947 1.14716L10.7134 0.50502L10.011 1.68897L10.0311 2.17058L9.70715 3.12436L9.53769 1.92904L8.88729 3.07359L8.36555 3.75586L8.30107 2.85285L7.68327 4.75921L6.11805 6.5853L5.01437 6.12376L5.31537 7.04684L2.48594 5.72242L3.14814 6.92644L-0.704708 5.32109L0.840447 7.04684L-0.263235 6.2843L-2.22979 5.74249L-3.77495 4.81941L-3.61441 5.38129L-5.14605 4.28927L-4.61776 5.32109L-7.00573 4.19734L-7.52747 2.85285L-7.72814 4.63881L-7.00573 5.80269L-7.88867 5.16055L-6.54419 7.48831L-6.38365 9.17394L-4.57763 12.0234L-5.42555 11.8591L-4.11609 14.4716L-4.79836 14.3512L-3.13281 15.5004L-1.50739 17.301L-3.13281 16.7191L-0.642978 19.0751L-2.591 18.7057L0.479242 20.592L1.80366 20.9131L1.38225 21.9566L1.94413 21.6556L1.12138 23.1807L2.00433 22.5861V23.3011L2.53982 22.1858L2.37854 21.8015L2.23239 21.2733L2.16517 20.7481L2.19986 19.6594L2.83205 20.4523L3.91069 19.2676L3.83042 18.6054L4.6933 18.786L5.03444 18.7459L4.5729 17.5017L5.09464 17.7024L5.20877 17.0164L5.19497 16.9198L5.2227 16.9326L5.26521 16.6771L5.42657 16.8373L5.15484 16.097L7.302 16.679V16.097L9.09729 17.1097L9.21822 16.4208L10.5127 17.3612L10.9542 16.7191L11.1348 17.3813L11.746 16.8053V17.0616L12.2385 16.3378L12.4707 16.4849L13.9104 14.6106L14.0353 15.3809C14.1079 15.8289 14.1114 16.2854 14.0458 16.7345L13.9681 17.2663L16.0111 14.1305L16.3121 12.9465L15.3288 13.7893L16.5529 9.59534Z" fill="#DBFDFF"/>
<path d="M14.0354 15.3809L13.9106 14.6106L12.4709 16.4849L12.2387 16.3378L11.7462 17.0616V16.8053L11.135 17.3813L10.9544 16.7191L10.5129 17.3613L9.21841 16.4208L9.09748 17.1097L7.30219 16.097V16.679L5.15503 16.097L5.42676 16.8373L5.2654 16.6772L5.22289 16.9327L5.75704 17.1807L5.31991 16.2758L7.50286 16.9911V16.4984L9.32895 17.4258V16.9599L10.7236 17.7024L10.8139 17.1405L11.135 17.7024L11.5965 17.0842V17.3613L12.2764 16.679H12.6199L13.7954 14.8493L13.9106 15.2267L14.0155 15.8109L14.0174 16.3537L13.9683 17.2664L14.046 16.7346C14.1116 16.2854 14.1081 15.8289 14.0354 15.3809Z" fill="#90CFDE"/>
<path d="M4.13983 19.4134V18.8563L4.79386 19.2271L5.19573 18.8563L4.79386 17.6823L5.35574 18.0435L5.209 17.0164L5.09487 17.7024L4.57313 17.5017L5.03467 18.7459L4.69353 18.786L3.83065 18.6054L3.91092 19.2676L2.83228 20.4523L2.92764 20.572L4.13983 19.4134Z" fill="#90CFDE"/>
<path d="M9.53785 14.593L9.91087 16.6189L9.09745 15.3694V16.1769L8.37987 15.606L6.92089 15.1139L5.3958 14.0102L5.57641 14.9968L3.19358 13.6614L3.72152 15.1401L3.04797 14.9734L4.07139 16.8597L3.44931 16.4182L3.3178 16.8597L2.60025 16.3943L3.3799 18.0649L2.04463 17.6022L2.60025 19.1272L0.619873 16.8998L1.80382 17.241L0.981078 15.2543L2.38613 16.239L1.01967 13.6614L2.32556 14.7727L1.70349 13.2878L1.08141 12.5453L2.34563 13.1072L4.15165 13.669L3.52958 12.766L6.25868 14.1506L5.57641 13.0092L7.14163 13.9098L7.72357 14.7527C7.72357 14.7527 7.2219 13.5888 7.30216 13.6289C7.38243 13.669 8.72692 14.7527 8.72692 14.7527L8.56638 14.1306L9.53785 14.593Z" fill="#90CFDE"/>
<path d="M-1.8374 15.8363L0.439318 17.6424H-0.315671L1.94434 20.0905L-0.25356 19.1272L-0.724564 17.4417L-1.8374 15.8363Z" fill="#90CFDE"/>
<path d="M-0.222674 15.8361L-0.463864 14.5318L-0.720154 13.92L-1.08594 13.0468L0.36738 14.4415L0.0533003 13.0468L0.61975 13.8476L-0.233095 11.9842L-0.383597 10.3378L0.459215 11.602L2.20504 11.7024L2.60013 12.2637L3.10805 12.2642L2.60013 11.3631L4.33213 11.8591V11.0526V10.3378L3.12812 9.41473L4.09406 10.8609L2.60013 10.3693V10.8609H1.6231L0.0533003 9.99667L1.268 11.1505L0.35888 10.6187L-1.83757 8.87866L-1.08594 10.0569L-1.27857 10.8609L-2.69995 9.53083L-1.68795 11.3612L-0.936956 12.3574L-2.14813 11.8591L-1.18627 13.7492L-2.14949 13.2274L-0.945471 14.9331L-0.845136 15.5953L-0.222674 15.8361Z" fill="#90CFDE"/>
<path d="M10.051 13.3278V13.4749V14.2823L11.0544 15.0535L11.4535 12.5452L11.8972 13.5686L12.1442 12.5452L11.8889 11.8591L12.7801 9.53512V11.8591L13.1614 11.5217V10.3693L13.6631 9.37459H13.9103L14.8902 8.47493L14.3654 6.60535L13.6631 8.57191L13.2617 7.42809L13.7211 6.60535L12.2985 8.39131V9.95653L11.6363 9.21405L11.2751 11.5217L10.7132 10.6187L10.7709 12.3574L10.7333 13.689L10.051 13.3278Z" fill="#90CFDE"/>
<path d="M10.051 12.7297L9.9105 9.53092L10.4523 10.2175V9.25505H10.9571L11.8971 5.74256L12.1441 6.89118L12.4705 6.14585L13.0379 6.60544L13.4824 4.13721L12.5995 5.40142L11.6965 4.13721L10.3319 6.80611L10.5125 8.05026L9.53749 6.60544V8.72347L9.21802 10.861L10.051 12.7297Z" fill="#90CFDE"/>
<path d="M8.72685 13.2878L9.09738 12.5453L8.22518 12.0465L7.66553 10.8296L8.0909 12.5453L7.7837 13.0671L8.72685 13.2878Z" fill="#90CFDE"/>
<path d="M6.4064 26.0053C6.44067 25.9693 6.48538 25.945 6.53421 25.9358L9.98773 25.288C10.0292 25.2802 10.072 25.2837 10.1117 25.298L11.5526 25.8177C11.6402 25.8493 11.7012 25.9294 11.7083 26.0223L11.9353 28.9734C11.9389 29.02 11.8736 29.0343 11.8574 28.9904L11.0288 26.7502C10.93 26.483 10.7243 26.2692 10.4611 26.1602C10.1919 26.0487 9.89939 26.0047 9.60922 26.032L6.90505 26.2869C6.87557 26.2896 6.84688 26.2979 6.82046 26.3113L6.68467 26.3799C6.44736 26.4998 6.22304 26.1978 6.4064 26.0053Z" fill="#444252"/>
<path d="M4.4532 29.414L4.35965 29.8881C4.3426 29.9745 4.37295 30.0634 4.43926 30.1213L5.51395 31.0602C5.55437 31.0955 5.60522 31.1167 5.65876 31.1204L8.15302 31.2959C8.20007 31.2992 8.24708 31.2889 8.28847 31.2663L11.7708 29.3631C11.8781 29.3045 11.9261 29.1761 11.8837 29.0614L11.2853 27.4436L10.3649 28.4008C9.82694 28.9602 9.1274 29.3372 8.36436 29.4789L6.26913 29.868C5.829 29.9497 5.37505 29.8366 5.02471 29.5579C4.97916 29.5217 4.94791 29.4705 4.93649 29.4134C4.88361 29.149 4.50541 29.1495 4.4532 29.414Z" fill="#2B2933"/>
<path d="M11.7952 27.1504L14.0361 27.5845C14.2639 27.6286 14.4971 27.6376 14.7277 27.611L15.749 27.4933C16.2688 27.4335 16.7518 27.1955 17.116 26.8198L17.496 26.4279C17.6606 26.2581 17.9465 26.3978 17.9137 26.6321L17.733 27.9208C17.7227 27.9942 17.6797 28.059 17.616 28.0969L15.9461 29.0918C15.9199 29.1074 15.8909 29.118 15.8608 29.123L13.7718 29.4676C13.7468 29.4717 13.7213 29.4719 13.6963 29.4682L12.1304 29.2375C12.0167 29.2207 11.93 29.127 11.9221 29.0122L11.7952 27.1504Z" fill="#2B2933"/>
<path d="M13.039 24.4398L13.1581 24.294C13.1752 24.273 13.198 24.2574 13.2238 24.2489L15.6238 23.4565C15.9263 23.3566 16.2554 23.3748 16.545 23.5073L17.6336 24.0055C17.6843 24.0287 17.7168 24.0793 17.7168 24.1351V24.3105C17.7168 24.4725 17.4895 24.5089 17.439 24.355C17.4245 24.3108 17.3892 24.2764 17.3446 24.263L16.5034 24.0103C16.2204 23.9253 15.9206 23.9125 15.6314 23.9732L13.5455 24.4109C13.5232 24.4156 13.5023 24.4255 13.4846 24.44L13.2395 24.6403C13.1064 24.7489 12.9303 24.5728 13.039 24.4398Z" fill="#444252"/>
<path d="M15.4382 31.4144L15.385 31.5889C15.3697 31.6391 15.3341 31.6806 15.2869 31.7034L12.851 32.8797C12.7837 32.9122 12.7036 32.9018 12.6468 32.8531L12.3188 32.572L12.9676 32.4986C12.9924 32.4958 13.0164 32.4881 13.0382 32.4759L14.8387 31.4705C14.8501 31.4642 14.8608 31.4566 14.8706 31.4481L15.1347 31.2178C15.2772 31.0935 15.4934 31.2336 15.4382 31.4144Z" fill="#2B2933"/>
<path d="M12.2519 31.0366L12.3122 30.2547C12.3161 30.2046 12.3548 30.1642 12.4047 30.1581L13.0747 30.0769C13.199 30.0619 13.1982 29.8813 13.0737 29.8674L11.9702 29.7443C11.9478 29.7418 11.9252 29.7465 11.9056 29.7578L11.0939 30.2275C10.9881 30.2888 11.0538 30.4509 11.1725 30.4211L11.6293 30.3064C11.6797 30.2937 11.7318 30.3196 11.7521 30.3675L12.0496 31.0696C12.0927 31.1713 12.2434 31.1467 12.2519 31.0366Z" fill="#444252"/>
<path d="M1.77791 27.2767L0.587914 26.5964L-3.60162 25.8668C-4.14255 25.7726 -4.6833 26.0339 -4.94565 26.5162L-6.88159 30.0755L-1.07567 33.4834C-0.194651 34.0005 0.939485 33.5901 1.28551 32.6289L2.50337 29.2459C2.77175 28.5004 2.46578 27.6699 1.77791 27.2767Z" fill="#33313D"/>
<path d="M-3.6015 25.8668L0.58803 26.5964L-3.78587 24.0961C-4.55804 23.6547 -5.54149 23.913 -5.99704 24.6769L-7.76947 27.6491C-8.23329 28.4269 -7.97501 29.4336 -7.19402 29.892L-6.88148 30.0755L-4.94554 26.5162C-4.68319 26.0339 -4.14243 25.7726 -3.6015 25.8668Z" fill="#2B2933"/>
</g>
<defs>
<clipPath id="clip0_3375_105076">
<rect width="32" height="32" rx="7" fill="white"/>
</clipPath>
</defs>
</svg>
