<svg width="32" height="32" viewBox="0 0 32 32" fill="none" xmlns="http://www.w3.org/2000/svg">
<g clip-path="url(#clip0_3232_87424)">
<rect width="32" height="32" rx="7" fill="#F64346"/>
<path d="M24.7764 0.505198L24.1683 -2.23996C24.1284 -2.42014 23.8716 -2.42014 23.8317 -2.23995L23.2236 0.505198C22.6812 5.07668 19.077 8.68095 14.5055 9.22337L11.7601 9.8314C11.5799 9.8713 11.5799 10.1282 11.7601 10.1681L14.5055 10.7761C19.077 11.3185 22.6812 14.9228 23.2236 19.4942L23.8317 22.2398C23.8716 22.42 24.1284 22.42 24.1683 22.2398L24.7764 19.4942C25.3188 14.9228 28.9231 11.3185 33.4945 10.7761L36.2399 10.1683C36.4201 10.1284 36.4201 9.87152 36.2399 9.8316L33.4945 9.22337C28.9231 8.68095 25.3188 5.07668 24.7764 0.505198Z" fill="#F97F74"/>
<path d="M9.99186 33.6239L12.8293 31.679L10.5857 23.2288L8.76831 28.326L9.99186 33.6239Z" fill="#242424"/>
<path d="M10.663 26.2544C9.25145 22.9305 6.52262 20.9089 4.56801 21.7389C2.6134 22.569 2.17318 25.9365 3.58475 29.2604C4.99632 32.5843 7.72515 34.6059 9.67976 33.7758C11.6344 32.9458 12.0746 29.5783 10.663 26.2544Z" fill="#242424"/>
<path d="M31.9463 22.7054L32.8671 22.7301L33.4891 25.6536L28.5997 30.0019L18.0979 34.0747L12.4628 32.8772L13.154 31.9821L17.6557 32.9266L28.4021 28.9424L32.6629 25.4788L31.9463 22.7054Z" fill="#242424"/>
<path d="M26.8219 15.2037L17.6616 15.8848L10.5686 13.8363L0.554322 15.378L-5.67197 17.3054L-11.7038 22.3264L-10.8993 26.6586L-10.1947 26.8146C-10.657 24.8174 -10.6532 23.2385 -10.1329 23.0829C-9.51597 22.8983 -8.40667 24.7845 -7.65519 27.2958C-7.64651 27.3248 -7.638 27.3538 -7.62949 27.3827L3.95465 29.9479C2.67271 26.0723 2.93168 22.6141 4.69076 21.8671C6.67397 21.0249 9.81277 23.9475 11.7015 28.3949C12.2129 29.5993 12.5802 30.792 12.8046 31.9077L12.8888 31.9264L17.6558 32.9265L28.4022 28.9423L32.663 25.4787L30.2248 16.0423L26.8219 15.2037Z" fill="#01DB4E"/>
<path d="M3.95483 29.9479L4.00986 30.8206L-7.44545 28.0517L-7.65501 27.2958L3.95483 29.9479Z" fill="#242424"/>
<path d="M17.656 32.9264L15.0083 25.3046L12.9704 21.5527L11.3933 20.4208L26.8221 15.2037L30.225 16.0423L32.6632 25.4786L28.4024 28.9422L17.656 32.9264Z" fill="#03EB55"/>
<path d="M23.9233 22.3471L22.8153 20.7707L19.0949 19.3322L12.9704 21.5527L13.8437 25.3156L15.0083 25.3046L22.8587 23.0954L23.9233 22.3471Z" fill="#F3FDF5"/>
<path d="M30.0088 19.0337L29.2527 18.1063L28.3985 16.0755L29.1718 15.7828L30.2248 16.0423L30.9705 18.9283L30.0088 19.0337Z" fill="#F3FDF5"/>
<path d="M8.05582 23.9199L8.08066 23.8681C7.63047 23.3993 7.11985 23.0064 6.55289 22.7482L6.56626 22.8911C7.12716 23.1211 7.62254 23.4916 8.05582 23.9199Z" fill="#454545"/>
<path d="M4.62271 22.988C4.6637 22.9623 4.70767 22.9332 4.74936 22.9078C4.77889 22.8927 4.85258 22.8546 4.88302 22.8391C4.91472 22.8267 4.9919 22.7949 5.02272 22.7829C5.06979 22.7693 5.12028 22.7524 5.16735 22.7394C5.20972 22.7312 5.27224 22.7162 5.31584 22.7087C5.36534 22.7038 5.4175 22.6947 5.46709 22.6908C5.46709 22.6908 5.56898 22.6868 5.56898 22.6868C5.59752 22.6852 5.64316 22.6848 5.67121 22.6873L5.77373 22.6914C5.77373 22.6914 5.79279 22.6936 5.81445 22.696L5.79819 22.528C5.79578 22.5276 5.79298 22.5271 5.79087 22.5268C5.75763 22.5234 5.65585 22.5147 5.62515 22.5117C5.58556 22.5098 5.49902 22.5103 5.45802 22.5093C5.40382 22.5126 5.34518 22.5156 5.29051 22.5206C5.25106 22.5253 5.16445 22.5402 5.12389 22.5462C5.07088 22.5591 5.01286 22.5726 4.95963 22.5867C4.92451 22.599 4.83536 22.6287 4.79927 22.6419C4.76478 22.6582 4.6775 22.6955 4.6443 22.7118C4.60136 22.7363 4.55442 22.7615 4.5111 22.7867L4.61543 22.9935C4.61791 22.9917 4.62057 22.9896 4.62271 22.988Z" fill="#454545"/>
<path d="M3.66766 24.8223C3.74411 24.3109 3.90287 23.7942 4.21749 23.3819L4.09266 23.1289C4.05876 23.1674 4.02212 23.2062 3.98943 23.2453C3.96134 23.2832 3.91577 23.3397 3.88656 23.3798C3.86631 23.4113 3.81306 23.4881 3.79335 23.5206C3.75988 23.5742 3.72737 23.6366 3.6953 23.6909C3.6953 23.6909 3.68287 23.7159 3.68287 23.7159C3.68287 23.7159 3.63373 23.8165 3.63372 23.8165C3.43373 24.2535 3.31445 24.7433 3.26635 25.2634L3.38357 24.5916L3.66766 24.8223Z" fill="#454545"/>
<path d="M4.35547 22.892C4.35411 22.8931 4.35265 22.8943 4.35128 22.8954L4.4272 22.8421C4.40084 22.8598 4.37437 22.8778 4.35547 22.892Z" fill="#454545"/>
<path d="M9.80377 26.5569C9.51618 25.8848 9.13078 25.18 8.6548 24.5464L8.64087 24.5749C9.1172 25.1772 9.50038 25.8523 9.80377 26.5569Z" fill="#454545"/>
<path d="M9.92253 26.8501C9.88411 26.7506 9.8446 26.6528 9.80418 26.5569C9.84483 26.654 9.88401 26.7518 9.92169 26.8502L9.92253 26.8501Z" fill="#454545"/>
<path d="M8.77443 32.7647C8.72999 32.7707 8.67256 32.7818 8.62616 32.7871C8.5771 32.7892 8.52549 32.7957 8.47644 32.7967C8.42638 32.795 8.38015 32.797 8.32621 32.7942C8.2928 32.7902 8.21099 32.7846 8.17628 32.7802C8.12935 32.7716 8.07834 32.7648 8.02733 32.7554C8.01089 32.7518 7.99455 32.7476 7.97816 32.7437L7.88 32.7203C7.82525 32.7058 7.76491 32.6842 7.71053 32.6686C7.64515 32.6429 7.56147 32.6152 7.49768 32.5849C7.48918 32.5812 7.48081 32.5771 7.47234 32.5733L7.50303 32.9011C7.53463 32.9122 7.56629 32.9229 7.59807 32.933C7.62907 32.9443 7.67393 32.9529 7.70631 32.9624C7.77133 32.9815 7.8578 32.9969 7.92588 33.0099C7.95898 33.0173 8.0031 33.0224 8.03728 33.0264C8.10153 33.035 8.19896 33.0439 8.26234 33.0442C8.29398 33.0453 8.34481 33.0483 8.37545 33.045C8.44097 33.0439 8.53785 33.0379 8.60141 33.028C8.66733 33.0227 8.75884 33.0002 8.82451 32.9873C8.86144 32.9766 8.90064 32.9652 8.93897 32.9537L8.83823 32.7495C8.81668 32.7549 8.79521 32.7602 8.77443 32.7647Z" fill="#454545"/>
<path d="M10.0703 31.7091C10.0574 31.7367 10.0353 31.7731 10.02 31.8002C9.98235 31.8723 9.92604 31.9509 9.88175 32.0193C9.86044 32.0461 9.80969 32.1142 9.78756 32.1419C9.76749 32.1651 9.70358 32.2354 9.68523 32.2568C9.66 32.2829 9.60144 32.3368 9.57496 32.3631C9.52356 32.4055 9.47082 32.4513 9.41536 32.4884C9.41536 32.4884 9.4092 32.4926 9.40803 32.4934L9.49546 32.6667C9.52308 32.6464 9.55176 32.6253 9.57355 32.6069C9.61362 32.5695 9.65897 32.5326 9.69792 32.4942C9.7337 32.455 9.77493 32.415 9.81222 32.3724C9.83406 32.3441 9.89444 32.2721 9.91643 32.2427C9.94452 32.201 9.98053 32.1515 10.0106 32.1065C10.0298 32.0734 10.0759 31.9989 10.0948 31.9647C10.1249 31.9111 10.1536 31.8483 10.1823 31.7941C10.2114 31.7248 10.2525 31.6393 10.2768 31.5678C10.3214 31.4447 10.36 31.3192 10.3929 31.1918L10.3025 31.1189C10.2424 31.3213 10.166 31.5189 10.0703 31.7091Z" fill="#454545"/>
<path d="M5.52854 30.93L5.33668 31.3217C5.76861 31.8254 6.25115 32.2496 6.76851 32.5563L6.72747 32.1322C6.27262 31.7971 5.87606 31.3783 5.52854 30.93Z" fill="#454545"/>
<path d="M10.4529 29.0229C10.4948 29.4552 10.5037 29.8995 10.4566 30.3355L10.5262 30.392C10.5944 29.584 10.4831 28.7345 10.2733 27.9338L10.2632 27.9346C10.3514 28.2926 10.4163 28.6561 10.4529 29.0229Z" fill="#454545"/>
<path d="M4.15854 28.4276L3.77559 28.4585L3.63053 27.6486L3.89779 27.6147C3.72889 26.9903 3.62816 26.3521 3.61696 25.7282L3.25331 25.435C3.14782 27.1368 3.77678 29.1295 4.82572 30.6553L5.03437 30.2203C4.69448 29.6736 4.39443 29.065 4.15854 28.4276Z" fill="#454545"/>
<path d="M7.0941 28.5319L7.17284 29.3733L8.83819 32.7494C8.86579 32.7425 8.89352 32.7353 8.9202 32.7293C8.95297 32.719 9.02916 32.6914 9.06247 32.6807C9.06247 32.6807 9.15411 32.6397 9.15411 32.6397L9.20004 32.6191L9.24393 32.5946C9.27314 32.5781 9.30278 32.5621 9.33185 32.5452C9.33185 32.5452 9.39589 32.5017 9.4081 32.4934L7.62585 28.9607L7.0941 28.5319Z" fill="#4A4A4A"/>
<path d="M4.51118 22.7867L4.5099 22.7841L4.42749 22.842C4.45273 22.8251 4.47786 22.8083 4.49611 22.7954C4.501 22.7925 4.50617 22.7896 4.51118 22.7867Z" fill="#4A4A4A"/>
<path d="M6.22071 26.8957L6.13451 26.0047L4.61534 22.9935C4.58434 23.0169 4.52922 23.0588 4.50365 23.0791C4.46654 23.1112 4.4288 23.1474 4.39284 23.1801C4.3295 23.2439 4.27124 23.3115 4.21741 23.382L5.7701 26.5298L6.22071 26.8957Z" fill="#4A4A4A"/>
<path d="M4.39303 23.18C4.42899 23.1473 4.46672 23.1111 4.50384 23.079C4.5294 23.0587 4.58453 23.0168 4.61552 22.9934L4.51119 22.7866C4.50618 22.7895 4.50101 22.7924 4.49612 22.7953C4.47787 22.8083 4.45274 22.825 4.4275 22.842L4.35159 22.8953C4.31019 22.9299 4.26431 22.9644 4.22426 23C4.18904 23.0355 4.13793 23.0803 4.1021 23.1183C4.09906 23.1218 4.09585 23.1253 4.09275 23.1289L4.21759 23.3819C4.27142 23.3114 4.32969 23.2438 4.39303 23.18Z" fill="#4A4A4A"/>
<path d="M3.23851 25.4231L3.25317 25.4349C3.25673 25.3774 3.26112 25.3203 3.26637 25.2634L3.23851 25.4231Z" fill="#4A4A4A"/>
<path d="M7.23167 28.1793L7.62584 28.9606L10.3026 31.1189C10.3783 30.8639 10.428 30.6012 10.4567 30.3354L7.75002 28.1374L7.23167 28.1793Z" fill="#4A4A4A"/>
<path d="M6.16351 27.327L5.77019 26.5297L3.66767 24.8223C3.66758 24.8229 3.66749 24.8234 3.66741 24.824C3.62722 25.1197 3.61132 25.4222 3.61682 25.7281L5.67655 27.3889L6.16351 27.327Z" fill="#4A4A4A"/>
<path d="M3.66724 24.8241C3.66732 24.8235 3.66742 24.823 3.6675 24.8224L3.38341 24.5917L3.26619 25.2635C3.26094 25.3203 3.25655 25.3774 3.25299 25.4349L3.61665 25.7282C3.61115 25.4222 3.62706 25.1197 3.66724 24.8241Z" fill="#4A4A4A"/>
<path d="M10.3025 31.1189L10.3929 31.1918C10.4599 30.9322 10.5032 30.6644 10.5262 30.3919L10.4566 30.3354C10.4279 30.6013 10.3782 30.864 10.3025 31.1189Z" fill="#4A4A4A"/>
<path d="M7.09399 28.5319L7.62575 28.9607L7.23158 28.1794L7.06228 28.193L7.09399 28.5319Z" fill="#4A4A4A"/>
<path d="M6.22092 26.8956L5.7703 26.5297L6.16362 27.327L6.26146 27.3146L6.22092 26.8956Z" fill="#4A4A4A"/>
<path d="M6.73042 28.4762L6.43264 29.0842L6.72756 32.1322C6.96017 32.3035 7.20804 32.4529 7.47241 32.5732L7.17295 29.3733L6.73042 28.4762Z" fill="#4A4A4A"/>
<path d="M6.60701 26.9407L6.89008 26.3505L6.56631 22.8909C6.47312 22.8527 6.37824 22.8181 6.28141 22.788C6.28141 22.788 6.25658 22.7802 6.25658 22.7802C6.25658 22.7802 6.23135 22.7738 6.23135 22.7738C6.18414 22.7638 6.12775 22.7455 6.08009 22.7364C6.02514 22.7274 5.93244 22.7066 5.87613 22.7027C5.87613 22.7027 5.84307 22.699 5.81453 22.6957L6.13468 26.0045L6.60701 26.9407Z" fill="#4A4A4A"/>
<path d="M5.87623 22.7029C5.93254 22.7068 6.02524 22.7275 6.08018 22.7365C6.12784 22.7456 6.18424 22.7639 6.23144 22.7739C6.23144 22.7739 6.25667 22.7803 6.25667 22.7803C6.25667 22.7803 6.28151 22.7882 6.28151 22.7882C6.37833 22.8183 6.47322 22.8528 6.56641 22.891L6.55303 22.7482C6.5444 22.7442 6.53581 22.7402 6.52714 22.7363C6.45982 22.7048 6.3685 22.6741 6.29862 22.647C6.23901 22.6302 6.17497 22.6061 6.11513 22.5914C6.08313 22.5833 5.98311 22.5606 5.95454 22.5536C5.92012 22.5475 5.83924 22.5349 5.79837 22.5279L5.81463 22.6959C5.84317 22.6991 5.87623 22.7029 5.87623 22.7029Z" fill="#4A4A4A"/>
<path d="M6.7275 32.1322L6.76853 32.5564C7.00651 32.6975 7.25187 32.8135 7.50303 32.9012L7.47234 32.5733C7.20798 32.453 6.9601 32.3036 6.7275 32.1322Z" fill="#4A4A4A"/>
<path d="M6.60698 26.9409L6.13465 26.0046L6.22086 26.8956L6.51438 27.1339L6.60698 26.9409Z" fill="#4A4A4A"/>
<path d="M6.73041 28.4763L7.17294 29.3734L7.09419 28.532L6.81384 28.306L6.73041 28.4763Z" fill="#4A4A4A"/>
<path d="M6.43843 27.2922L6.5143 27.134L6.22078 26.8957L6.26132 27.3147L6.43843 27.2922Z" fill="#4A4A4A"/>
<path d="M6.86129 28.2091L6.81398 28.3057L7.09433 28.5317L7.06261 28.1928L6.86129 28.2091Z" fill="#4A4A4A"/>
<path d="M6.35182 28.2504L5.96384 28.2817L5.03415 30.2203C5.0988 30.3242 5.16486 30.426 5.23218 30.5252C5.32679 30.6618 5.42553 30.7972 5.52849 30.93L6.4325 29.0842L6.35182 28.2504Z" fill="#4A4A4A"/>
<path d="M6.97187 27.2245L7.36811 27.1743L8.64118 24.5749C8.58853 24.5083 8.53507 24.4424 8.48012 24.3777C8.34594 24.2205 8.20452 24.0668 8.05588 23.9199L6.8901 26.3507L6.97187 27.2245Z" fill="#4A4A4A"/>
<path d="M5.23219 30.5251C5.16486 30.4258 5.0988 30.3241 5.03416 30.2201L4.82551 30.6552C4.9864 30.8892 5.15712 31.1123 5.33663 31.3216L5.52849 30.9299C5.42553 30.7971 5.32679 30.6617 5.23219 30.5251Z" fill="#4A4A4A"/>
<path d="M8.48018 24.3776C8.53513 24.4423 8.58859 24.5083 8.64124 24.5749L8.65518 24.5464C8.47638 24.3084 8.28477 24.0805 8.08078 23.868L8.05595 23.9198C8.20459 24.0668 8.346 24.2204 8.48018 24.3776Z" fill="#4A4A4A"/>
<path d="M6.97168 27.2246L6.8899 26.3507L6.60683 26.941L6.76325 27.251L6.97168 27.2246Z" fill="#4A4A4A"/>
<path d="M6.3517 28.2504L6.43238 29.0842L6.73016 28.4762L6.60853 28.2297L6.3517 28.2504Z" fill="#4A4A4A"/>
<path d="M6.67254 27.2625L6.76334 27.251L6.60692 26.9409L6.51432 27.134L6.67254 27.2625Z" fill="#4A4A4A"/>
<path d="M6.70904 28.2215L6.60856 28.2296L6.73019 28.4762L6.81363 28.3058L6.70904 28.2215Z" fill="#4A4A4A"/>
<path d="M6.81381 28.3058L6.86112 28.2092L6.70923 28.2214L6.81381 28.3058Z" fill="#4A4A4A"/>
<path d="M6.51436 27.134L6.4385 27.2922L6.67259 27.2625L6.51436 27.134Z" fill="#4A4A4A"/>
<path d="M7.13925 27.6415L7.75011 28.1375L10.2633 27.9346C10.1726 27.5664 10.0571 27.2042 9.92155 26.8502L7.36807 27.1743L7.13925 27.6415Z" fill="#4A4A4A"/>
<path d="M6.19247 27.8051L5.67647 27.389L3.89757 27.6148C3.97182 27.8893 4.05962 28.1609 4.15832 28.4276L5.96383 28.2818L6.19247 27.8051Z" fill="#4A4A4A"/>
<path d="M9.92152 26.8502C10.057 27.2042 10.1726 27.5664 10.2633 27.9346L10.2734 27.9338C10.1751 27.5587 10.0554 27.1944 9.92235 26.8501L9.92152 26.8502Z" fill="#4A4A4A"/>
<path d="M3.63034 27.6487L3.77539 28.4586L4.15835 28.4276C4.05965 28.1609 3.97185 27.8893 3.8976 27.6148L3.63034 27.6487Z" fill="#4A4A4A"/>
<path d="M6.28669 27.5768L6.16348 27.327L5.67651 27.3888L6.19252 27.8049L6.28924 27.6032L6.28669 27.5768Z" fill="#4A4A4A"/>
<path d="M7.23165 28.1793L7.75 28.1375L7.13913 27.6414L7.05103 27.8213L7.23165 28.1793Z" fill="#4A4A4A"/>
<path d="M7.03137 27.8616L7.06239 28.1931L7.23169 28.1794L7.05107 27.8214L7.03137 27.8616Z" fill="#4A4A4A"/>
<path d="M6.26129 27.3148L6.16346 27.3272L6.28666 27.577L6.26129 27.3148Z" fill="#4A4A4A"/>
<path d="M6.28684 27.5769L6.28939 27.6034L6.29455 27.5926L6.28684 27.5769Z" fill="#4A4A4A"/>
<path d="M6.43851 27.2922L6.26139 27.3147L6.28676 27.5769L6.29448 27.5925L6.43851 27.2922Z" fill="#4A4A4A"/>
<path d="M7.0625 28.1929L7.03148 27.8614L6.86118 28.2091L7.0625 28.1929Z" fill="#4A4A4A"/>
<path d="M7.00011 27.5286L7.13907 27.6414L7.36789 27.1742L6.97166 27.2245L7.00011 27.5286Z" fill="#4A4A4A"/>
<path d="M6.19251 27.805L5.96387 28.2817L6.35185 28.2504L6.31859 27.9066L6.19251 27.805Z" fill="#4A4A4A"/>
<path d="M7.02221 27.7642L7.05102 27.8213L7.13912 27.6414L7.00016 27.5286L7.02221 27.7642Z" fill="#4A4A4A"/>
<path d="M6.28926 27.6033L6.19254 27.8049L6.31861 27.9066L6.28926 27.6033Z" fill="#4A4A4A"/>
<path d="M7.05091 27.8213L7.02211 27.7642L7.03122 27.8615L7.05091 27.8213Z" fill="#4A4A4A"/>
<path d="M6.83617 27.3955L7.0002 27.5287L6.97174 27.2246L6.76331 27.251L6.83617 27.3955Z" fill="#4A4A4A"/>
<path d="M6.53575 28.0817L6.31866 27.9066L6.35192 28.2504L6.60875 28.2296L6.53575 28.0817Z" fill="#4A4A4A"/>
<path d="M6.7634 27.2509L6.67261 27.2625L6.83626 27.3953L6.7634 27.2509Z" fill="#4A4A4A"/>
<path d="M6.60865 28.2296L6.70913 28.2215L6.53565 28.0816L6.60865 28.2296Z" fill="#4A4A4A"/>
<path d="M6.28926 27.6032L6.31861 27.9066L6.5357 28.0816L6.29442 27.5925L6.28926 27.6032Z" fill="#4A4A4A"/>
<path d="M7.0224 27.7642L7.00035 27.5286L6.83632 27.3954L7.0224 27.7642Z" fill="#4A4A4A"/>
<path d="M6.67247 27.2626L6.43838 27.2923L6.29436 27.5926L6.53563 28.0817L6.70911 28.2216L6.86101 28.2093L7.03131 27.8616L7.0222 27.7643L6.83613 27.3955L6.67247 27.2626Z" fill="#4A4A4A"/>
<path d="M31.4096 25.4741L30.8362 23.324L28.2229 19.9766L26.233 19.3692L26.0881 21.3132L28.6183 24.9131L29.3053 27.1875L31.4096 25.4741Z" fill="#242424"/>
<path d="M27.5914 27.7146L27.0685 25.4509L26.278 24.3262L25.8232 24.6459L17.2928 27.5545L18.2707 31.2438L27.5914 27.7146Z" fill="#242424"/>
<path d="M14.9183 27.6603L12.0334 27.4476L12.1584 27.9589L15.1256 28.1936L14.9183 27.6603Z" fill="#242424"/>
<path d="M16.9043 16.1045L11.1442 14.3956L1.85487 16.0792L4.0421 19.4135L16.9043 16.1045Z" fill="#242424"/>
<path d="M1.58082 19.8407L-0.227476 16.5267L-3.89229 17.5394L-4.96562 20.8729L1.58082 19.8407Z" fill="#242424"/>
<path d="M4.45678 21.4864L-10.4685 22.7867L-8.52161 21.8873L-4.9657 20.8729L4.04188 19.4135L11.393 20.4209L4.45678 21.4864Z" fill="#03EB55"/>
<path d="M7.186 27.5028C7.02956 27.1345 6.67877 26.9309 6.40249 27.0483C6.1262 27.1656 6.02905 27.5593 6.18549 27.9277C6.34193 28.2961 6.69272 28.4996 6.969 28.3823C7.24529 28.265 7.34244 27.8712 7.186 27.5028Z" fill="#242424"/>
<path opacity="0.47" d="M3.10162 17.9643L5.14601 15.4893L6.18604 15.2942L3.52021 18.634L3.10162 17.9643Z" fill="#F3FDF5"/>
<path opacity="0.47" d="M4.45989 19.3061L7.69724 15.0205L8.08159 14.9508L4.7585 19.2293L4.45989 19.3061Z" fill="#F3FDF5"/>
<path opacity="0.47" d="M10.1193 17.8501L12.0843 14.6746L12.7127 14.861L10.9999 17.6235L10.1193 17.8501Z" fill="#F3FDF5"/>
<path opacity="0.47" d="M-1.19459 16.7941L-2.69892 20.4815L-1.77912 20.3567L-0.367838 16.5656L-1.19459 16.7941Z" fill="#F3FDF5"/>
</g>
<defs>
<clipPath id="clip0_3232_87424">
<rect width="32" height="32" rx="7" fill="white"/>
</clipPath>
</defs>
</svg>
