<svg width="20" height="20" viewBox="0 0 20 20" fill="none" xmlns="http://www.w3.org/2000/svg">
<path d="M14.5683 3.89603C13.8915 3.12583 13.5183 2.13594 13.5184 1.11108H12.7003C12.806 1.67759 13.0261 2.21666 13.3472 2.69545C13.6682 3.17424 14.0841 3.58272 14.5683 3.89603Z" fill="#1E1E1E"/>
<path d="M6.82416 9.85743C6.20093 9.86064 5.6106 10.1509 5.12142 10.5071C4.63224 10.8633 4.28612 11.3601 4.13805 11.9186C3.98998 12.4771 4.04845 13.0651 4.30417 13.5895C4.55989 14.1138 5.22366 14.4965 5.77493 14.7648C5.47344 14.3806 5.06746 13.9747 5.02786 13.5019C4.98826 13.029 5.09111 12.5553 5.32506 12.133C5.55901 11.7107 5.91494 11.3562 6.35355 11.1088C6.79215 10.8614 7.29636 10.7307 7.81046 10.731C8.09053 10.7337 8.36872 10.7736 8.63647 10.8495V7.72469C8.363 7.68698 8.08697 7.6673 7.81046 7.66581H7.66028L7.53955 9.90507C7.27157 9.83884 7.10148 9.85046 6.82416 9.85743Z" fill="#1E1E1E"/>
<path d="M16.887 5.27618V7.64591C15.3594 7.64259 13.8716 7.15917 12.6344 6.26414V12.4911C12.6313 13.9833 12.0357 15.4133 10.9784 16.4674C9.92104 17.5215 8.48829 18.1134 6.99454 18.1134C5.83923 18.1157 4.71171 17.7596 3.76761 17.0944C4.53744 17.9216 5.53881 18.4981 6.64128 18.7487C7.74376 18.9993 8.89622 18.9124 9.94856 18.4994C11.0009 18.0863 11.9043 17.3663 12.5412 16.433C13.178 15.4997 13.5187 14.3964 13.5189 13.2669V7.05935C14.7604 7.94847 16.2502 8.42531 17.7777 8.42246V5.37083C17.4783 5.37018 17.1798 5.33846 16.887 5.27618Z" fill="#1E1E1E"/>
<path d="M12.6345 12.4927V6.26575C13.8766 7.15552 15.4545 7.81265 16.983 7.80864L16.9353 5.28351C16.0329 5.09326 15.1776 4.59003 14.5709 3.89603C14.0868 3.58272 13.6716 3.17424 13.3505 2.69545C13.0295 2.21666 12.8094 1.67759 12.7037 1.11108H10.4581V13.3756C10.4362 13.9094 10.2485 14.4232 9.92094 14.8455C9.59339 15.2678 9.14229 15.5778 8.63032 15.7322C8.11835 15.8867 7.57094 15.878 7.06413 15.7074C6.55733 15.5367 6.11631 15.2127 5.80235 14.7802C5.29448 14.5129 4.8906 14.0837 4.65492 13.5609C4.41923 13.038 4.36526 12.4514 4.50158 11.8944C4.6379 11.3374 4.95669 10.8418 5.40728 10.4866C5.85787 10.1313 6.4144 9.93667 6.98841 9.93364C7.24641 9.93575 7.5027 9.97555 7.74916 10.0518V7.68136C6.65828 7.6999 5.59636 8.03509 4.69287 8.64607C3.78938 9.25706 3.08335 10.1174 2.66086 11.1223C2.23836 12.1272 2.11765 13.2332 2.31345 14.3054C2.50925 15.3777 3.01309 16.3698 3.76356 17.1609C4.71667 17.8033 5.845 18.1358 6.99454 18.1134C8.48829 18.1134 9.92104 17.5215 10.9784 16.4674C12.0357 15.4136 12.631 13.9847 12.6345 12.4927Z" fill="#1E1E1E"/>
</svg>
