<svg width="92" height="57" viewBox="0 0 92 57" fill="none" xmlns="http://www.w3.org/2000/svg">
<g clip-path="url(#clip0_23997_52794)">
<path d="M73.1716 0.866034C73.1198 0.841788 73.0676 0.821208 73.0152 0.802011C72.112 0.470925 71.1389 0.86269 70.6434 1.06264C52.0161 8.57898 50.7522 8.95196 50.4135 10.7523C49.4835 15.6951 57.2036 22.4879 63.9438 25.0172C66.9504 26.1455 69.7621 26.4258 71.524 25.3146C73.4255 24.1153 73.8052 20.3042 74.5646 12.6821C75.0574 7.73613 75.5782 1.9926 73.1716 0.866034Z" fill="#F79A48"/>
<path d="M24.2259 0.397506C23.8781 0.257151 23.3 0.0253434 22.6731 0.00194665C22.3328 -0.010755 21.9784 0.0369711 21.6381 0.196266C19.1748 1.34939 19.7079 7.22834 20.2122 12.2909C20.9895 20.0927 21.3782 23.9937 23.3245 25.2212C26.1569 27.0075 31.6396 25.2817 36.3833 22.1957C41.4312 18.9117 45.6424 14.0873 44.9328 10.3156C44.5861 8.47283 43.2923 8.09105 24.2259 0.397506Z" fill="#F79A48"/>
<path d="M67.0392 20.1383C72.221 18.6785 73.7775 8.6515 71.1624 6.3349C68.1675 3.68189 57.7325 8.91957 57.6299 13.6054" fill="#A91917"/>
<path d="M28.5449 20.0152C23.3631 18.5555 21.8066 8.52845 24.4217 6.21185C27.4166 3.55884 37.8516 8.79652 37.9542 13.4823C38.0293 16.9134 32.8034 21.2148 28.5449 20.0152Z" fill="#A91917"/>
<path d="M47.258 12.4291C48.0143 16.5812 47.7134 19.2822 47.8924 19.2781C48.0697 19.274 47.8926 16.6355 48.3153 12.2183C48.4677 10.6254 48.6505 9.29923 48.7878 8.25048C48.0909 8.23308 47.3973 8.23737 46.7152 8.26693C46.586 9.45704 46.9504 10.7402 47.258 12.4291Z" fill="#DB5F00"/>
<path d="M43.3465 15.1679C44.092 19.0072 45.2888 21.9615 45.4609 21.9115C45.6665 21.8518 43.3409 17.8139 44.298 12.8497C44.6563 10.9911 45.3928 9.42448 45.6459 8.32617C44.6783 8.39192 43.7001 8.48933 42.7347 8.61358C42.4189 10.3861 42.9363 13.0557 43.3465 15.1679Z" fill="#DB5F00"/>
<path d="M50.3452 21.9514C50.5173 22.0013 51.7141 19.0471 52.4597 15.2077C52.8729 13.0796 53.3951 10.3856 53.0642 8.61341C52.1115 8.47755 51.1318 8.37383 50.1475 8.31055C50.3881 9.41123 51.1438 10.9997 51.5082 12.8896C52.4652 17.8538 50.1396 21.8917 50.3452 21.9514Z" fill="#DB5F00"/>
<path d="M29.1795 30.7627C29.2645 30.4452 25.6888 30.3391 23.3648 27.4963C22.5686 26.5224 22.2598 25.6445 21.7121 24.9707C21.2084 25.8959 20.6892 26.8643 20.1465 27.8784C20.5848 28.2018 21.0336 28.5029 21.4618 28.7607C25.1496 30.9811 29.0903 31.096 29.1795 30.7627Z" fill="#DB5F00"/>
<path d="M31.6111 36.136C31.5682 35.8217 27.1363 37.5904 22.5189 35.6092C20.3723 34.6881 18.9756 33.2957 17.8404 32.2637C17.4359 33.2068 17.0685 34.4667 17.2086 35.9253C17.2348 36.1975 17.2771 36.4709 17.3324 36.7426C18.9557 37.1507 20.6064 37.3225 21.356 37.4005C26.9915 37.9866 31.6548 36.457 31.6111 36.136Z" fill="#DB5F00"/>
<path d="M33.0911 39.8249C32.9695 39.5479 30.086 41.1421 25.6905 41.9323C23.5728 42.313 21.804 42.3813 20.356 42.3948C21.2602 43.4568 22.1002 44.4261 22.8883 45.3138C24.2685 44.6747 25.9523 43.8448 28.0164 42.7753C30.7112 41.3789 33.2035 40.081 33.0911 39.8249Z" fill="#DB5F00"/>
<path d="M66.397 30.3182C66.4862 30.6515 70.4269 30.5366 74.1147 28.3162C74.2314 28.2459 74.3498 28.1721 74.469 28.0958C74.0145 27.2464 73.5769 26.4286 73.1516 25.6406C72.9013 26.0759 72.621 26.5511 72.2117 27.0517C69.8877 29.8945 66.312 30.0007 66.397 30.3182Z" fill="#DB5F00"/>
<path d="M76.7889 32.6836C75.8237 33.5445 74.6459 34.4843 73.0573 35.166C68.4399 37.1472 64.008 35.3785 63.9651 35.6928C63.9214 36.0138 68.5847 37.5434 74.2202 36.9573C74.7843 36.8986 75.8588 36.7868 77.0478 36.5612C77.1059 36.2802 77.1503 35.9973 77.1774 35.7157C77.2883 34.5607 77.0808 33.5308 76.7889 32.6836Z" fill="#DB5F00"/>
<path d="M62.4851 39.3796C62.3727 39.6357 64.865 40.9336 67.5598 42.3299C69.2894 43.2262 70.7512 43.9537 71.9921 44.5422C72.6987 43.7381 73.4468 42.8699 74.2443 41.9309C72.9976 41.8924 71.5487 41.786 69.8857 41.487C65.4902 40.6968 62.6067 39.1025 62.4851 39.3796Z" fill="#DB5F00"/>
<path d="M43.0645 43.1189C43.73 41.2621 50.1547 40.8351 51.2619 43.1078C51.4751 43.5454 51.4157 44.165 51.1715 44.8179H71.7495C71.8303 44.7264 71.9103 44.6361 71.9922 44.5429C70.7514 43.9543 69.2895 43.2268 67.5599 42.3306C64.8652 40.9343 62.3728 39.6364 62.4853 39.3803C62.6068 39.1032 65.4903 40.6974 69.8858 41.4876C71.5489 41.7866 72.9977 41.8931 74.2445 41.9315C74.478 41.6566 74.7152 41.3763 74.9574 41.089C75.596 40.3316 76.649 38.4898 77.048 36.5607C75.859 36.7863 74.7846 36.8981 74.2204 36.9568C68.5849 37.5429 63.9216 36.0133 63.9654 35.6923C64.0082 35.378 68.4402 37.1467 73.0575 35.1655C74.6461 34.4839 75.8239 33.544 76.7891 32.6831C76.5445 31.9733 76.2407 31.3917 76.0146 30.9736C75.4757 29.9769 74.9625 29.0183 74.469 28.0961C74.3498 28.1724 74.2314 28.2462 74.1147 28.3165C70.4269 30.5369 66.4862 30.6518 66.397 30.3185C66.312 30.001 69.8877 29.8949 72.2117 27.0521C72.621 26.5515 72.9013 26.0762 73.1516 25.641C69.1736 18.2714 66.2754 13.5455 60.7906 10.7427C59.0829 9.87005 56.2241 9.06443 53.0642 8.6138C53.3951 10.386 52.8729 13.08 52.4597 15.2081C51.7142 19.0475 50.5173 22.0017 50.3452 21.9517C50.1396 21.8921 52.4653 17.8542 51.5082 12.89C51.1438 11.0001 50.3881 9.41162 50.1475 8.31094C49.6944 8.2818 49.2405 8.26129 48.7879 8.25C48.6505 9.29875 48.4678 10.6249 48.3153 12.2179C47.8926 16.635 48.0697 19.2735 47.8924 19.2776C47.7134 19.2817 48.0144 16.5807 47.2581 12.4286C46.9505 10.7397 46.5861 9.45656 46.7153 8.26644C46.7083 8.26675 46.7012 8.26688 46.6941 8.26719C46.347 8.2825 45.997 8.30265 45.6458 8.32651C45.3927 9.42482 44.6562 10.9915 44.2979 12.8501C43.3408 17.8143 45.6664 21.8521 45.4608 21.9118C45.2887 21.9618 44.0919 19.0075 43.3464 15.1682C42.9362 13.056 42.4188 10.3865 42.7346 8.61392C39.044 9.08892 35.5468 9.95642 33.5957 10.9534C28.3326 13.6429 25.4513 18.1031 21.7121 24.9708C22.2599 25.6446 22.5687 26.5225 23.3648 27.4964C25.6888 30.3392 29.2645 30.4453 29.1796 30.7628C29.0904 31.0962 25.1496 30.9812 21.4618 28.7608C21.0337 28.503 20.5848 28.202 20.1465 27.8785C19.5832 28.9311 18.9945 30.0324 18.3717 31.1843C18.2165 31.4712 18.0247 31.8349 17.8405 32.2643C18.9757 33.2963 20.3724 34.6888 22.519 35.6098C27.1364 37.5911 31.5683 35.8224 31.6112 36.1367C31.6549 36.4576 26.9916 37.9873 21.3561 37.4011C20.6065 37.3231 18.9558 37.1513 17.3325 36.7432C17.727 38.6826 18.7872 40.5386 19.4289 41.2998C19.7454 41.6753 20.0543 42.0399 20.3561 42.3944C21.8042 42.381 23.5729 42.3127 25.6907 41.932C30.0862 41.1418 32.9697 39.5475 33.0913 39.8246C33.2037 40.0807 30.7114 41.3786 28.0166 42.7749C26.4492 43.5871 25.1017 44.2608 23.9393 44.8179H43.1475C42.9387 44.1807 42.9027 43.5706 43.0645 43.1189Z" fill="#F79A48"/>
<path d="M51.2619 43.1079C50.1546 40.8352 43.7299 41.2622 43.0645 43.119C42.9026 43.5707 42.9386 44.1808 43.1474 44.818H51.1715C51.4156 44.1651 51.475 43.5455 51.2619 43.1079Z" fill="#222021"/>
<path d="M35.7341 27.0762C34.1749 27.3445 33.1262 28.38 32.3178 29.0876C31.4761 30.1991 30.9766 31.5824 30.9766 33.0822C30.9766 36.7484 33.9586 39.7205 37.6371 39.7205C41.2786 39.7205 44.2356 36.8075 44.2948 33.1922C44.1515 32.8056 43.9795 32.4161 43.769 32.0285C42.223 29.1823 38.7605 26.5553 35.7341 27.0762Z" fill="#A3D991"/>
<path d="M37.6372 26.4434C35.4635 26.4434 33.5336 27.4815 32.3179 29.087C33.1263 28.3794 34.175 27.3439 35.7342 27.0756C38.7606 26.5547 42.2231 29.1817 43.7691 32.0279C43.9796 32.4155 44.1516 32.805 44.2949 33.1917C44.2955 33.1549 44.2977 33.1185 44.2977 33.0816C44.2977 29.4154 41.3157 26.4434 37.6372 26.4434Z" fill="#71B259"/>
<path d="M36.58 38.9815C39.0323 38.9815 41.0203 36.9058 41.0203 34.3452C41.0203 31.7847 39.0323 29.709 36.58 29.709C34.1277 29.709 32.1396 31.7847 32.1396 34.3452C32.1396 36.9058 34.1277 38.9815 36.58 38.9815Z" fill="#222021"/>
<path d="M38.906 33.0816C40.1905 33.0816 41.2319 32.0437 41.2319 30.7634C41.2319 29.4832 40.1905 28.4453 38.906 28.4453C37.6214 28.4453 36.5801 29.4832 36.5801 30.7634C36.5801 32.0437 37.6214 33.0816 38.906 33.0816Z" fill="white"/>
<path d="M40.7558 37.086C41.3105 37.086 41.7602 36.6378 41.7602 36.085C41.7602 35.5322 41.3105 35.084 40.7558 35.084C40.2011 35.084 39.7515 35.5322 39.7515 36.085C39.7515 36.6378 40.2011 37.086 40.7558 37.086Z" fill="white"/>
<path d="M37.7432 34.9777C37.9768 34.9777 38.1661 34.789 38.1661 34.5562C38.1661 34.3235 37.9768 34.1348 37.7432 34.1348C37.5096 34.1348 37.3203 34.3235 37.3203 34.5562C37.3203 34.789 37.5096 34.9777 37.7432 34.9777Z" fill="white"/>
<path d="M56.4558 27.1816C54.8965 27.45 53.8479 28.4855 53.0395 29.1931C52.1978 30.3046 51.6982 31.6879 51.6982 33.1877C51.6982 36.8539 54.6803 39.8259 58.3588 39.8259C62.0002 39.8259 64.9573 36.913 65.0165 33.2977C64.8732 32.9111 64.7012 32.5216 64.4907 32.134C62.9447 29.2877 59.4822 26.6608 56.4558 27.1816Z" fill="#A3D991"/>
<path d="M58.3589 26.5488C56.1852 26.5488 54.2552 27.587 53.0396 29.1925C53.848 28.4849 54.8966 27.4494 56.4559 27.181C59.4823 26.6602 62.9448 29.2872 64.4908 32.1334C64.7013 32.521 64.8733 32.9105 65.0166 33.2971C65.0172 33.2604 65.0194 33.224 65.0194 33.1871C65.0194 29.5209 62.0374 26.5488 58.3589 26.5488Z" fill="#71B259"/>
<path d="M57.3017 39.0869C59.754 39.0869 61.742 37.0112 61.742 34.4507C61.742 31.8902 59.754 29.8145 57.3017 29.8145C54.8493 29.8145 52.8613 31.8902 52.8613 34.4507C52.8613 37.0112 54.8493 39.0869 57.3017 39.0869Z" fill="#222021"/>
<path d="M59.6277 33.187C60.9122 33.187 61.9535 32.1492 61.9535 30.8689C61.9535 29.5886 60.9122 28.5508 59.6277 28.5508C58.3431 28.5508 57.3018 29.5886 57.3018 30.8689C57.3018 32.1492 58.3431 33.187 59.6277 33.187Z" fill="white"/>
<path d="M61.4775 37.1915C62.0322 37.1915 62.4819 36.7433 62.4819 36.1905C62.4819 35.6376 62.0322 35.1895 61.4775 35.1895C60.9228 35.1895 60.4731 35.6376 60.4731 36.1905C60.4731 36.7433 60.9228 37.1915 61.4775 37.1915Z" fill="white"/>
<path d="M58.4644 35.0832C58.6979 35.0832 58.8873 34.8945 58.8873 34.6617C58.8873 34.4289 58.6979 34.2402 58.4644 34.2402C58.2308 34.2402 58.0415 34.4289 58.0415 34.6617C58.0415 34.8945 58.2308 35.0832 58.4644 35.0832Z" fill="white"/>
<path d="M4.22461 52.7263L5.80893 56.937L8.18541 52.0684L4.22461 52.7263Z" fill="#FED67A"/>
<path d="M16.0292 49.3672L12.0684 50.0251L13.6527 54.2358" fill="#FED67A"/>
<path d="M23.6864 52.1309L19.7256 52.7888L21.3099 56.9995" fill="#FED67A"/>
<path d="M88.0969 51.6L86.6333 55.4898L84.438 50.9922L88.0969 51.6Z" fill="#FED67A"/>
<path d="M77.1929 48.498L80.8518 49.1058L79.3882 52.9956" fill="#FED67A"/>
<path d="M70.1187 51.0508L73.7776 51.6586L72.314 55.5484" fill="#FED67A"/>
<path d="M22.2966 52.1524C25.5678 50.7237 26.9331 46.6439 27.2629 44.795C26.4428 42.2128 24.1824 40.3566 21.5203 40.3566C20.4548 40.3566 19.4539 40.6548 18.5833 41.1769C17.486 39.4886 15.6632 38.3828 13.5987 38.3828C11.6011 38.3828 9.82895 39.4175 8.7221 41.0142C7.92152 40.5931 7.02293 40.3566 6.07323 40.3566C2.71908 40.3566 0 43.3022 0 46.9359C0 50.3038 2.33653 53.0789 5.34904 53.467C5.89916 53.3265 6.46794 53.106 7.02158 52.7663C7.17118 52.6745 9.43937 51.2365 9.85485 48.7148C10.2033 46.5997 9.03776 45.0008 9.23892 44.9088C9.4694 44.8034 11.3348 46.7488 11.2099 49.2059C11.167 50.0498 10.8973 50.781 10.5345 51.3965C10.6999 51.2024 10.8552 50.998 10.9984 50.7833C11.2 50.8859 11.4078 50.9766 11.6208 51.0554C12.5838 50.8093 15.0347 50.5636 16.7532 48.7148C18.4315 46.9093 18.4144 44.647 18.4778 44.6632C18.5615 44.6847 18.4852 48.596 16.5099 50.6529C16.9889 51.4091 17.6094 52.0516 18.3307 52.5349C19.3091 52.6989 20.7703 52.8191 22.2966 52.1524Z" fill="#F79A48"/>
<path d="M87.3011 51.3628C90.167 50.1111 91.4554 46.6635 91.8465 44.8415C91.2596 42.1647 89.0399 40.173 86.3894 40.173C85.5121 40.173 84.682 40.3915 83.9424 40.7804C82.92 39.3054 81.2829 38.3496 79.4375 38.3496C77.5303 38.3496 75.8465 39.3711 74.8328 40.9308C74.0286 40.4484 73.104 40.173 72.1196 40.173C69.0211 40.173 66.5093 42.8941 66.5093 46.2508C66.5093 49.1454 68.3778 51.5657 70.879 52.1776C71.6526 52.0951 72.5242 51.8748 73.3588 51.3627C73.4974 51.2776 75.6002 49.9445 75.9854 47.6066C76.3085 45.6457 75.2279 44.1634 75.4144 44.0781C75.6281 43.9804 77.3575 45.7839 77.2417 48.0619C77.2108 48.6686 77.0532 49.2122 76.8274 49.6922C76.9035 49.7352 76.98 49.7776 77.0581 49.8169C77.6821 49.5431 80.2891 49.4728 82.0588 47.569C83.6147 45.8952 83.5989 43.7978 83.6577 43.8129C83.7465 43.8357 83.6411 48.5913 80.9168 50.0731C80.7652 50.1556 80.6097 50.2248 80.4523 50.2836C80.9395 50.1879 81.4051 50.0261 81.8397 49.805C82.4066 50.6552 83.1717 51.3397 84.0611 51.7805C84.9391 51.8862 86.0982 51.8882 87.3011 51.3628Z" fill="#F79A48"/>
<path d="M9.239 44.9084C9.03784 45.0004 10.2034 46.5993 9.85493 48.7144C9.43946 51.2361 7.17126 52.6741 7.02166 52.7659C6.46802 53.1056 5.89924 53.3261 5.34912 53.4666C5.58676 53.4972 5.82807 53.5147 6.07331 53.5147C7.83788 53.5147 9.42522 52.6982 10.5346 51.3962C10.8973 50.7806 11.1671 50.0494 11.21 49.2055C11.3349 46.7484 9.46948 44.803 9.239 44.9084Z" fill="#DB5F00"/>
<path d="M18.4776 44.6641C18.4142 44.6479 18.4313 46.9102 16.753 48.7157C15.0344 50.5645 12.5835 50.8102 11.6206 51.0563C12.2406 51.2855 12.9058 51.4107 13.5985 51.4107C14.6457 51.4107 15.631 51.1264 16.491 50.6258C16.497 50.6354 16.5037 50.6443 16.5097 50.6538C18.485 48.5969 18.5613 44.6856 18.4776 44.6641Z" fill="#DB5F00"/>
<path d="M27.3315 44.3145C27.3336 44.294 27.3351 44.2751 27.3367 44.2559C27.3351 44.275 27.3335 44.2942 27.3315 44.3145Z" fill="#DB5F00"/>
<path d="M27.5934 46.9377C27.5934 46.1879 27.476 45.4682 27.2628 44.7969C26.933 46.6457 25.5676 50.7255 22.2964 52.1543C20.7701 52.8209 19.309 52.7007 18.3306 52.5368C19.2576 53.1579 20.35 53.517 21.5202 53.517C24.8743 53.517 27.5934 50.5713 27.5934 46.9377Z" fill="#DB5F00"/>
<path d="M27.3438 43.9844C27.3456 44.0085 27.346 44.0375 27.346 44.0683C27.3461 44.0374 27.3456 44.0085 27.3438 43.9844Z" fill="#DB5F00"/>
<path d="M27.3423 44.1743C27.3438 44.1479 27.3448 44.1229 27.3453 44.0996C27.3449 44.1227 27.3437 44.1481 27.3423 44.1743Z" fill="#DB5F00"/>
<path d="M18.3305 52.5356C17.8767 52.4596 17.5268 52.3743 17.3228 52.3535C17.5266 52.3744 17.8771 52.4596 18.3305 52.5356Z" fill="#DB5F00"/>
<path d="M27.3369 44.2555C27.3392 44.227 27.3413 44.1995 27.3427 44.1738C27.3412 44.1996 27.3393 44.2268 27.3369 44.2555Z" fill="#DB5F00"/>
<path d="M27.2627 44.795C27.2868 44.6599 27.3054 44.5371 27.3188 44.4277C27.3052 44.5373 27.2868 44.6601 27.2627 44.795Z" fill="#DB5F00"/>
<path d="M75.4148 44.078C75.2283 44.1633 76.3089 45.6456 75.9858 47.6065C75.6007 49.9444 73.4979 51.2775 73.3592 51.3626C72.5246 51.8747 71.6531 52.095 70.8794 52.1776C71.2787 52.2752 71.6935 52.3285 72.1201 52.3285C74.0527 52.3285 75.7568 51.2697 76.7658 49.6586C76.7862 49.6704 76.8074 49.6805 76.8279 49.6921C77.0536 49.2121 77.2112 48.6685 77.2421 48.0618C77.3579 45.7839 75.6285 43.9803 75.4148 44.078Z" fill="#DB5F00"/>
<path d="M83.6577 43.8126C83.5989 43.7975 83.6147 45.8949 82.0588 47.5687C80.2891 49.4725 77.6822 49.5428 77.0581 49.8165C77.7805 50.18 78.5868 50.3834 79.4375 50.3834C79.7842 50.3834 80.1231 50.348 80.4523 50.2833C80.6097 50.2245 80.7652 50.1552 80.9168 50.0728C83.6411 48.591 83.7466 43.8354 83.6577 43.8126Z" fill="#DB5F00"/>
<path d="M92.0002 46.2511C92.0002 45.7657 91.9461 45.2943 91.8469 44.8418C91.4558 46.6638 90.1674 50.1114 87.3015 51.3631C86.0986 51.8885 84.9395 51.8865 84.0615 51.7808C84.7707 52.1322 85.5589 52.329 86.3898 52.329C89.4884 52.329 92.0002 49.6078 92.0002 46.2511Z" fill="#DB5F00"/>
</g>
<defs>
<clipPath id="clip0_23997_52794">
<rect width="92" height="57" fill="white"/>
</clipPath>
</defs>
</svg>
