<svg width="12" height="13" fill="none" xmlns="http://www.w3.org/2000/svg"><g filter="url(#a)"><path d="M3.513 8.853c-.187-.24-.42-.726-.827-1.333-.233-.333-.806-.967-.98-1.293a.84.84 0 0 1-.1-.667.88.88 0 0 1 .954-.667c.34.069.653.236.9.48.172.162.33.339.473.527.107.133.133.187.253.34.12.153.2.307.14.08a17.669 17.669 0 0 0-.24-1.393C4 4.547 3.98 4.487 3.9 4.2s-.127-.527-.214-.853a9.439 9.439 0 0 1-.186-.974 1.88 1.88 0 0 1 .173-1.233.793.793 0 0 1 .867-.147c.293.217.512.52.626.867.175.427.292.875.347 1.333.107.667.313 1.64.32 1.84 0-.246-.047-.766 0-1A.713.713 0 0 1 6.28 3.5c.198-.06.408-.075.613-.04.207.043.39.162.513.333.155.39.24.802.254 1.22.017-.366.08-.729.186-1.08a.827.827 0 0 1 .46-.32c.22-.04.447-.04.667 0a.94.94 0 0 1 .453.327c.141.354.227.727.254 1.107 0 .093.046-.26.193-.494a.668.668 0 0 1 1.267.427V6.487a7.83 7.83 0 0 1-.16 1.16 3.94 3.94 0 0 1-.48.953c-.324.36-.592.767-.794 1.207-.05.218-.072.442-.066.666-.001.207.026.414.08.614a3.902 3.902 0 0 1-.82 0c-.26-.04-.58-.56-.667-.72a.253.253 0 0 0-.453 0c-.147.253-.474.713-.7.74-.447.053-1.367 0-2.094 0 0 0 .12-.667-.153-.907s-.553-.52-.76-.707l-.56-.64Z" fill="#fff"/><path clip-rule="evenodd" d="M3.513 8.853c-.187-.24-.42-.726-.827-1.333-.233-.333-.806-.967-.98-1.293a.84.84 0 0 1-.1-.667.88.88 0 0 1 .954-.667c.34.069.653.236.9.48.172.162.33.339.473.527.107.133.133.187.253.34.12.153.2.307.14.08a17.669 17.669 0 0 0-.24-1.393C4 4.547 3.98 4.487 3.9 4.2s-.127-.527-.214-.853a9.439 9.439 0 0 1-.186-.974 1.88 1.88 0 0 1 .173-1.233.793.793 0 0 1 .867-.147c.293.217.512.52.626.867.175.427.292.875.347 1.333.107.667.313 1.64.32 1.84 0-.246-.047-.766 0-1A.713.713 0 0 1 6.28 3.5c.198-.06.408-.075.613-.04.207.043.39.162.513.333.155.39.24.802.254 1.22.017-.366.08-.729.186-1.08a.827.827 0 0 1 .46-.32c.22-.04.447-.04.667 0a.94.94 0 0 1 .453.327c.141.354.227.727.254 1.107 0 .093.046-.26.193-.494a.668.668 0 0 1 1.267.427V6.487a7.83 7.83 0 0 1-.16 1.16 3.94 3.94 0 0 1-.48.953c-.324.36-.592.767-.794 1.207-.05.218-.072.442-.066.666-.001.207.026.414.08.614a3.902 3.902 0 0 1-.82 0c-.26-.04-.58-.56-.667-.72a.253.253 0 0 0-.453 0c-.147.253-.474.713-.7.74-.447.053-1.367 0-2.094 0 0 0 .12-.667-.153-.907s-.553-.52-.76-.707l-.56-.64Z" stroke="#000" stroke-width=".5" stroke-linecap="round" stroke-linejoin="round"/><path d="M9.166 9.217v-2.3a.25.25 0 0 0-.5 0v2.3a.25.25 0 0 0 .5 0ZM7.846 9.216l-.013-2.302a.25.25 0 0 0-.5.003l.013 2.302a.25.25 0 0 0 .5-.003ZM6 6.92l.013 2.297a.25.25 0 1 0 .5-.003L6.5 6.916a.25.25 0 1 0-.5.003Z" fill="#000"/></g><defs><filter id="a" x=".794" y=".675" width="11.164" height="11.906" filterUnits="userSpaceOnUse" color-interpolation-filters="sRGB"><feFlood flood-opacity="0" result="BackgroundImageFix"/><feColorMatrix in="SourceAlpha" values="0 0 0 0 0 0 0 0 0 0 0 0 0 0 0 0 0 0 127 0" result="hardAlpha"/><feOffset dy=".667"/><feGaussianBlur stdDeviation=".267"/><feColorMatrix values="0 0 0 0 0 0 0 0 0 0 0 0 0 0 0 0 0 0 0.5 0"/><feBlend in2="BackgroundImageFix" result="effect1_dropShadow_6493_20644"/><feBlend in="SourceGraphic" in2="effect1_dropShadow_6493_20644" result="shape"/></filter></defs></svg>