<svg width="164" height="125" viewBox="0 0 164 125" fill="none" xmlns="http://www.w3.org/2000/svg">
<g clip-path="url(#clip0_333_4103)">
<rect width="164" height="125" rx="6" fill="transparent"/>
<path fill-rule="evenodd" clip-rule="evenodd" d="M68.002 8.0112C54.2846 17.661 45.2843 36.4969 47.2754 51.58C49.2238 66.3403 68.681 68.9607 77.5177 80.0952C83.5964 87.7545 99.9746 101.007 108.888 105.359C117.833 109.727 129.563 104.363 140.052 101.015C149.604 97.9661 157.461 91.793 166.484 86.9754C181.63 78.8889 204.311 78.8855 210.783 63.2497C216.901 48.4709 198.287 38.6567 191.761 25.9159C185.611 13.9104 186.588 -4.56544 173.687 -9.17237C160.736 -13.797 127.878 2.34321 113.339 5.10606C97.8078 8.05758 81.5313 -1.50622 68.002 8.0112Z" fill="white"/>
<path fill-rule="evenodd" clip-rule="evenodd" d="M-36.3798 -51.2967C-49.8479 -41.8118 -58.6845 -23.2979 -56.7296 -8.47268C-54.8166 6.03531 -35.7132 8.61098 -27.0372 19.5551C-21.069 27.0835 -4.98859 40.1095 3.76252 44.3872C12.5451 48.6803 24.0618 43.4077 34.3603 40.117C43.738 37.1205 51.4528 31.053 60.3118 26.3177C75.1819 18.3694 97.4505 18.3661 103.805 2.9976C109.812 -11.5286 91.5366 -21.175 85.129 -33.698C79.0912 -45.4983 80.0496 -63.6583 67.3831 -68.1865C54.6679 -72.7321 22.4071 -56.8678 8.13297 -54.1522C-7.11597 -51.2511 -23.0966 -60.6514 -36.3798 -51.2967Z" stroke="#4891FF" stroke-width="1.11376"/>
<path opacity="0.25" fill-rule="evenodd" clip-rule="evenodd" d="M53.9653 49.1709C40.925 58.3705 32.369 76.3275 34.2618 90.7069C36.1141 104.779 54.6107 107.277 63.0112 117.892C68.7899 125.194 84.3596 137.828 92.8327 141.977C101.336 146.141 112.487 141.027 122.459 137.835C131.539 134.929 139.008 129.044 147.586 124.451C161.984 116.742 183.545 116.738 189.698 101.832C195.514 87.7429 177.819 78.3866 171.615 66.2403C165.769 54.7948 166.697 37.181 154.433 32.789C142.121 28.3801 110.885 43.7673 97.0644 46.4013C82.2997 49.2151 66.8267 40.0975 53.9653 49.1709Z" stroke="#4891FF" stroke-width="1.11376"/>
</g>
<defs>
<clipPath id="clip0_333_4103">
<rect width="164" height="125" rx="6" fill="white"/>
</clipPath>
</defs>
</svg>
